<svg xmlns="http://www.w3.org/2000/svg" viewBox="0 0 88.54 298.58"><defs><style>.cls-1{fill:#fddc0d;}.cls-2{fill:#fff;opacity:0.22;}.cls-3{fill:#0f0b49;}.cls-4{fill:#fe487c;}.cls-5{fill:#f5c40d;}.cls-6{fill:#fe9bb8;}.cls-7{fill:#cdc3ff;opacity:0.37;}.cls-8{fill:#09b5b1;}</style></defs><g id="Layer_2" data-name="Layer 2"><g id="Modal"><rect class="cls-1" width="88.54" height="298.58"/><ellipse class="cls-2" cx="49.16" cy="182.31" rx="16.32" ry="16.61"/><ellipse class="cls-2" cx="49.16" cy="182.31" rx="12.2" ry="12.41"/><path class="cls-3" d="M47.88,247c-4.14-7.74-2.36-13.26-.88-15.89-8-11.09,0-41,.38-42.4l1.16.32c-.1.35-8,30.08-.85,41,1.81-2.51,4.45-4,6.52-3.74a2.83,2.83,0,0,1,2.37,2,4.57,4.57,0,0,1-.32,4.22c-1.43,2-4.59,2-4.72,2l-.21,0a9.06,9.06,0,0,1-3.51-2.4c-1.29,2.54-2.56,7.45,1.11,14.3Zm.57-16a8.13,8.13,0,0,0,3.19,2.33c.5,0,2.71-.2,3.66-1.54a3.46,3.46,0,0,0,.15-3.13,1.63,1.63,0,0,0-1.41-1.2c-1.43-.21-3.79.91-5.53,3.45Z"/><path class="cls-4" d="M48,193S37.59,182,52.69,176.12C52.69,176.12,59.45,184.77,48,193Z"/><path class="cls-5" d="M48.11,192.28s-6.74-7.08,3-10.91C51.15,181.37,55.53,187,48.11,192.28Z"/><path class="cls-5" d="M70,235c-3.87,4.85-10.38,6.85-16.25,7.63a38.48,38.48,0,0,1-19.33-2.23c-4.13-1.65-8.93-4.49-13.64-5,0,.26,0,.52,0,.78a25.07,25.07,0,1,0,50.14,0c0-.79,0-1.58-.11-2.35C70.51,234.3,70.25,234.67,70,235Z"/><path class="cls-6" d="M20.77,235.89s18.62-7.24,50.06-1.61C70.83,234.28,62.93,259.44,20.77,235.89Z"/><path class="cls-2" d="M77.25,236.43c0-11.4-7.08-21.27-17.38-26h-28c-10.3,4.77-17.37,14.64-17.37,26,0,11.8,7.57,22,18.46,26.52a2.84,2.84,0,0,0-1.66,2.58,2.81,2.81,0,0,0,2.77,2.82H57.67a2.83,2.83,0,0,0,1.11-5.4C69.67,258.39,77.25,248.23,77.25,236.43Z"/><path class="cls-2" d="M77.25,236.43a27.09,27.09,0,0,0-.84-6.64c-.11.61-.23,1.22-.37,1.82-2.35,10.48-9.57,20.81-20.05,24-9.41,2.86-20.11-1.46-25.85-9.38-7.5-10.35-6.06-24.54.46-35.17-9.58,5-16.07,14.47-16.07,25.38,0,11.8,7.57,22,18.46,26.52a2.84,2.84,0,0,0-1.66,2.58,2.81,2.81,0,0,0,2.77,2.82H57.67a2.83,2.83,0,0,0,1.11-5.4C69.67,258.39,77.25,248.23,77.25,236.43Z"/><path class="cls-3" d="M56.74,212H34.2a4.52,4.52,0,0,1-4.47-4.54h0A4.52,4.52,0,0,1,34.2,203H56.74a4.51,4.51,0,0,1,4.46,4.54h0A4.51,4.51,0,0,1,56.74,212Z"/><path class="cls-7" d="M60.46,205a4.45,4.45,0,0,0-3.72-2H34.2a4.44,4.44,0,0,0-3.72,2Z"/><path class="cls-2" d="M61.05,214s10.74,6.7,11.78,15.87c0,0-9.7-10.58-12.82-12C60,217.92,56.54,213.69,61.05,214Z"/><polygon class="cls-3" points="48.37 90.48 47.85 89.09 70.59 80.21 71.11 81.61 48.37 90.48"/><polygon class="cls-3" points="23.4 93.76 22.46 92.62 34.21 82.67 48.47 88.33 53.64 64.03 55.07 64.34 49.53 90.35 34.48 84.38 23.4 93.76"/><ellipse class="cls-4" cx="20.33" cy="96.35" rx="5.87" ry="5.98"/><path class="cls-4" d="M37.28,83.27a3.92,3.92,0,1,1-3.55-4.33A3.94,3.94,0,0,1,37.28,83.27Z"/><ellipse class="cls-4" cx="54.35" cy="64.19" rx="3.92" ry="3.99"/><path class="cls-4" d="M52.75,90.21a4.68,4.68,0,1,1-4.18-5.51A4.87,4.87,0,0,1,52.75,90.21Z"/><ellipse class="cls-4" cx="70.85" cy="80.91" rx="5.1" ry="4.66" transform="translate(-15.05 145.61) rotate(-85.78)"/><polygon class="cls-3" points="47.43 143 47.8 141.56 71.39 147.7 71.03 149.15 47.43 143"/><polygon class="cls-3" points="25.19 130.98 25.08 129.5 40.32 128.3 48.73 141.3 66.76 124.52 67.75 125.62 48.45 143.58 39.57 129.85 25.19 130.98"/><ellipse class="cls-8" cx="21.22" cy="131.29" rx="5.87" ry="5.98"/><path class="cls-8" d="M42.47,130.59A3.87,3.87,0,0,1,37,131a4.06,4.06,0,0,1-.43-5.63,3.88,3.88,0,0,1,5.53-.43A4,4,0,0,1,42.47,130.59Z"/><path class="cls-8" d="M70.23,127.67a3.88,3.88,0,0,1-5.53.43,4,4,0,0,1-.42-5.62A3.87,3.87,0,0,1,69.8,122,4,4,0,0,1,70.23,127.67Z"/><ellipse class="cls-8" cx="47.62" cy="142.28" rx="5.07" ry="4.69" transform="translate(-96.9 101.96) rotate(-55.91)"/><ellipse class="cls-8" cx="71.21" cy="148.43" rx="5.07" ry="4.69" transform="translate(-91.62 124.2) rotate(-55.91)"/><polygon class="cls-3" points="55.52 135.91 54.06 121.37 55.51 121.22 56.98 135.75 55.52 135.91"/><polygon class="cls-3" points="31.26 129.72 27.93 117.51 29.34 117.11 32.67 129.33 31.26 129.72"/><polygon class="cls-3" points="60.45 155.39 57.92 145.85 59.34 145.47 61.86 155 60.45 155.39"/><path class="cls-8" d="M30.81,118.09a2.48,2.48,0,0,1-3.52.41,2.59,2.59,0,0,1-.15-3.61,2.48,2.48,0,0,1,3.52-.41A2.59,2.59,0,0,1,30.81,118.09Z"/><path class="cls-8" d="M62.87,156.13a2.48,2.48,0,0,1-3.52.4,2.58,2.58,0,0,1-.14-3.6,2.48,2.48,0,0,1,3.52-.41A2.59,2.59,0,0,1,62.87,156.13Z"/><path class="cls-8" d="M56.2,123a2.49,2.49,0,0,1-3.52.41,2.59,2.59,0,0,1-.15-3.61,2.48,2.48,0,0,1,3.52-.41A2.59,2.59,0,0,1,56.2,123Z"/></g></g></svg>