<svg xmlns="http://www.w3.org/2000/svg" viewBox="0 0 88.5 298.58"><defs><style>.cls-1{fill:#8ac440;}.cls-2{fill:#fddc0d;}.cls-3{fill:#fff;}.cls-4{fill:#b73e55;opacity:0.5;}.cls-5{fill:#f9e6b4;}.cls-6{fill:#ff7588;}</style></defs><g id="Layer_2" data-name="Layer 2"><g id="Modal"><rect class="cls-1" width="88.5" height="298.58"/><ellipse class="cls-2" cx="33.45" cy="88.46" rx="21.62" ry="22.63"/><polygon class="cls-2" points="20.11 97.77 15.25 112.6 31.24 105.49 20.11 97.77"/><ellipse class="cls-3" cx="56.96" cy="138.07" rx="21.62" ry="22.63"/><polygon class="cls-3" points="70.31 147.38 75.16 162.21 59.17 155.11 70.31 147.38"/><path class="cls-4" d="M25,190.18l47.12,3.08a6.6,6.6,0,0,1,6.29,6.94l-6.08,69.64a6.65,6.65,0,0,1-7.69,5.67l-48.06-4.85Z"/><path class="cls-5" d="M21.5,190.2l47.12,3.09a6.59,6.59,0,0,1,6.29,6.93l-6.08,69.64a6.64,6.64,0,0,1-7.69,5.67l-48-4.85Z"/><path class="cls-6" d="M9.6,268l8.07-76.54a3,3,0,0,1,3.2-2.49l43.84,3.14a5.87,5.87,0,0,1,5.7,6.24l-6.94,72.2a6.29,6.29,0,0,1-7.08,5.35l-44.06-4.75A2.93,2.93,0,0,1,9.6,268Z"/><path class="cls-4" d="M16.12,260.32l6.34-60.09a2.32,2.32,0,0,1,2.51-2l34.43,2.46a4.63,4.63,0,0,1,4.47,4.91l-5.45,56.68a4.93,4.93,0,0,1-5.55,4.2l-34.6-3.73A2.31,2.31,0,0,1,16.12,260.32Z"/><path class="cls-5" d="M29,221.67a.27.27,0,0,0,.09,0l1.47-.42a.27.27,0,0,0,.17-.33.24.24,0,0,0-.3-.18l-.12,0a15.46,15.46,0,0,1,10.48-3.41l-.41,6.18-.12-.27a.24.24,0,0,0-.33-.14.28.28,0,0,0-.13.35l.52,1.24,0,.06.07.18a.27.27,0,0,0,.22.16.22.22,0,0,0,.23-.13l.76-1.38a.28.28,0,0,0-.09-.37.25.25,0,0,0-.34.1l-.15.27.41-6.2a15.65,15.65,0,0,1,9.89,4.85l-.2-.09a.25.25,0,0,0-.33.15.27.27,0,0,0,.14.34l1.47.63.08,0a.26.26,0,0,0,.19-.06.27.27,0,0,0,.07-.27l-.39-1.54a.26.26,0,0,0-.31-.19.27.27,0,0,0-.18.33l.09.34a16.31,16.31,0,0,0-10.81-5.24,16,16,0,0,0-11.47,3.69l.16-.41a.27.27,0,0,0-.14-.34.25.25,0,0,0-.33.15l-.6,1.54a.28.28,0,0,0,0,.28A.23.23,0,0,0,29,221.67Z"/><path class="cls-5" d="M43.05,235.47a4.68,4.68,0,0,1-3.19.93,4.84,4.84,0,0,1-3-1.38,4.55,4.55,0,0,0-3.08,4.06l-.13,2a1.62,1.62,0,0,0,1.46,1.76l8.69.63A1.6,1.6,0,0,0,45.43,242l.14-2A4.6,4.6,0,0,0,43.05,235.47Z"/><path class="cls-5" d="M35.92,230.92a4.66,4.66,0,0,0,.39,2.18,4.32,4.32,0,0,0,.42.76,4.19,4.19,0,0,0,.26.33,4.12,4.12,0,0,0,.28.31c.12.12.26.23.39.34s.17.13.26.18a3.49,3.49,0,0,0,.74.39,4,4,0,0,0,1.25.29,4.15,4.15,0,0,0,1.27-.11,4.23,4.23,0,0,0,.78-.27l.28-.15.43-.28.32-.26a2.13,2.13,0,0,0,.3-.3,4.89,4.89,0,0,0,.52-.68,4.68,4.68,0,0,0,.66-2.11,4.29,4.29,0,1,0-8.55-.62Z"/><path class="cls-5" d="M31.12,229.63a3.81,3.81,0,0,1-2.55.73,3.89,3.89,0,0,1-2.44-1.09,3.78,3.78,0,0,0-2.67,3.42l-.09,1.41a1.35,1.35,0,0,0,1.22,1.47l7.23.53a1.34,1.34,0,0,0,1.41-1.28l.09-1.42A3.83,3.83,0,0,0,31.12,229.63Z"/><path class="cls-5" d="M26.81,228.94l.25.19a3.22,3.22,0,0,0,3.16.23l.28-.15a3.31,3.31,0,0,0,.52-.38l.24-.24a3.55,3.55,0,0,0,.92-2.17,3.45,3.45,0,0,0-3.1-3.73,3.4,3.4,0,0,0-3.57,3.24,3.62,3.62,0,0,0,.83,2.56A4,4,0,0,0,26.81,228.94Z"/><path class="cls-5" d="M54.39,231.32a3.83,3.83,0,0,1-2.56.73A3.9,3.9,0,0,1,49.4,231a3.79,3.79,0,0,0-2.67,3.42l-.1,1.42a1.36,1.36,0,0,0,1.22,1.47l7.24.52a1.33,1.33,0,0,0,1.4-1.28l.1-1.41A3.84,3.84,0,0,0,54.39,231.32Z"/><path class="cls-5" d="M48.78,227.62a3.59,3.59,0,0,0,.83,2.55,3.33,3.33,0,0,0,.46.46l.26.19a3.19,3.19,0,0,0,1.55.53,3.24,3.24,0,0,0,1.61-.3l.28-.15a3.21,3.21,0,0,0,.52-.39,2.5,2.5,0,0,0,.23-.23,3.54,3.54,0,0,0,.92-2.18,3.44,3.44,0,0,0-3.1-3.72A3.39,3.39,0,0,0,48.78,227.62Z"/></g></g></svg>