<svg xmlns="http://www.w3.org/2000/svg" viewBox="0 0 88.54 298.09"><defs><style>.cls-1{isolation:isolate;}.cls-2{fill:#209fe5;opacity:0.8;}.cls-3,.cls-5{fill:#cdc3ff;}.cls-11,.cls-15,.cls-16,.cls-4{fill:#fff;}.cls-4{opacity:0.45;}.cls-5{mix-blend-mode:multiply;}.cls-6{opacity:0.31;}.cls-7,.cls-8{fill:#0f0b49;}.cls-8{opacity:0.44;}.cls-9{fill:#fe487c;}.cls-10{fill:#f5c40d;}.cls-11{opacity:0.22;}.cls-12{fill:#029960;}.cls-13{fill:#09b5b1;}.cls-14{opacity:0.62;}.cls-16{opacity:0.49;}.cls-17{opacity:0.69;}</style></defs><g class="cls-1"><g id="Layer_2" data-name="Layer 2"><g id="Modal"><rect class="cls-2" width="88.54" height="298.09"/><rect class="cls-3" x="17.31" y="72.89" width="56.44" height="67.17" rx="11.04" transform="translate(38.64 -9.12) rotate(19.74)"/><path class="cls-4" d="M71.07,91.46a40,40,0,0,1,1.86,16.79c-.17,2.3-.43,4.64-.56,7l8-22.43A9,9,0,0,0,75,81.38L61.86,76.65A42,42,0,0,1,71.07,91.46Z"/><path class="cls-5" d="M27.84,119A46.56,46.56,0,0,1,19.59,95.2l-8.95,24.94A9,9,0,0,0,16,131.57l36.31,13a9,9,0,0,0,11.43-5.39l1.63-4.55C51.05,136,36.77,131.62,27.84,119Z"/><g class="cls-6"><path class="cls-7" d="M50.69,141.69,19.16,130.37a9.32,9.32,0,0,1-5.62-11.9l14.73-41a9.32,9.32,0,0,1,11.9-5.62L71.7,83.13A9.32,9.32,0,0,1,77.32,95l-14.73,41A9.32,9.32,0,0,1,50.69,141.69ZM39.92,72.51a8.58,8.58,0,0,0-11,5.17l-14.73,41a8.57,8.57,0,0,0,5.17,10.95L50.94,141a8.57,8.57,0,0,0,11-5.16l14.73-41a8.58,8.58,0,0,0-5.17-11Z"/></g><path class="cls-8" d="M67.57,96,34.1,84a5.37,5.37,0,0,1-3.24-6.85h0a5.38,5.38,0,0,1,6.86-3.24l33.47,12a5.38,5.38,0,0,1,3.24,6.86h0A5.38,5.38,0,0,1,67.57,96Z"/><circle class="cls-9" cx="32.09" cy="93.29" r="3.29" transform="translate(-66.11 83.8) rotate(-65.5)"/><path class="cls-9" d="M45.43,98.08a3.29,3.29,0,1,1-2-4.21A3.28,3.28,0,0,1,45.43,98.08Z"/><circle class="cls-9" cx="52.58" cy="100.64" r="3.29" transform="translate(-60.81 106.75) rotate(-65.5)"/><path class="cls-10" d="M67.21,105.89a3.29,3.29,0,1,1-2-4.21A3.3,3.3,0,0,1,67.21,105.89Z"/><path class="cls-10" d="M63.54,116.14a3.29,3.29,0,1,1-2-4.21A3.3,3.3,0,0,1,63.54,116.14Z"/><path class="cls-10" d="M59.86,126.38a3.29,3.29,0,1,1-2-4.21A3.28,3.28,0,0,1,59.86,126.38Z"/><path class="cls-10" d="M56.18,136.62a3.29,3.29,0,1,1-2-4.21A3.29,3.29,0,0,1,56.18,136.62Z"/><path class="cls-9" d="M31.51,104.64a3.29,3.29,0,1,1-2-4.2A3.3,3.3,0,0,1,31.51,104.64Z"/><circle class="cls-9" cx="38.66" cy="107.21" r="3.29" transform="translate(-74.89 97.4) rotate(-65.24)"/><path class="cls-9" d="M52,112a3.29,3.29,0,1,1-2-4.2A3.29,3.29,0,0,1,52,112Z"/><path class="cls-9" d="M27.83,114.89a3.29,3.29,0,1,1-2-4.21A3.27,3.27,0,0,1,27.83,114.89Z"/><path class="cls-9" d="M38.08,118.56a3.29,3.29,0,1,1-2-4.21A3.3,3.3,0,0,1,38.08,118.56Z"/><path class="cls-9" d="M48.32,122.24a3.29,3.29,0,1,1-2-4.21A3.28,3.28,0,0,1,48.32,122.24Z"/><path class="cls-9" d="M24.16,125.13a3.29,3.29,0,1,1-2-4.21A3.3,3.3,0,0,1,24.16,125.13Z"/><path class="cls-9" d="M34.4,128.81a3.29,3.29,0,1,1-2-4.21A3.28,3.28,0,0,1,34.4,128.81Z"/><path class="cls-9" d="M44.65,132.48a3.29,3.29,0,1,1-2-4.21A3.3,3.3,0,0,1,44.65,132.48Z"/><path class="cls-7" d="M54,86.47a21.86,21.86,0,0,0,2.74-1.21c1.12-.58,1.38-.84,1.37-1.36S57.57,83.13,57,83a.75.75,0,0,0-.52.07.53.53,0,0,0-.3.39,2,2,0,0,0-.09.35c0,.06-.08.08-.21.07-.44,0-.56-.35-.32-.83s.85-.72,1.79-.44a2.33,2.33,0,0,1,.81.39,1.7,1.7,0,0,1,.76.89,2,2,0,0,1-.11.58.92.92,0,0,1-.5.62,25.57,25.57,0,0,1-2.81,1.45,10.38,10.38,0,0,0-1,.38l.52.15a14.63,14.63,0,0,1,2.13.83c.38.23.55.42.41.49s-.39,0-1.28-.37a16.07,16.07,0,0,0-2.35-.77,2.66,2.66,0,0,1-.8-.27C53,86.88,53.22,86.75,54,86.47Z"/><path class="cls-7" d="M61.19,89.05c0-.07.14-.53.33-1.13-.9-.31-1.73-.61-1.88-.68s-.32-.21-.31-.28.19-.16.43-.11.86.28,1.88.63l.16-.58c0-.17.17-.64.35-.57.52.2.54.42.49.63s-.1.42-.21.79l1.19.4c.31.1,1.16.38,1.12.48-.13.27-.49.18-.86.08-.18,0-.84-.27-1.58-.52a7.77,7.77,0,0,1-.41,1.1.29.29,0,0,1-.35.1C61.43,89.35,61.2,89.2,61.19,89.05Z"/><path class="cls-7" d="M66.21,90.86A20.49,20.49,0,0,0,69,89.65c1.12-.58,1.37-.84,1.36-1.36s-.5-.77-1.1-.87a.74.74,0,0,0-.52.07.55.55,0,0,0-.3.39,1.51,1.51,0,0,0-.1.35c0,.06-.07.08-.2.07-.44,0-.56-.35-.32-.83s.84-.72,1.79-.43a2,2,0,0,1,.8.38c.45.31.74.65.76.89a1.47,1.47,0,0,1-.11.58.85.85,0,0,1-.5.62A23.8,23.8,0,0,1,67.71,91a8.78,8.78,0,0,0-1,.38l.52.15a14.63,14.63,0,0,1,2.13.83c.38.23.55.43.41.49s-.39,0-1.29-.37a15.33,15.33,0,0,0-2.35-.77,2.89,2.89,0,0,1-.8-.27C65.25,91.27,65.46,91.14,66.21,90.86Z"/><path class="cls-11" d="M49,201.25l-25.2,10.38a2.47,2.47,0,0,0-1.34,3.21h0a2.46,2.46,0,0,0,3.21,1.34l2-.81,18.17,44.14s5,13.7,16.25,9.28h0l.3-.13.31-.13h0c11.12-4.81,5-18,5-18L49.54,206.37l1.37-.56a2.48,2.48,0,0,0,1.34-3.22h0A2.48,2.48,0,0,0,49,201.25Z"/><path class="cls-7" d="M50.22,200.41l-6.47,2.66-2.32-5.61a8,8,0,1,0-14.87,6.12l2.31,5.62-6.47,2.66a2,2,0,0,0-1.1,2.66l.57,1.4a2,2,0,0,0,2.66,1.1l27.81-11.45a2,2,0,0,0,1.11-2.65l-.58-1.4A2,2,0,0,0,50.22,200.41Z"/><path class="cls-12" d="M33.23,217.51l17.35,42.16A7.39,7.39,0,1,0,64.24,254L46.89,211.89Z"/><path class="cls-13" d="M54,236.84a14.85,14.85,0,0,0,2.42-1.79l-9.54-23.16-13.66,5.62L42.4,239.8C46.45,239.27,50.61,238.86,54,236.84Z"/><g class="cls-14"><path class="cls-15" d="M61.93,266.48a8.4,8.4,0,0,1-1.43.47l-.15-.7s4.09-.95,5.87-4.38c1.24-2.38,1.12-5.41-.35-9l-17.58-42.7.67-.28,17.58,42.7c1.56,3.79,1.67,7,.32,9.61A9.65,9.65,0,0,1,61.93,266.48Z"/></g><path class="cls-16" d="M43.49,219.39A2.54,2.54,0,1,1,40.17,218,2.55,2.55,0,0,1,43.49,219.39Z"/><path class="cls-16" d="M61.54,254.16a2.54,2.54,0,1,1-3.31-1.39A2.53,2.53,0,0,1,61.54,254.16Z"/><path class="cls-16" d="M50.47,227.26a1.62,1.62,0,1,1-2.11-.88A1.61,1.61,0,0,1,50.47,227.26Z"/><path class="cls-16" d="M50.86,248.82a1.62,1.62,0,1,1-2.11-.88A1.61,1.61,0,0,1,50.86,248.82Z"/><path class="cls-16" d="M56.84,242.11a1.62,1.62,0,1,1-2.12-.88A1.62,1.62,0,0,1,56.84,242.11Z"/><path class="cls-16" d="M47.66,237.4a1.62,1.62,0,1,1-2.11-.88A1.62,1.62,0,0,1,47.66,237.4Z"/><g class="cls-17"><path class="cls-15" d="M41.68,201.91l-.67.28c-1.39-3.38-3.19-5.43-5.34-6.11a5.77,5.77,0,0,0-4.48.55L30.8,196a6.38,6.38,0,0,1,5.07-.63C38.25,196.12,40.2,198.32,41.68,201.91Z"/></g><path class="cls-15" d="M23.33,177.86s-.08,0-.11,0c-.34-.07-.47-.3-.57-1.24,0-.54-.6-3.35-1.37-7.14-.69-3.41-1.31-6.59-1.41-7.07-.24-1.24-.19-1.56.47-1.85a37.69,37.69,0,0,1,4.37-1.15c1.38-.27,1.88-.35,2.13-.09a.56.56,0,0,1,0,.75c-.13.05-1.07.29-2.18.56a16.81,16.81,0,0,0-3.43,1c-.17.09-.19.12-.11.43.28,1.27.94,4.38,1.11,5l.21.79,2.29-.42a11.63,11.63,0,0,1,2.44-.31.5.5,0,0,1,.28.58c-.08.45-.18.5-2.48,1l-2.14.44.08.54c.24,1.68,1,5.94,1.13,6.38l.13.22,2.54-.5c2.73-.53,3-.53,3.18-.2a.84.84,0,0,1-.22.81,19.25,19.25,0,0,1-2.76.7c-1.37.3-2.77.6-3,.68a3,3,0,0,1-.47.12Z"/><path class="cls-15" d="M30.6,167.75a.93.93,0,0,1,.49-.9c.3-.14,3.58-.81,7-1.63.55-.14,2.07-.52,2.14-.17.13,1-.48,1.22-1.13,1.43s-7.08,1.63-7.71,1.64C30.93,168.15,30.67,168,30.6,167.75Zm.64,3.28a.91.91,0,0,1,.49-.89c.3-.14,3.58-.81,7-1.64.55-.13,2.07-.51,2.14-.17.13,1-.48,1.23-1.12,1.44-.8.26-7.09,1.63-7.72,1.64C31.57,171.44,31.31,171.27,31.24,171Z"/><path class="cls-15" d="M49.43,169.08c-.12-.89-.44-4.92-2.67-4.4-1.64.37-2.24,2.19-1.87,5.37.29,2.47.27,2.92-.12,3.32-.23.27-.38.33-.54.19a25.19,25.19,0,0,1-.73-3.27c-.64-3.29-.86-4.84-.74-5.52.05-.31.09-.38.33-.42s.62.09.79.56c.1.2.19.37.24.36a3.1,3.1,0,0,0,.35-.45,2.91,2.91,0,0,1,4.5-.77l.49.37.39-.54a4.08,4.08,0,0,1,2.65-1.62,3.23,3.23,0,0,1,3.35,2.48,20,20,0,0,1,.62,3c.53,3.17.49,3.4-.29,3.17a.63.63,0,0,1-.37-.21c-.05-.07-.3-1.21-.55-2.53-.6-3.05-.89-3.84-1.52-4.41a1.21,1.21,0,0,0-1.21-.26c-.8.16-1.44.8-2.05,2l-.2.42.22,1.39a27,27,0,0,1,.45,4.28,1.06,1.06,0,0,1-.62.76C50,172.47,49.82,171.89,49.43,169.08Z"/><path class="cls-15" d="M58.8,167.61a8,8,0,0,1-.4-2.9,6,6,0,0,1,2-3.54,3.08,3.08,0,0,1,1.4-.72,2.45,2.45,0,0,1,.66,0,3,3,0,0,1,2.16,1.47.79.79,0,0,1-.16.59c-.24.34-.34.39-.71.05a2,2,0,0,0-1.79-.56,1.57,1.57,0,0,0-1,.36,4.94,4.94,0,0,0-1.07,2,3.07,3.07,0,0,0,.08,1.5,3.88,3.88,0,0,0,.94,2.15,1.68,1.68,0,0,0,1.76.43,3.26,3.26,0,0,0,2.06-1.28c.7-.82,1.27-1,1.39-.36.09.45-1.1,2.12-1.87,2.54a7.3,7.3,0,0,1-2.68.64A3.45,3.45,0,0,1,58.8,167.61Z"/><path class="cls-15" d="M67.22,159.17a37.51,37.51,0,0,0,1.43-4.23c.54-1.87.57-2.5.21-3.36a1.06,1.06,0,0,0-1.5-.56.8.8,0,0,0-.38.54,1.54,1.54,0,0,0,0,.9c.06.29.13.58.16.66s0,.18-.13.26c-.39.3-.69-.12-.82-1.12-.17-1.19.21-1.87,1.18-2.16a1.24,1.24,0,0,1,.93,0,2,2,0,0,1,1.23.87,5.49,5.49,0,0,1,.3,1,2.65,2.65,0,0,1,0,1.45c-.17.88-1,3.85-1.34,4.67-.46,1.15-.54,1.39-.54,1.4a4.26,4.26,0,0,0,.53-.16,7.82,7.82,0,0,1,2.32-.33c.47.07.74.26.68.48s-.33.3-1.32.42a8.53,8.53,0,0,0-2.46.61,1.5,1.5,0,0,1-.85.19C66.7,160.62,66.79,160.25,67.22,159.17Z"/></g></g></g></svg>