<svg xmlns="http://www.w3.org/2000/svg" viewBox="0 0 77.11 64.77"><defs><style>.cls-1{isolation:isolate;}.cls-2{fill:#7cb342;}.cls-3{fill:#497f04;}.cls-4{mix-blend-mode:multiply;opacity:0.15;}.cls-5{fill:#10192b;}.cls-6{fill:#969696;}.cls-7{fill:#4f120b;}.cls-8{fill:#fff;}.cls-9{fill:#e0e0e0;}.cls-10{fill:#d6d6d6;}.cls-11{fill:#f7f7f7;}.cls-12{fill:#ff4924;}.cls-13{fill:#d12f1d;}.cls-14{fill:#2d4375;}.cls-15{fill:#1e2d4f;}.cls-16{fill:#fdb813;}.cls-17{fill:#fd9b13;}</style></defs><g class="cls-1"><g id="Layer_2" data-name="Layer 2"><g id="Layer_3" data-name="Layer 3"><path class="cls-2" d="M75.86,30.66h0L41.2,8.66a5,5,0,0,0-5.26,0L1.11,30.77a2.67,2.67,0,0,0-1.11,2,2.72,2.72,0,0,0,1.21,2.12L36.29,57.19a5,5,0,0,0,4.56,0h0L75.66,35.1a2.82,2.82,0,0,0,1.45-2.29A2.74,2.74,0,0,0,75.86,30.66Z"/><path class="cls-3" d="M75.66,35.1,40.85,57.19h0a5,5,0,0,1-4.56,0L1.21,34.93A2.72,2.72,0,0,1,0,32.81v7A2.72,2.72,0,0,0,1.21,42L36.29,64.23a5.08,5.08,0,0,0,4.56,0h0l34.81-22.1a2.82,2.82,0,0,0,1.45-2.29v-7A2.82,2.82,0,0,1,75.66,35.1Z"/><g class="cls-4"><rect x="25.11" y="3.19" width="4.73" height="6.87"/></g><rect class="cls-5" x="25.11" width="4.73" height="6.87"/><g class="cls-4"><rect x="50.51" y="3.19" width="4.73" height="6.87"/></g><rect class="cls-5" x="50.51" width="4.73" height="6.87"/><g class="cls-4"><polygon points="58.89 6.77 18.91 6.77 18.91 36.21 51.88 36.21 58.89 29.2 58.89 6.77"/></g><polygon class="cls-6" points="58.89 3.58 18.91 3.58 18.91 33.02 51.88 33.02 58.89 26.01 58.89 3.58"/><g class="cls-4"><rect x="18.91" y="6.77" width="39.98" height="6.57"/></g><rect class="cls-7" x="18.91" y="3.58" width="39.98" height="6.57"/><g class="cls-4"><rect x="17.59" y="6.77" width="19.99" height="29.43"/><polygon points="37.58 6.77 37.58 36.21 50.56 36.21 57.57 29.2 57.57 6.77 37.58 6.77"/><polygon points="57.57 29.2 50.56 36.21 57.57 36.21 57.57 29.2"/></g><rect class="cls-8" x="17.59" y="3.58" width="19.99" height="29.43"/><polygon class="cls-9" points="37.58 3.58 37.58 33.02 50.56 33.02 57.57 26.01 57.57 3.58 37.58 3.58"/><polygon class="cls-10" points="57.57 26.01 50.56 33.02 57.57 33.02 57.57 26.01"/><g class="cls-4"><polygon points="50.56 36.21 57.57 29.2 50.56 29.2 50.56 36.21"/></g><polygon class="cls-11" points="50.56 33.02 57.57 26.01 50.56 26.01 50.56 33.02"/><g class="cls-4"><rect x="17.59" y="6.77" width="19.99" height="6.57"/><rect x="37.58" y="6.77" width="19.99" height="6.57"/></g><rect class="cls-12" x="17.59" y="3.58" width="19.99" height="6.57"/><rect class="cls-13" x="37.58" y="3.58" width="19.99" height="6.57"/><g class="cls-4"><rect x="23.48" y="3.19" width="2.37" height="6.87"/><rect x="25.85" y="3.19" width="2.37" height="6.87"/></g><rect class="cls-14" x="23.48" width="2.37" height="6.87"/><rect class="cls-15" x="25.85" width="2.37" height="6.87"/><g class="cls-4"><rect x="48.88" y="3.19" width="2.37" height="6.87"/><rect x="51.25" y="3.19" width="2.37" height="6.87"/></g><rect class="cls-14" x="48.88" width="2.37" height="6.87"/><rect class="cls-15" x="51.25" width="2.37" height="6.87"/><g class="cls-4"><polygon points="30.9 40.36 34.5 36.92 31.83 35.08 29.78 39.92 30.9 40.36"/><polygon points="48.01 47.13 47.74 42.16 50.95 42.64 49.13 47.58 48.01 47.13"/><path d="M49.28,18.57A13.35,13.35,0,0,0,39.46,43.4l9.82-24.83Z"/><path d="M49.28,18.57,39.46,43.4h0a13.35,13.35,0,0,0,9.82-24.83Z"/><path d="M48.19,21.34a10.38,10.38,0,0,0-7.64,19.3h0l7.64-19.3Z"/><path d="M48.19,21.34l-7.64,19.3a10.38,10.38,0,1,0,7.64-19.3Z"/><path d="M39.63,12.49l-.17-.72A14.31,14.31,0,0,0,43.9,9.68c1.83-1.17,3.42-2.18,5.76-1.25l7,2.75-.27.68-7-2.75c-2-.78-3.28,0-5.09,1.19A15,15,0,0,1,39.63,12.49Z"/><rect x="50.64" y="7.57" width="0.74" height="3.58" transform="translate(23.5 53.32) rotate(-68.36)"/><path d="M59.55,15.62c-.41-2-.74-3.57-3.12-4.51L52.81,9.67l-.27.69,3.62,1.44c2,.79,2.26,2,2.67,4a17,17,0,0,0,1.64,4.95l.65-.35A16.66,16.66,0,0,1,59.55,15.62Z"/><path d="M40.57,13a1.28,1.28,0,1,0-1.64.76A1.28,1.28,0,0,0,40.57,13Z"/><path d="M45.19,16.22a.11.11,0,0,0,0-.06,4.37,4.37,0,0,0-4.79-3.93L39,12.37a4.38,4.38,0,0,0-3.93,4.79.13.13,0,0,1,0,.06Z"/><path d="M45.18,16.16c.08.57-2.32,1-5,1.37s-5,.27-5.07-.31,2.06-1.4,4.79-1.77S45.11,15.58,45.18,16.16Z"/><path d="M59.45,20.47a1.29,1.29,0,0,1,1.68-.67,1.28,1.28,0,1,1-1.68.67Z"/><path d="M53.88,19.66l0,0a4.37,4.37,0,0,1,6.18.42L61,21.1a4.39,4.39,0,0,1-.42,6.19l0,0Z"/><path d="M53.93,19.62c-.45.36,1,2.32,2.74,4.46s3.46,3.61,3.91,3.24-.55-2.43-2.27-4.56S54.38,19.25,53.93,19.62Z"/><path d="M48.1,23.56a.34.34,0,0,1-.45.19l-.88-.35a.35.35,0,0,1-.2-.45l.35-.89a.35.35,0,0,1,.45-.19l.89.35a.35.35,0,0,1,.2.45Z"/><rect x="35.69" y="27.28" width="1.65" height="1.65" rx="0.35" transform="translate(-3.08 51.67) rotate(-68.35)"/><rect x="51.3" y="33.33" width="1.65" height="1.65" rx="0.35" transform="translate(1.16 70.02) rotate(-68.37)"/><rect x="40.24" y="38.28" width="1.65" height="1.65" rx="0.35" transform="translate(-10.39 62.92) rotate(-68.43)"/><path d="M50.32,27a.5.5,0,0,0-.69-.13l-4.76,3.27a.84.84,0,0,0-.23-.12,1.06,1.06,0,0,0-1,.14l-2.47-1a.66.66,0,1,0-.49,1.22l2.66,1.05a1,1,0,0,0,.55.52,1.07,1.07,0,0,0,1.37-.6,1,1,0,0,0,.06-.34l4.89-3.36A.49.49,0,0,0,50.32,27Z"/></g><polygon class="cls-14" points="30.9 37.17 34.5 33.73 31.83 31.89 29.78 36.73 30.9 37.17"/><polygon class="cls-15" points="48.01 43.94 47.74 38.97 50.95 39.45 49.13 44.39 48.01 43.94"/><path class="cls-12" d="M49.28,15.38a13.35,13.35,0,0,0-9.82,24.83l9.82-24.83Z"/><path class="cls-13" d="M49.28,15.38,39.46,40.21h0a13.35,13.35,0,0,0,9.82-24.83Z"/><path class="cls-8" d="M48.19,18.15a10.38,10.38,0,0,0-7.64,19.3h0l7.64-19.3Z"/><path class="cls-11" d="M48.19,18.15l-7.64,19.3a10.38,10.38,0,0,0,7.64-19.3Z"/><path class="cls-14" d="M39.63,9.3l-.17-.72A14.31,14.31,0,0,0,43.9,6.49c1.83-1.17,3.42-2.18,5.76-1.25l7,2.75-.27.68-7-2.75c-2-.78-3.28,0-5.09,1.19A15,15,0,0,1,39.63,9.3Z"/><rect class="cls-14" x="50.64" y="4.38" width="0.74" height="3.58" transform="translate(26.47 51.31) rotate(-68.36)"/><path class="cls-15" d="M59.55,12.43c-.41-2-.74-3.57-3.12-4.51L52.81,6.48l-.27.69,3.62,1.44c2,.79,2.26,2,2.67,4a17,17,0,0,0,1.64,5l.65-.35A16.66,16.66,0,0,1,59.55,12.43Z"/><path class="cls-14" d="M40.57,9.81a1.28,1.28,0,1,0-1.64.76A1.28,1.28,0,0,0,40.57,9.81Z"/><path class="cls-16" d="M45.19,13a.11.11,0,0,0,0-.06A4.37,4.37,0,0,0,40.39,9L39,9.18A4.38,4.38,0,0,0,35.05,14a.13.13,0,0,1,0,.06Z"/><path class="cls-17" d="M45.18,13c.08.57-2.32,1-5,1.37s-5,.27-5.07-.31,2.06-1.4,4.79-1.77S45.11,12.39,45.18,13Z"/><path class="cls-15" d="M59.45,17.28a1.29,1.29,0,0,1,1.68-.67,1.28,1.28,0,1,1-1.68.67Z"/><path class="cls-16" d="M53.88,16.47l0,0a4.37,4.37,0,0,1,6.18.42L61,17.91a4.39,4.39,0,0,1-.42,6.19l0,0Z"/><path class="cls-17" d="M53.93,16.43c-.45.36,1,2.32,2.74,4.46s3.46,3.61,3.91,3.24S60,21.7,58.31,19.57,54.38,16.06,53.93,16.43Z"/><path class="cls-12" d="M48.1,20.37a.33.33,0,0,1-.45.19l-.88-.35a.35.35,0,0,1-.2-.45l.35-.89a.35.35,0,0,1,.45-.19l.89.35a.35.35,0,0,1,.2.45Z"/><rect class="cls-12" x="35.69" y="24.09" width="1.65" height="1.65" rx="0.35" transform="translate(-0.11 49.66) rotate(-68.35)"/><rect class="cls-12" x="51.3" y="30.14" width="1.65" height="1.65" rx="0.35" transform="translate(4.13 68) rotate(-68.37)"/><rect class="cls-12" x="40.24" y="35.09" width="1.65" height="1.65" rx="0.35" transform="translate(-7.43 60.9) rotate(-68.43)"/><path class="cls-14" d="M50.32,23.85a.5.5,0,0,0-.69-.13L44.87,27a.84.84,0,0,0-.23-.12,1.06,1.06,0,0,0-1,.14l-2.47-1a.66.66,0,1,0-.49,1.22l2.66,1a1,1,0,0,0,.55.52,1.07,1.07,0,0,0,1.37-.6,1,1,0,0,0,.06-.34l4.89-3.36A.49.49,0,0,0,50.32,23.85Z"/></g></g></g></svg>