<svg xmlns="http://www.w3.org/2000/svg" viewBox="0 0 227.6 227.6"><defs><style>.cls-1{isolation:isolate;}.cls-2{fill:#fddc0d;}.cls-3{mix-blend-mode:multiply;opacity:0.15;}.cls-11,.cls-4{opacity:0.3;}.cls-17,.cls-5{opacity:0.2;}.cls-22,.cls-6{opacity:0.6;}.cls-24,.cls-7{opacity:0.12;}.cls-8{fill:#becccf;}.cls-9{fill:#f5e830;}.cls-10{fill:#d9c619;}.cls-11{fill:#bd1621;}.cls-12{fill:#fff;}.cls-13,.cls-17{fill:#825f27;}.cls-14{fill:#634e43;}.cls-15{fill:#ff9ca7;}.cls-16{fill:#1b75b8;}.cls-18{fill:#657131;}.cls-19{fill:#f7ac42;}.cls-20{fill:#e9f4fa;}.cls-21{fill:#cce5e8;}.cls-22{fill:#ffe61b;}.cls-23{fill:#e3d03f;}.cls-24{fill:#932168;}.cls-25{opacity:0.55;}.cls-26{fill:#e5d341;}</style></defs><g class="cls-1"><g id="Layer_2" data-name="Layer 2"><g id="Page_Detil" data-name="Page Detil"><circle class="cls-2" cx="113.8" cy="113.8" r="113.8"/><g class="cls-3"><rect x="104.22" y="169.99" width="25.91" height="22.45"/><path d="M166.86,99.31A97.36,97.36,0,0,1,162,123.49a30.91,30.91,0,0,1-5,9.65c-3.32,3.81-9.57,6.18-16.25,7.66A127.1,127.1,0,0,1,115,143.2a127.17,127.17,0,0,1-25.82-2.4c-6.68-1.48-12.93-3.85-16.24-7.66-1.81-2.06-3.53-5.44-5-9.65h0a100.36,100.36,0,0,1-5.11-29c-.43-13.66,1.92-27.34,9-34.92,9.59-10.29,22.87-14.05,33.07-15.36a3.16,3.16,0,0,1,.32,0,80.11,80.11,0,0,1,9.82-.61h1c9.75.12,29.34,2.15,42.24,16C166.05,68,168,84.11,166.86,99.31Z"/><path d="M67.28,107.28s-5.47-8.21-12.85-5.2-6.16,14.36.55,18,12.58.82,14.49-2.19S67.28,107.28,67.28,107.28Z"/><path d="M61.45,107.08a12.44,12.44,0,0,1-.75,2.79,19.64,19.64,0,0,1-1.2,2.54A21,21,0,0,1,58,114.75a12.69,12.69,0,0,1-2,2.09,12,12,0,0,1,.74-2.8,21,21,0,0,1,1.21-2.53,19.66,19.66,0,0,1,1.54-2.34A12.29,12.29,0,0,1,61.45,107.08Z"/><path d="M53.83,109.22a12.05,12.05,0,0,1,2.79.74,20.92,20.92,0,0,1,2.53,1.2,20.09,20.09,0,0,1,2.34,1.54,12.3,12.3,0,0,1,2.09,2,11.92,11.92,0,0,1-2.79-.74,21.05,21.05,0,0,1-2.54-1.2,19.74,19.74,0,0,1-2.34-1.55A12.18,12.18,0,0,1,53.83,109.22Z"/><path d="M162.31,107.28s5.47-8.21,12.86-5.2,6.15,14.36-.55,18-12.58.82-14.5-2.19S162.31,107.28,162.31,107.28Z"/><path d="M168.15,107.08a12.69,12.69,0,0,1,2,2.09,21,21,0,0,1,1.54,2.34,19.51,19.51,0,0,1,1.2,2.53,12.53,12.53,0,0,1,.75,2.8,11.91,11.91,0,0,1-2-2.09,18.5,18.5,0,0,1-1.54-2.34,19.64,19.64,0,0,1-1.2-2.54A11.93,11.93,0,0,1,168.15,107.08Z"/><path d="M175.77,109.22a12.62,12.62,0,0,1-2.09,2,19.74,19.74,0,0,1-2.34,1.55,20.92,20.92,0,0,1-2.53,1.2,12.05,12.05,0,0,1-2.79.74,12.25,12.25,0,0,1,2.08-2A20,20,0,0,1,173,110,11.92,11.92,0,0,1,175.77,109.22Z"/><path class="cls-4" d="M92.53,131.77a13.62,13.62,0,0,1-3.4,9c-6.68-1.48-12.93-3.85-16.24-7.66-1.81-2.06-3.53-5.44-5-9.65h0a13.73,13.73,0,0,1,24.66,8.29Z"/><path class="cls-4" d="M162,123.49a30.91,30.91,0,0,1-5,9.65c-3.32,3.81-9.57,6.18-16.25,7.66A13.72,13.72,0,1,1,162,123.49Z"/><circle cx="88.37" cy="105.24" r="13.72"/><circle cx="88.37" cy="105.49" r="10.12" transform="translate(-48.71 93.39) rotate(-45)"/><path d="M96.4,105.49a8,8,0,1,1-8-8A8,8,0,0,1,96.4,105.49Z"/><path d="M98,100.22A5.27,5.27,0,1,1,92.73,95,5.26,5.26,0,0,1,98,100.22Z"/><circle cx="141.37" cy="105.24" r="13.72"/><circle cx="141.37" cy="105.49" r="10.12" transform="translate(-33.19 130.86) rotate(-45)"/><path d="M149.4,105.49a8,8,0,1,1-8-8A8,8,0,0,1,149.4,105.49Z"/><path d="M151,100.22A5.27,5.27,0,1,1,145.72,95,5.27,5.27,0,0,1,151,100.22Z"/><path d="M121.9,115.42a6.6,6.6,0,0,1-11.63,0,11.11,11.11,0,0,1-1.42-5.82c.23-.84,4.57-1.37,7.24-1.37s7,.53,7.24,1.37A11.16,11.16,0,0,1,121.9,115.42Z"/><path d="M121.9,115.42a6.6,6.6,0,0,1-11.63,0,6.84,6.84,0,0,1,11.63,0Z"/><path d="M166,103.52s-19-10.45-22-39.27c0,0-20.32,15.63-41.92,18.68l9.34-17.18s-22.66,18-39.78,18.14c0,0-1.5,8.91-8.23,19.53,0,0-14.26-27.17,3.13-50,24.42-32,73.89-31,73.89-31L130.19,36s19.21-7,40.7-6.6L156.64,46.24s21,5.7,23.56,24.62L166,68.46S174.79,84,166,103.52Z"/><rect x="73.41" y="76.79" width="18.71" height="8.57" rx="2.87" transform="translate(-15.77 20.13) rotate(-12.67)"/><rect class="cls-5" x="73.41" y="76.79" width="18.71" height="8.57" rx="2.87" transform="translate(-15.77 20.13) rotate(-12.67)"/><rect x="142.84" y="71.72" width="8.57" height="18.71" rx="2.87" transform="translate(35.76 206.84) rotate(-77.33)"/><rect class="cls-5" x="142.84" y="71.72" width="8.57" height="18.71" rx="2.87" transform="translate(35.76 206.84) rotate(-77.33)"/><polygon points="99.72 171.21 98.01 202.53 91.62 207.01 114.07 206.93 109.89 171.17 99.72 171.21"/><polygon points="114.05 206.06 91.61 206.06 97.98 201.65 113.53 201.65 113.7 203.07 114.05 206.06"/><path d="M98.38,203.09l-1.76-.46a.71.71,0,0,0-.85.5.69.69,0,0,0,.5.85l1.75.46a.71.71,0,0,0,.85-.5A.69.69,0,0,0,98.38,203.09Z"/><path d="M99.76,201.71,98,201.25a.69.69,0,0,0-.36,1.34l1.76.46a.7.7,0,0,0,.85-.5A.68.68,0,0,0,99.76,201.71Z"/><path d="M114.05,206.06h-5a4.76,4.76,0,0,1,4.63-3Z"/><rect x="90.51" y="206.06" width="24.64" height="2.85" rx="1.32"/><polygon points="127.08 167.17 141.03 195.28 148.66 196.87 128.01 205.66 117.72 171.16 127.08 167.17"/><polygon points="127.64 204.87 148.27 196 140.67 194.47 126.38 200.61 126.78 201.98 127.64 204.87"/><path d="M140.88,196l1.43-1.11a.69.69,0,0,1,1,.12.68.68,0,0,1-.12,1l-1.43,1.12a.7.7,0,0,1-.85-1.1Z"/><path d="M139.05,195.23l1.44-1.12a.69.69,0,0,1,1,.12.7.7,0,0,1-.12,1l-1.43,1.11a.69.69,0,1,1-.86-1.09Z"/><path d="M127.64,204.87l4.58-2a4.78,4.78,0,0,0-5.44-.92Z"/><rect x="126.2" y="200.32" width="24.64" height="2.85" rx="1.32" transform="translate(-68.41 71.1) rotate(-23.26)"/><path d="M118.45,147.49A4.84,4.84,0,0,1,115,149a5,5,0,0,1-3.51-1.47l.69-7h5.48Z"/><path d="M130.19,171.3H99.7s4.89-24.72,6.36-25.14a28.13,28.13,0,0,1,17.77,0C125.31,146.58,130.19,171.3,130.19,171.3Z"/><path d="M109.39,146.83c-2.14-2.74-17.29,3.66-28.45,10.77,0,0-4.82-1.53-5.59-.83s2.81,4.48,2.81,4.48-4.76,2.77-4.52,3.41,2.53,1,5.24.43c0,0-3,4.52-2.16,5.17.55.44,4.62-1.8,4.62-1.8s-.4,3.39.43,3.51,5-5.84,5-5.84S112.31,150.57,109.39,146.83Z"/><path d="M121.41,148.44c.32-3.46,16.53-6.24,29.76-6.28,0,0,3.23-3.88,4.26-3.71s0,5.29,0,5.29,4.05,2.63,1.47,3.62l-.22,1.83a3.54,3.54,0,0,1-3.26,3.12l-2.62.2S121,153.17,121.41,148.44Z"/><path d="M102,158l-3.73,19h34.22l-5.09-22.43-8.24-9.87s-.64,5-4.08,5-4.09-5-4.09-5Z"/><path d="M123.58,194l16.72-.34-6-23.52-.57-1.82-.42-1.38-1.41-4.57-2.22-7.19,12.26,1.44,1.78.21,4.26.51-1.13-15.7-4.18.52-1.76.21-19.6,2.42s-.37,2.93-2,4.4C118.69,149.63,123.58,194,123.58,194Z"/><path d="M82.54,152.94l5.24,14.75,2.85-1.94,1.51-1,7.81-5.33-1,3.65-1.29,4.65-.39,1.4-.52,1.85L91.2,194.46l16.68.06s3.09-44.7,2.5-45.49a9.36,9.36,0,0,1-1.45-3.87Z"/><polygon points="121.93 155.2 124.53 157.79 120.35 163.39 119.73 157.02 121.93 155.2"/><path d="M118.31,144l1.52,13.95,5.57-4.3-3.88-9A6.3,6.3,0,0,0,118.31,144Z"/><polygon points="107.94 155.97 105.42 158.64 109.79 164.1 110.19 157.71 107.94 155.97"/><path d="M111.18,144.63l-1.06,14-5.71-4.11,3.58-9.09A6.27,6.27,0,0,1,111.18,144.63Z"/><rect x="126.07" y="172.98" width="8.31" height="1.43"/><rect x="96.82" y="173.41" width="8.31" height="1.43"/><circle class="cls-6" cx="159.55" cy="118.45" r="14.75"/><rect x="145.61" y="136.83" width="16.33" height="4.92" transform="translate(-21.58 250.19) rotate(-74.48)"/><path d="M149.6,154.42l0,0c-1.5-.41-2.46-1.66-2.15-2.78l3.47-12.86,5.66,1.44-3.66,12.94C152.56,154.26,151.1,154.83,149.6,154.42Z"/><polygon class="cls-7" points="153.66 130.84 153.36 131.68 156.81 137.42 158.58 131.26 153.66 130.84"/><path d="M162.27,102.85a15.65,15.65,0,1,0,12.79,18.07A15.65,15.65,0,0,0,162.27,102.85Zm10.64,17.7a13.47,13.47,0,1,1-11-15.54A13.47,13.47,0,0,1,172.91,120.55Z"/><path d="M156,109.13a9.48,9.48,0,0,1,11.35,14.45c-.74,1,.7,2.17,1.44,1.21a11.36,11.36,0,0,0-12.14-17.89,9.71,9.71,0,0,0-1.31.47c-1.12.47-.46,2.24.66,1.76Z"/><circle cx="165.46" cy="126.67" r="1.24"/><path d="M151.07,138.85l5.38,1.37a.36.36,0,0,0,.44-.23l0-.06a.37.37,0,0,0-.26-.49l-5.4-1.32a.38.38,0,0,0-.45.28h0A.38.38,0,0,0,151.07,138.85Z"/><path d="M164.52,130.48a13.32,13.32,0,1,1,5.5-4.18,13.43,13.43,0,0,1-5.5,4.18.36.36,0,0,0,.27.66,14,14,0,1,0-11.18-.24,14.18,14.18,0,0,0,11.18.24A.36.36,0,0,0,164.52,130.48Z"/><path d="M156.24,144.79a7.24,7.24,0,0,0-4.12-1.37.59.59,0,0,0-.58.79,7.68,7.68,0,0,0,1.67,2.42s-1.71-.56-2.24.53c0,0-.11,1.05,1.71,2,0,0-1.67,0-2.11.72,0,0,0,2,3.23,2.44s3.27-.69,3.17-1.91,1-.63.06-2.64A5.72,5.72,0,0,1,156.24,144.79Z"/></g><rect class="cls-8" x="103.22" y="162.99" width="25.91" height="22.45"/><path class="cls-9" d="M165.86,92.31A97.36,97.36,0,0,1,161,116.49a30.91,30.91,0,0,1-5,9.65c-3.32,3.81-9.57,6.18-16.25,7.66A127.1,127.1,0,0,1,114,136.2a127.17,127.17,0,0,1-25.82-2.4c-6.68-1.48-12.93-3.85-16.24-7.66-1.81-2.06-3.53-5.44-5-9.65h0a100.36,100.36,0,0,1-5.11-29c-.43-13.66,1.92-27.34,9-34.92,9.59-10.29,22.87-14.05,33.07-15.36a3.16,3.16,0,0,1,.32,0,80.11,80.11,0,0,1,9.82-.61h1c9.75.12,29.34,2.15,42.24,16C165.05,61,167,77.11,165.86,92.31Z"/><path class="cls-9" d="M66.28,100.28s-5.47-8.21-12.85-5.2-6.16,14.36.55,18,12.58.82,14.49-2.19S66.28,100.28,66.28,100.28Z"/><path class="cls-10" d="M60.45,100.08a12.44,12.44,0,0,1-.75,2.79,19.64,19.64,0,0,1-1.2,2.54A21,21,0,0,1,57,107.75a12.69,12.69,0,0,1-2,2.09,12,12,0,0,1,.74-2.8,21,21,0,0,1,1.21-2.53,19.66,19.66,0,0,1,1.54-2.34A12.29,12.29,0,0,1,60.45,100.08Z"/><path class="cls-10" d="M52.83,102.22a12.05,12.05,0,0,1,2.79.74,20.92,20.92,0,0,1,2.53,1.2,20.09,20.09,0,0,1,2.34,1.54,12.3,12.3,0,0,1,2.09,2,11.92,11.92,0,0,1-2.79-.74,21.05,21.05,0,0,1-2.54-1.2,19.74,19.74,0,0,1-2.34-1.55A12.18,12.18,0,0,1,52.83,102.22Z"/><path class="cls-9" d="M161.31,100.28s5.47-8.21,12.86-5.2,6.15,14.36-.55,18-12.58.82-14.5-2.19S161.31,100.28,161.31,100.28Z"/><path class="cls-10" d="M167.15,100.08a12.69,12.69,0,0,1,2,2.09,21,21,0,0,1,1.54,2.34,19.51,19.51,0,0,1,1.2,2.53,12.53,12.53,0,0,1,.75,2.8,11.91,11.91,0,0,1-2-2.09,18.5,18.5,0,0,1-1.54-2.34,19.64,19.64,0,0,1-1.2-2.54A11.93,11.93,0,0,1,167.15,100.08Z"/><path class="cls-10" d="M174.77,102.22a12.62,12.62,0,0,1-2.09,2,19.74,19.74,0,0,1-2.34,1.55,20.92,20.92,0,0,1-2.53,1.2,12.05,12.05,0,0,1-2.79.74,12.25,12.25,0,0,1,2.08-2A20,20,0,0,1,172,103,11.92,11.92,0,0,1,174.77,102.22Z"/><path class="cls-11" d="M91.53,124.77a13.62,13.62,0,0,1-3.4,9c-6.68-1.48-12.93-3.85-16.24-7.66-1.81-2.06-3.53-5.44-5-9.65h0a13.73,13.73,0,0,1,24.66,8.29Z"/><path class="cls-11" d="M161,116.49a30.91,30.91,0,0,1-5,9.65c-3.32,3.81-9.57,6.18-16.25,7.66A13.72,13.72,0,1,1,161,116.49Z"/><circle class="cls-12" cx="87.37" cy="98.24" r="13.72"/><circle class="cls-10" cx="87.37" cy="98.49" r="10.12" transform="translate(-44.05 90.63) rotate(-45)"/><path class="cls-13" d="M95.4,98.49a8,8,0,1,1-8-8A8,8,0,0,1,95.4,98.49Z"/><path class="cls-12" d="M97,93.22A5.27,5.27,0,1,1,91.73,88,5.26,5.26,0,0,1,97,93.22Z"/><circle class="cls-12" cx="140.37" cy="98.24" r="13.72"/><circle class="cls-10" cx="140.37" cy="98.49" r="10.12" transform="translate(-28.53 128.1) rotate(-45)"/><path class="cls-13" d="M148.4,98.49a8,8,0,1,1-8-8A8,8,0,0,1,148.4,98.49Z"/><path class="cls-12" d="M150,93.22A5.27,5.27,0,1,1,144.72,88,5.27,5.27,0,0,1,150,93.22Z"/><path class="cls-14" d="M120.9,108.42a6.6,6.6,0,0,1-11.63,0,11.11,11.11,0,0,1-1.42-5.82c.23-.84,4.57-1.37,7.24-1.37s7,.53,7.24,1.37A11.16,11.16,0,0,1,120.9,108.42Z"/><path class="cls-15" d="M120.9,108.42a6.6,6.6,0,0,1-11.63,0,6.84,6.84,0,0,1,11.63,0Z"/><path class="cls-16" d="M165,96.52s-19-10.45-22-39.27c0,0-20.32,15.63-41.92,18.68l9.34-17.18s-22.66,18-39.78,18.14c0,0-1.5,8.91-8.23,19.53,0,0-14.26-27.17,3.13-50,24.42-32,73.89-31,73.89-31L129.19,29s19.21-7,40.7-6.6L155.64,39.24s21,5.7,23.56,24.62L165,61.46S173.79,77,165,96.52Z"/><rect class="cls-13" x="72.41" y="69.79" width="18.71" height="8.57" rx="2.87" transform="translate(-14.26 19.74) rotate(-12.67)"/><rect class="cls-17" x="72.41" y="69.79" width="18.71" height="8.57" rx="2.87" transform="translate(-14.26 19.74) rotate(-12.67)"/><rect class="cls-13" x="141.84" y="64.72" width="8.57" height="18.71" rx="2.87" transform="translate(41.8 200.4) rotate(-77.33)"/><rect class="cls-17" x="141.84" y="64.72" width="8.57" height="18.71" rx="2.87" transform="translate(41.8 200.4) rotate(-77.33)"/><polygon class="cls-18" points="98.72 164.21 97.01 195.53 90.62 200.01 113.07 199.93 108.89 164.17 98.72 164.21"/><polygon class="cls-19" points="113.05 199.06 90.61 199.06 96.98 194.65 112.53 194.65 112.7 196.07 113.05 199.06"/><path class="cls-12" d="M97.38,196.09l-1.76-.46a.71.71,0,0,0-.85.5.69.69,0,0,0,.5.85l1.75.46a.71.71,0,0,0,.85-.5A.69.69,0,0,0,97.38,196.09Z"/><path class="cls-12" d="M98.76,194.71,97,194.25a.69.69,0,1,0-.36,1.34l1.76.46a.7.7,0,0,0,.85-.5A.68.68,0,0,0,98.76,194.71Z"/><path class="cls-12" d="M113.05,199.06h-5a4.76,4.76,0,0,1,4.63-3Z"/><rect class="cls-14" x="89.51" y="199.06" width="24.64" height="2.85" rx="1.32"/><polygon class="cls-18" points="126.08 160.17 140.03 188.28 147.66 189.87 127.01 198.66 116.72 164.16 126.08 160.17"/><polygon class="cls-19" points="126.64 197.87 147.27 189 139.67 187.47 125.38 193.61 125.78 194.98 126.64 197.87"/><path class="cls-12" d="M139.88,189l1.43-1.11a.69.69,0,0,1,1,.12.68.68,0,0,1-.12,1l-1.43,1.12a.7.7,0,0,1-.85-1.1Z"/><path class="cls-12" d="M138.05,188.23l1.44-1.12a.69.69,0,0,1,1,.12.7.7,0,0,1-.12,1l-1.43,1.11a.69.69,0,1,1-.86-1.09Z"/><path class="cls-12" d="M126.64,197.87l4.58-2a4.78,4.78,0,0,0-5.44-.92Z"/><rect class="cls-14" x="125.2" y="193.32" width="24.64" height="2.85" rx="1.32" transform="translate(-65.73 70.13) rotate(-23.26)"/><path class="cls-9" d="M117.45,140.49A4.84,4.84,0,0,1,114,142a5,5,0,0,1-3.51-1.47l.69-7h5.48Z"/><path class="cls-9" d="M129.19,164.3H98.7s4.89-24.72,6.36-25.14a28.13,28.13,0,0,1,17.77,0C124.31,139.58,129.19,164.3,129.19,164.3Z"/><path class="cls-9" d="M108.39,139.83c-2.14-2.74-17.29,3.66-28.45,10.77,0,0-4.82-1.53-5.59-.83s2.81,4.48,2.81,4.48-4.76,2.77-4.52,3.41,2.53,1,5.24.43c0,0-3,4.52-2.16,5.17.55.44,4.62-1.8,4.62-1.8s-.4,3.39.43,3.51,5-5.84,5-5.84S111.31,143.57,108.39,139.83Z"/><path class="cls-9" d="M120.41,141.44c.32-3.46,16.53-6.24,29.76-6.28,0,0,3.23-3.88,4.26-3.71s0,5.29,0,5.29,4.05,2.63,1.47,3.62l-.22,1.83a3.54,3.54,0,0,1-3.26,3.12l-2.62.2S120,146.17,120.41,141.44Z"/><path class="cls-19" d="M101,151l-3.73,19h34.22l-5.09-22.43-8.24-9.87s-.64,5-4.08,5-4.09-5-4.09-5Z"/><path class="cls-20" d="M122.58,187l16.72-.34-6-23.52-.57-1.82-.42-1.38-1.41-4.57-2.22-7.19,12.26,1.44,1.78.21,4.26.51-1.13-15.7-4.18.52-1.76.21-19.6,2.42s-.37,2.93-2,4.4C117.69,142.63,122.58,187,122.58,187Z"/><path class="cls-20" d="M81.54,145.94l5.24,14.75,2.85-1.94,1.51-1L99,152.39l-1,3.65-1.29,4.65-.39,1.4-.52,1.85L90.2,187.46l16.68.06s3.09-44.7,2.5-45.49a9.36,9.36,0,0,1-1.45-3.87Z"/><polygon class="cls-21" points="120.93 148.2 123.53 150.79 119.35 156.39 118.73 150.02 120.93 148.2"/><path class="cls-21" d="M117.31,137l1.52,13.95,5.57-4.3-3.88-9A6.3,6.3,0,0,0,117.31,137Z"/><polygon class="cls-21" points="106.94 148.97 104.42 151.64 108.79 157.1 109.19 150.71 106.94 148.97"/><path class="cls-21" d="M110.18,137.63l-1.06,14-5.71-4.11,3.58-9.09A6.27,6.27,0,0,1,110.18,137.63Z"/><rect class="cls-21" x="125.07" y="165.98" width="8.31" height="1.43"/><rect class="cls-21" x="95.82" y="166.41" width="8.31" height="1.43"/><circle class="cls-22" cx="158.55" cy="111.45" r="14.75"/><rect class="cls-23" x="144.61" y="129.83" width="16.33" height="4.92" transform="translate(-15.57 244.1) rotate(-74.48)"/><path class="cls-13" d="M148.6,147.42l0,0c-1.5-.41-2.46-1.66-2.15-2.78l3.47-12.86,5.66,1.44-3.66,12.94C151.56,147.26,150.1,147.83,148.6,147.42Z"/><polygon class="cls-24" points="152.66 123.84 152.36 124.68 155.81 130.42 157.58 124.26 152.66 123.84"/><path class="cls-19" d="M161.27,95.85a15.65,15.65,0,1,0,12.79,18.07A15.65,15.65,0,0,0,161.27,95.85Zm10.64,17.7A13.47,13.47,0,1,1,160.9,98,13.47,13.47,0,0,1,171.91,113.55Z"/><g class="cls-25"><path class="cls-12" d="M155,102.13a9.48,9.48,0,0,1,11.35,14.45c-.74,1,.7,2.17,1.44,1.21A11.36,11.36,0,0,0,155.62,99.9a9.71,9.71,0,0,0-1.31.47c-1.12.47-.46,2.24.66,1.76Z"/><circle class="cls-12" cx="164.46" cy="119.67" r="1.24"/></g><path class="cls-23" d="M150.07,131.85l5.38,1.37a.36.36,0,0,0,.44-.23l0-.06a.37.37,0,0,0-.26-.49l-5.4-1.32a.38.38,0,0,0-.45.28h0A.38.38,0,0,0,150.07,131.85Z"/><path class="cls-26" d="M163.52,123.48a13.32,13.32,0,1,1,5.5-4.18,13.43,13.43,0,0,1-5.5,4.18.36.36,0,0,0,.27.66,14,14,0,1,0-11.18-.24,14.18,14.18,0,0,0,11.18.24A.36.36,0,0,0,163.52,123.48Z"/><path class="cls-9" d="M155.24,137.79a7.24,7.24,0,0,0-4.12-1.37.59.59,0,0,0-.58.79,7.68,7.68,0,0,0,1.67,2.42s-1.71-.56-2.24.53c0,0-.11,1.05,1.71,2,0,0-1.67,0-2.11.72,0,0,0,2,3.23,2.44s3.27-.69,3.17-1.91,1-.63.06-2.64A5.72,5.72,0,0,1,155.24,137.79Z"/></g></g></g></svg>