<svg xmlns="http://www.w3.org/2000/svg" viewBox="0 0 2120 1139"><defs><style>.cls-1{opacity:0.7;}.cls-2{opacity:0.35;}.cls-3{fill:#c6edea;}</style></defs><g id="Layer_2" data-name="Layer 2"><g id="Pattern" class="cls-1"><g class="cls-2"><rect class="cls-3" x="19" width="2" height="300"/><rect class="cls-3" x="39" width="2" height="300"/><rect class="cls-3" x="59" width="2" height="300"/><rect class="cls-3" x="79" width="2" height="300"/><rect class="cls-3" x="99" width="2" height="300"/><rect class="cls-3" x="119" width="2" height="300"/><rect class="cls-3" x="139" width="2" height="300"/><rect class="cls-3" x="159" width="2" height="300"/><rect class="cls-3" x="179" width="2" height="300"/><rect class="cls-3" x="199" width="2" height="300"/><rect class="cls-3" x="219" width="2" height="300"/><rect class="cls-3" x="239" width="2" height="300"/><rect class="cls-3" x="259" width="2" height="300"/><rect class="cls-3" x="279" width="2" height="300"/><rect class="cls-3" x="299" width="2" height="300"/><rect class="cls-3" x="319" width="2" height="300"/><rect class="cls-3" x="339" width="2" height="300"/><rect class="cls-3" x="359" width="2" height="300"/><rect class="cls-3" x="379" width="2" height="300"/><rect class="cls-3" x="399" width="2" height="300"/><rect class="cls-3" x="419" width="2" height="300"/><rect class="cls-3" x="439" width="2" height="300"/><rect class="cls-3" x="459" width="2" height="300"/><rect class="cls-3" x="479" width="2" height="300"/><rect class="cls-3" x="499" width="2" height="300"/><rect class="cls-3" x="519" width="2" height="300"/><rect class="cls-3" x="539" width="2" height="300"/><rect class="cls-3" x="559" width="2" height="300"/><rect class="cls-3" x="579" width="2" height="300"/><rect class="cls-3" x="599" width="2" height="300"/><rect class="cls-3" x="619" width="2" height="300"/><rect class="cls-3" x="639" width="2" height="300"/><rect class="cls-3" x="659" width="2" height="300"/><rect class="cls-3" x="679" width="2" height="300"/><rect class="cls-3" x="699" width="2" height="300"/><rect class="cls-3" y="279" width="720" height="2"/><rect class="cls-3" y="259" width="720" height="2"/><rect class="cls-3" y="239" width="720" height="2"/><rect class="cls-3" y="219" width="720" height="2"/><rect class="cls-3" y="199" width="720" height="2"/><rect class="cls-3" y="179" width="720" height="2"/><rect class="cls-3" y="159" width="720" height="2"/><rect class="cls-3" y="139" width="720" height="2"/><rect class="cls-3" y="119" width="720" height="2"/><rect class="cls-3" y="99" width="720" height="2"/><rect class="cls-3" y="79" width="720" height="2"/><rect class="cls-3" y="59" width="720" height="2"/><rect class="cls-3" y="39" width="720" height="2"/><rect class="cls-3" y="19" width="720" height="2"/><rect class="cls-3" x="19" y="279" width="2" height="300"/><rect class="cls-3" x="39" y="279" width="2" height="300"/><rect class="cls-3" x="59" y="279" width="2" height="300"/><rect class="cls-3" x="79" y="279" width="2" height="300"/><rect class="cls-3" x="99" y="279" width="2" height="300"/><rect class="cls-3" x="119" y="279" width="2" height="300"/><rect class="cls-3" x="139" y="279" width="2" height="300"/><rect class="cls-3" x="159" y="279" width="2" height="300"/><rect class="cls-3" x="179" y="279" width="2" height="300"/><rect class="cls-3" x="199" y="279" width="2" height="300"/><rect class="cls-3" x="219" y="279" width="2" height="300"/><rect class="cls-3" x="239" y="279" width="2" height="300"/><rect class="cls-3" x="259" y="279" width="2" height="300"/><rect class="cls-3" x="279" y="279" width="2" height="300"/><rect class="cls-3" x="299" y="279" width="2" height="300"/><rect class="cls-3" x="319" y="279" width="2" height="300"/><rect class="cls-3" x="339" y="279" width="2" height="300"/><rect class="cls-3" x="359" y="279" width="2" height="300"/><rect class="cls-3" x="379" y="279" width="2" height="300"/><rect class="cls-3" x="399" y="279" width="2" height="300"/><rect class="cls-3" x="419" y="279" width="2" height="300"/><rect class="cls-3" x="439" y="279" width="2" height="300"/><rect class="cls-3" x="459" y="279" width="2" height="300"/><rect class="cls-3" x="479" y="279" width="2" height="300"/><rect class="cls-3" x="499" y="279" width="2" height="300"/><rect class="cls-3" x="519" y="279" width="2" height="300"/><rect class="cls-3" x="539" y="279" width="2" height="300"/><rect class="cls-3" x="559" y="279" width="2" height="300"/><rect class="cls-3" x="579" y="279" width="2" height="300"/><rect class="cls-3" x="599" y="279" width="2" height="300"/><rect class="cls-3" x="619" y="279" width="2" height="300"/><rect class="cls-3" x="639" y="279" width="2" height="300"/><rect class="cls-3" x="659" y="279" width="2" height="300"/><rect class="cls-3" x="679" y="279" width="2" height="300"/><rect class="cls-3" x="699" y="279" width="2" height="300"/><rect class="cls-3" y="558" width="720" height="2"/><rect class="cls-3" y="538" width="720" height="2"/><rect class="cls-3" y="518" width="720" height="2"/><rect class="cls-3" y="498" width="720" height="2"/><rect class="cls-3" y="478" width="720" height="2"/><rect class="cls-3" y="458" width="720" height="2"/><rect class="cls-3" y="438" width="720" height="2"/><rect class="cls-3" y="418" width="720" height="2"/><rect class="cls-3" y="398" width="720" height="2"/><rect class="cls-3" y="378" width="720" height="2"/><rect class="cls-3" y="358" width="720" height="2"/><rect class="cls-3" y="338" width="720" height="2"/><rect class="cls-3" y="318" width="720" height="2"/><rect class="cls-3" y="298" width="720" height="2"/><rect class="cls-3" x="19" y="560" width="2" height="300"/><rect class="cls-3" x="39" y="560" width="2" height="300"/><rect class="cls-3" x="59" y="560" width="2" height="300"/><rect class="cls-3" x="79" y="560" width="2" height="300"/><rect class="cls-3" x="99" y="560" width="2" height="300"/><rect class="cls-3" x="119" y="560" width="2" height="300"/><rect class="cls-3" x="139" y="560" width="2" height="300"/><rect class="cls-3" x="159" y="560" width="2" height="300"/><rect class="cls-3" x="179" y="560" width="2" height="300"/><rect class="cls-3" x="199" y="560" width="2" height="300"/><rect class="cls-3" x="219" y="560" width="2" height="300"/><rect class="cls-3" x="239" y="560" width="2" height="300"/><rect class="cls-3" x="259" y="560" width="2" height="300"/><rect class="cls-3" x="279" y="560" width="2" height="300"/><rect class="cls-3" x="299" y="560" width="2" height="300"/><rect class="cls-3" x="319" y="560" width="2" height="300"/><rect class="cls-3" x="339" y="560" width="2" height="300"/><rect class="cls-3" x="359" y="560" width="2" height="300"/><rect class="cls-3" x="379" y="560" width="2" height="300"/><rect class="cls-3" x="399" y="560" width="2" height="300"/><rect class="cls-3" x="419" y="560" width="2" height="300"/><rect class="cls-3" x="439" y="560" width="2" height="300"/><rect class="cls-3" x="459" y="560" width="2" height="300"/><rect class="cls-3" x="479" y="560" width="2" height="300"/><rect class="cls-3" x="499" y="560" width="2" height="300"/><rect class="cls-3" x="519" y="560" width="2" height="300"/><rect class="cls-3" x="539" y="560" width="2" height="300"/><rect class="cls-3" x="559" y="560" width="2" height="300"/><rect class="cls-3" x="579" y="560" width="2" height="300"/><rect class="cls-3" x="599" y="560" width="2" height="300"/><rect class="cls-3" x="619" y="560" width="2" height="300"/><rect class="cls-3" x="639" y="560" width="2" height="300"/><rect class="cls-3" x="659" y="560" width="2" height="300"/><rect class="cls-3" x="679" y="560" width="2" height="300"/><rect class="cls-3" x="699" y="560" width="2" height="300"/><rect class="cls-3" y="839" width="720" height="2"/><rect class="cls-3" y="819" width="720" height="2"/><rect class="cls-3" y="799" width="720" height="2"/><rect class="cls-3" y="779" width="720" height="2"/><rect class="cls-3" y="759" width="720" height="2"/><rect class="cls-3" y="739" width="720" height="2"/><rect class="cls-3" y="719" width="720" height="2"/><rect class="cls-3" y="699" width="720" height="2"/><rect class="cls-3" y="679" width="720" height="2"/><rect class="cls-3" y="659" width="720" height="2"/><rect class="cls-3" y="639" width="720" height="2"/><rect class="cls-3" y="619" width="720" height="2"/><rect class="cls-3" y="599" width="720" height="2"/><rect class="cls-3" y="579" width="720" height="2"/><rect class="cls-3" x="19" y="839" width="2" height="300"/><rect class="cls-3" x="39" y="839" width="2" height="300"/><rect class="cls-3" x="59" y="839" width="2" height="300"/><rect class="cls-3" x="79" y="839" width="2" height="300"/><rect class="cls-3" x="99" y="839" width="2" height="300"/><rect class="cls-3" x="119" y="839" width="2" height="300"/><rect class="cls-3" x="139" y="839" width="2" height="300"/><rect class="cls-3" x="159" y="839" width="2" height="300"/><rect class="cls-3" x="179" y="839" width="2" height="300"/><rect class="cls-3" x="199" y="839" width="2" height="300"/><rect class="cls-3" x="219" y="839" width="2" height="300"/><rect class="cls-3" x="239" y="839" width="2" height="300"/><rect class="cls-3" x="259" y="839" width="2" height="300"/><rect class="cls-3" x="279" y="839" width="2" height="300"/><rect class="cls-3" x="299" y="839" width="2" height="300"/><rect class="cls-3" x="319" y="839" width="2" height="300"/><rect class="cls-3" x="339" y="839" width="2" height="300"/><rect class="cls-3" x="359" y="839" width="2" height="300"/><rect class="cls-3" x="379" y="839" width="2" height="300"/><rect class="cls-3" x="399" y="839" width="2" height="300"/><rect class="cls-3" x="419" y="839" width="2" height="300"/><rect class="cls-3" x="439" y="839" width="2" height="300"/><rect class="cls-3" x="459" y="839" width="2" height="300"/><rect class="cls-3" x="479" y="839" width="2" height="300"/><rect class="cls-3" x="499" y="839" width="2" height="300"/><rect class="cls-3" x="519" y="839" width="2" height="300"/><rect class="cls-3" x="539" y="839" width="2" height="300"/><rect class="cls-3" x="559" y="839" width="2" height="300"/><rect class="cls-3" x="579" y="839" width="2" height="300"/><rect class="cls-3" x="599" y="839" width="2" height="300"/><rect class="cls-3" x="619" y="839" width="2" height="300"/><rect class="cls-3" x="639" y="839" width="2" height="300"/><rect class="cls-3" x="659" y="839" width="2" height="300"/><rect class="cls-3" x="679" y="839" width="2" height="300"/><rect class="cls-3" x="699" y="839" width="2" height="300"/><rect class="cls-3" y="1118" width="720" height="2"/><rect class="cls-3" y="1098" width="720" height="2"/><rect class="cls-3" y="1078" width="720" height="2"/><rect class="cls-3" y="1058" width="720" height="2"/><rect class="cls-3" y="1038" width="720" height="2"/><rect class="cls-3" y="1018" width="720" height="2"/><rect class="cls-3" y="998" width="720" height="2"/><rect class="cls-3" y="978" width="720" height="2"/><rect class="cls-3" y="958" width="720" height="2"/><rect class="cls-3" y="938" width="720" height="2"/><rect class="cls-3" y="918" width="720" height="2"/><rect class="cls-3" y="898" width="720" height="2"/><rect class="cls-3" y="878" width="720" height="2"/><rect class="cls-3" y="858" width="720" height="2"/><rect class="cls-3" x="720" width="2" height="300"/><rect class="cls-3" x="740" width="2" height="300"/><rect class="cls-3" x="760" width="2" height="300"/><rect class="cls-3" x="780" width="2" height="300"/><rect class="cls-3" x="800" width="2" height="300"/><rect class="cls-3" x="820" width="2" height="300"/><rect class="cls-3" x="840" width="2" height="300"/><rect class="cls-3" x="860" width="2" height="300"/><rect class="cls-3" x="880" width="2" height="300"/><rect class="cls-3" x="900" width="2" height="300"/><rect class="cls-3" x="920" width="2" height="300"/><rect class="cls-3" x="940" width="2" height="300"/><rect class="cls-3" x="960" width="2" height="300"/><rect class="cls-3" x="980" width="2" height="300"/><rect class="cls-3" x="1000" width="2" height="300"/><rect class="cls-3" x="1020" width="2" height="300"/><rect class="cls-3" x="1040" width="2" height="300"/><rect class="cls-3" x="1060" width="2" height="300"/><rect class="cls-3" x="1080" width="2" height="300"/><rect class="cls-3" x="1100" width="2" height="300"/><rect class="cls-3" x="1120" width="2" height="300"/><rect class="cls-3" x="1140" width="2" height="300"/><rect class="cls-3" x="1160" width="2" height="300"/><rect class="cls-3" x="1180" width="2" height="300"/><rect class="cls-3" x="1200" width="2" height="300"/><rect class="cls-3" x="1220" width="2" height="300"/><rect class="cls-3" x="1240" width="2" height="300"/><rect class="cls-3" x="1260" width="2" height="300"/><rect class="cls-3" x="1280" width="2" height="300"/><rect class="cls-3" x="1300" width="2" height="300"/><rect class="cls-3" x="1320" width="2" height="300"/><rect class="cls-3" x="1340" width="2" height="300"/><rect class="cls-3" x="1360" width="2" height="300"/><rect class="cls-3" x="1380" width="2" height="300"/><rect class="cls-3" x="1400" width="2" height="300"/><rect class="cls-3" x="701" y="279" width="720" height="2"/><rect class="cls-3" x="701" y="259" width="720" height="2"/><rect class="cls-3" x="701" y="239" width="720" height="2"/><rect class="cls-3" x="701" y="219" width="720" height="2"/><rect class="cls-3" x="701" y="199" width="720" height="2"/><rect class="cls-3" x="701" y="179" width="720" height="2"/><rect class="cls-3" x="701" y="159" width="720" height="2"/><rect class="cls-3" x="701" y="139" width="720" height="2"/><rect class="cls-3" x="701" y="119" width="720" height="2"/><rect class="cls-3" x="701" y="99" width="720" height="2"/><rect class="cls-3" x="701" y="79" width="720" height="2"/><rect class="cls-3" x="701" y="59" width="720" height="2"/><rect class="cls-3" x="701" y="39" width="720" height="2"/><rect class="cls-3" x="701" y="19" width="720" height="2"/><rect class="cls-3" x="720" y="279" width="2" height="300"/><rect class="cls-3" x="740" y="279" width="2" height="300"/><rect class="cls-3" x="760" y="279" width="2" height="300"/><rect class="cls-3" x="780" y="279" width="2" height="300"/><rect class="cls-3" x="800" y="279" width="2" height="300"/><rect class="cls-3" x="820" y="279" width="2" height="300"/><rect class="cls-3" x="840" y="279" width="2" height="300"/><rect class="cls-3" x="860" y="279" width="2" height="300"/><rect class="cls-3" x="880" y="279" width="2" height="300"/><rect class="cls-3" x="900" y="279" width="2" height="300"/><rect class="cls-3" x="920" y="279" width="2" height="300"/><rect class="cls-3" x="940" y="279" width="2" height="300"/><rect class="cls-3" x="960" y="279" width="2" height="300"/><rect class="cls-3" x="980" y="279" width="2" height="300"/><rect class="cls-3" x="1000" y="279" width="2" height="300"/><rect class="cls-3" x="1020" y="279" width="2" height="300"/><rect class="cls-3" x="1040" y="279" width="2" height="300"/><rect class="cls-3" x="1060" y="279" width="2" height="300"/><rect class="cls-3" x="1080" y="279" width="2" height="300"/><rect class="cls-3" x="1100" y="279" width="2" height="300"/><rect class="cls-3" x="1120" y="279" width="2" height="300"/><rect class="cls-3" x="1140" y="279" width="2" height="300"/><rect class="cls-3" x="1160" y="279" width="2" height="300"/><rect class="cls-3" x="1180" y="279" width="2" height="300"/><rect class="cls-3" x="1200" y="279" width="2" height="300"/><rect class="cls-3" x="1220" y="279" width="2" height="300"/><rect class="cls-3" x="1240" y="279" width="2" height="300"/><rect class="cls-3" x="1260" y="279" width="2" height="300"/><rect class="cls-3" x="1280" y="279" width="2" height="300"/><rect class="cls-3" x="1300" y="279" width="2" height="300"/><rect class="cls-3" x="1320" y="279" width="2" height="300"/><rect class="cls-3" x="1340" y="279" width="2" height="300"/><rect class="cls-3" x="1360" y="279" width="2" height="300"/><rect class="cls-3" x="1380" y="279" width="2" height="300"/><rect class="cls-3" x="1400" y="279" width="2" height="300"/><rect class="cls-3" x="701" y="558" width="720" height="2"/><rect class="cls-3" x="701" y="538" width="720" height="2"/><rect class="cls-3" x="701" y="518" width="720" height="2"/><rect class="cls-3" x="701" y="498" width="720" height="2"/><rect class="cls-3" x="701" y="478" width="720" height="2"/><rect class="cls-3" x="701" y="458" width="720" height="2"/><rect class="cls-3" x="701" y="438" width="720" height="2"/><rect class="cls-3" x="701" y="418" width="720" height="2"/><rect class="cls-3" x="701" y="398" width="720" height="2"/><rect class="cls-3" x="701" y="378" width="720" height="2"/><rect class="cls-3" x="701" y="358" width="720" height="2"/><rect class="cls-3" x="701" y="338" width="720" height="2"/><rect class="cls-3" x="701" y="318" width="720" height="2"/><rect class="cls-3" x="701" y="298" width="720" height="2"/><rect class="cls-3" x="720" y="560" width="2" height="300"/><rect class="cls-3" x="740" y="560" width="2" height="300"/><rect class="cls-3" x="760" y="560" width="2" height="300"/><rect class="cls-3" x="780" y="560" width="2" height="300"/><rect class="cls-3" x="800" y="560" width="2" height="300"/><rect class="cls-3" x="820" y="560" width="2" height="300"/><rect class="cls-3" x="840" y="560" width="2" height="300"/><rect class="cls-3" x="860" y="560" width="2" height="300"/><rect class="cls-3" x="880" y="560" width="2" height="300"/><rect class="cls-3" x="900" y="560" width="2" height="300"/><rect class="cls-3" x="920" y="560" width="2" height="300"/><rect class="cls-3" x="940" y="560" width="2" height="300"/><rect class="cls-3" x="960" y="560" width="2" height="300"/><rect class="cls-3" x="980" y="560" width="2" height="300"/><rect class="cls-3" x="1000" y="560" width="2" height="300"/><rect class="cls-3" x="1020" y="560" width="2" height="300"/><rect class="cls-3" x="1040" y="560" width="2" height="300"/><rect class="cls-3" x="1060" y="560" width="2" height="300"/><rect class="cls-3" x="1080" y="560" width="2" height="300"/><rect class="cls-3" x="1100" y="560" width="2" height="300"/><rect class="cls-3" x="1120" y="560" width="2" height="300"/><rect class="cls-3" x="1140" y="560" width="2" height="300"/><rect class="cls-3" x="1160" y="560" width="2" height="300"/><rect class="cls-3" x="1180" y="560" width="2" height="300"/><rect class="cls-3" x="1200" y="560" width="2" height="300"/><rect class="cls-3" x="1220" y="560" width="2" height="300"/><rect class="cls-3" x="1240" y="560" width="2" height="300"/><rect class="cls-3" x="1260" y="560" width="2" height="300"/><rect class="cls-3" x="1280" y="560" width="2" height="300"/><rect class="cls-3" x="1300" y="560" width="2" height="300"/><rect class="cls-3" x="1320" y="560" width="2" height="300"/><rect class="cls-3" x="1340" y="560" width="2" height="300"/><rect class="cls-3" x="1360" y="560" width="2" height="300"/><rect class="cls-3" x="1380" y="560" width="2" height="300"/><rect class="cls-3" x="1400" y="560" width="2" height="300"/><rect class="cls-3" x="701" y="839" width="720" height="2"/><rect class="cls-3" x="701" y="819" width="720" height="2"/><rect class="cls-3" x="701" y="799" width="720" height="2"/><rect class="cls-3" x="701" y="779" width="720" height="2"/><rect class="cls-3" x="701" y="759" width="720" height="2"/><rect class="cls-3" x="701" y="739" width="720" height="2"/><rect class="cls-3" x="701" y="719" width="720" height="2"/><rect class="cls-3" x="701" y="699" width="720" height="2"/><rect class="cls-3" x="701" y="679" width="720" height="2"/><rect class="cls-3" x="701" y="659" width="720" height="2"/><rect class="cls-3" x="701" y="639" width="720" height="2"/><rect class="cls-3" x="701" y="619" width="720" height="2"/><rect class="cls-3" x="701" y="599" width="720" height="2"/><rect class="cls-3" x="701" y="579" width="720" height="2"/><rect class="cls-3" x="720" y="839" width="2" height="300"/><rect class="cls-3" x="740" y="839" width="2" height="300"/><rect class="cls-3" x="760" y="839" width="2" height="300"/><rect class="cls-3" x="780" y="839" width="2" height="300"/><rect class="cls-3" x="800" y="839" width="2" height="300"/><rect class="cls-3" x="820" y="839" width="2" height="300"/><rect class="cls-3" x="840" y="839" width="2" height="300"/><rect class="cls-3" x="860" y="839" width="2" height="300"/><rect class="cls-3" x="880" y="839" width="2" height="300"/><rect class="cls-3" x="900" y="839" width="2" height="300"/><rect class="cls-3" x="920" y="839" width="2" height="300"/><rect class="cls-3" x="940" y="839" width="2" height="300"/><rect class="cls-3" x="960" y="839" width="2" height="300"/><rect class="cls-3" x="980" y="839" width="2" height="300"/><rect class="cls-3" x="1000" y="839" width="2" height="300"/><rect class="cls-3" x="1020" y="839" width="2" height="300"/><rect class="cls-3" x="1040" y="839" width="2" height="300"/><rect class="cls-3" x="1060" y="839" width="2" height="300"/><rect class="cls-3" x="1080" y="839" width="2" height="300"/><rect class="cls-3" x="1100" y="839" width="2" height="300"/><rect class="cls-3" x="1120" y="839" width="2" height="300"/><rect class="cls-3" x="1140" y="839" width="2" height="300"/><rect class="cls-3" x="1160" y="839" width="2" height="300"/><rect class="cls-3" x="1180" y="839" width="2" height="300"/><rect class="cls-3" x="1200" y="839" width="2" height="300"/><rect class="cls-3" x="1220" y="839" width="2" height="300"/><rect class="cls-3" x="1240" y="839" width="2" height="300"/><rect class="cls-3" x="1260" y="839" width="2" height="300"/><rect class="cls-3" x="1280" y="839" width="2" height="300"/><rect class="cls-3" x="1300" y="839" width="2" height="300"/><rect class="cls-3" x="1320" y="839" width="2" height="300"/><rect class="cls-3" x="1340" y="839" width="2" height="300"/><rect class="cls-3" x="1360" y="839" width="2" height="300"/><rect class="cls-3" x="1380" y="839" width="2" height="300"/><rect class="cls-3" x="1400" y="839" width="2" height="300"/><rect class="cls-3" x="701" y="1118" width="720" height="2"/><rect class="cls-3" x="701" y="1098" width="720" height="2"/><rect class="cls-3" x="701" y="1078" width="720" height="2"/><rect class="cls-3" x="701" y="1058" width="720" height="2"/><rect class="cls-3" x="701" y="1038" width="720" height="2"/><rect class="cls-3" x="701" y="1018" width="720" height="2"/><rect class="cls-3" x="701" y="998" width="720" height="2"/><rect class="cls-3" x="701" y="978" width="720" height="2"/><rect class="cls-3" x="701" y="958" width="720" height="2"/><rect class="cls-3" x="701" y="938" width="720" height="2"/><rect class="cls-3" x="701" y="918" width="720" height="2"/><rect class="cls-3" x="701" y="898" width="720" height="2"/><rect class="cls-3" x="701" y="878" width="720" height="2"/><rect class="cls-3" x="701" y="858" width="720" height="2"/><rect class="cls-3" x="1419" width="2" height="300"/><rect class="cls-3" x="1439" width="2" height="300"/><rect class="cls-3" x="1459" width="2" height="300"/><rect class="cls-3" x="1479" width="2" height="300"/><rect class="cls-3" x="1499" width="2" height="300"/><rect class="cls-3" x="1519" width="2" height="300"/><rect class="cls-3" x="1539" width="2" height="300"/><rect class="cls-3" x="1559" width="2" height="300"/><rect class="cls-3" x="1579" width="2" height="300"/><rect class="cls-3" x="1599" width="2" height="300"/><rect class="cls-3" x="1619" width="2" height="300"/><rect class="cls-3" x="1639" width="2" height="300"/><rect class="cls-3" x="1659" width="2" height="300"/><rect class="cls-3" x="1679" width="2" height="300"/><rect class="cls-3" x="1699" width="2" height="300"/><rect class="cls-3" x="1719" width="2" height="300"/><rect class="cls-3" x="1739" width="2" height="300"/><rect class="cls-3" x="1759" width="2" height="300"/><rect class="cls-3" x="1779" width="2" height="300"/><rect class="cls-3" x="1799" width="2" height="300"/><rect class="cls-3" x="1819" width="2" height="300"/><rect class="cls-3" x="1839" width="2" height="300"/><rect class="cls-3" x="1859" width="2" height="300"/><rect class="cls-3" x="1879" width="2" height="300"/><rect class="cls-3" x="1899" width="2" height="300"/><rect class="cls-3" x="1919" width="2" height="300"/><rect class="cls-3" x="1939" width="2" height="300"/><rect class="cls-3" x="1959" width="2" height="300"/><rect class="cls-3" x="1979" width="2" height="300"/><rect class="cls-3" x="1999" width="2" height="300"/><rect class="cls-3" x="2019" width="2" height="300"/><rect class="cls-3" x="2039" width="2" height="300"/><rect class="cls-3" x="2059" width="2" height="300"/><rect class="cls-3" x="2079" width="2" height="300"/><rect class="cls-3" x="2099" width="2" height="300"/><rect class="cls-3" x="1400" y="279" width="720" height="2"/><rect class="cls-3" x="1400" y="259" width="720" height="2"/><rect class="cls-3" x="1400" y="239" width="720" height="2"/><rect class="cls-3" x="1400" y="219" width="720" height="2"/><rect class="cls-3" x="1400" y="199" width="720" height="2"/><rect class="cls-3" x="1400" y="179" width="720" height="2"/><rect class="cls-3" x="1400" y="159" width="720" height="2"/><rect class="cls-3" x="1400" y="139" width="720" height="2"/><rect class="cls-3" x="1400" y="119" width="720" height="2"/><rect class="cls-3" x="1400" y="99" width="720" height="2"/><rect class="cls-3" x="1400" y="79" width="720" height="2"/><rect class="cls-3" x="1400" y="59" width="720" height="2"/><rect class="cls-3" x="1400" y="39" width="720" height="2"/><rect class="cls-3" x="1400" y="19" width="720" height="2"/><rect class="cls-3" x="1419" y="279" width="2" height="300"/><rect class="cls-3" x="1439" y="279" width="2" height="300"/><rect class="cls-3" x="1459" y="279" width="2" height="300"/><rect class="cls-3" x="1479" y="279" width="2" height="300"/><rect class="cls-3" x="1499" y="279" width="2" height="300"/><rect class="cls-3" x="1519" y="279" width="2" height="300"/><rect class="cls-3" x="1539" y="279" width="2" height="300"/><rect class="cls-3" x="1559" y="279" width="2" height="300"/><rect class="cls-3" x="1579" y="279" width="2" height="300"/><rect class="cls-3" x="1599" y="279" width="2" height="300"/><rect class="cls-3" x="1619" y="279" width="2" height="300"/><rect class="cls-3" x="1639" y="279" width="2" height="300"/><rect class="cls-3" x="1659" y="279" width="2" height="300"/><rect class="cls-3" x="1679" y="279" width="2" height="300"/><rect class="cls-3" x="1699" y="279" width="2" height="300"/><rect class="cls-3" x="1719" y="279" width="2" height="300"/><rect class="cls-3" x="1739" y="279" width="2" height="300"/><rect class="cls-3" x="1759" y="279" width="2" height="300"/><rect class="cls-3" x="1779" y="279" width="2" height="300"/><rect class="cls-3" x="1799" y="279" width="2" height="300"/><rect class="cls-3" x="1819" y="279" width="2" height="300"/><rect class="cls-3" x="1839" y="279" width="2" height="300"/><rect class="cls-3" x="1859" y="279" width="2" height="300"/><rect class="cls-3" x="1879" y="279" width="2" height="300"/><rect class="cls-3" x="1899" y="279" width="2" height="300"/><rect class="cls-3" x="1919" y="279" width="2" height="300"/><rect class="cls-3" x="1939" y="279" width="2" height="300"/><rect class="cls-3" x="1959" y="279" width="2" height="300"/><rect class="cls-3" x="1979" y="279" width="2" height="300"/><rect class="cls-3" x="1999" y="279" width="2" height="300"/><rect class="cls-3" x="2019" y="279" width="2" height="300"/><rect class="cls-3" x="2039" y="279" width="2" height="300"/><rect class="cls-3" x="2059" y="279" width="2" height="300"/><rect class="cls-3" x="2079" y="279" width="2" height="300"/><rect class="cls-3" x="2099" y="279" width="2" height="300"/><rect class="cls-3" x="1400" y="558" width="720" height="2"/><rect class="cls-3" x="1400" y="538" width="720" height="2"/><rect class="cls-3" x="1400" y="518" width="720" height="2"/><rect class="cls-3" x="1400" y="498" width="720" height="2"/><rect class="cls-3" x="1400" y="478" width="720" height="2"/><rect class="cls-3" x="1400" y="458" width="720" height="2"/><rect class="cls-3" x="1400" y="438" width="720" height="2"/><rect class="cls-3" x="1400" y="418" width="720" height="2"/><rect class="cls-3" x="1400" y="398" width="720" height="2"/><rect class="cls-3" x="1400" y="378" width="720" height="2"/><rect class="cls-3" x="1400" y="358" width="720" height="2"/><rect class="cls-3" x="1400" y="338" width="720" height="2"/><rect class="cls-3" x="1400" y="318" width="720" height="2"/><rect class="cls-3" x="1400" y="298" width="720" height="2"/><rect class="cls-3" x="1419" y="560" width="2" height="300"/><rect class="cls-3" x="1439" y="560" width="2" height="300"/><rect class="cls-3" x="1459" y="560" width="2" height="300"/><rect class="cls-3" x="1479" y="560" width="2" height="300"/><rect class="cls-3" x="1499" y="560" width="2" height="300"/><rect class="cls-3" x="1519" y="560" width="2" height="300"/><rect class="cls-3" x="1539" y="560" width="2" height="300"/><rect class="cls-3" x="1559" y="560" width="2" height="300"/><rect class="cls-3" x="1579" y="560" width="2" height="300"/><rect class="cls-3" x="1599" y="560" width="2" height="300"/><rect class="cls-3" x="1619" y="560" width="2" height="300"/><rect class="cls-3" x="1639" y="560" width="2" height="300"/><rect class="cls-3" x="1659" y="560" width="2" height="300"/><rect class="cls-3" x="1679" y="560" width="2" height="300"/><rect class="cls-3" x="1699" y="560" width="2" height="300"/><rect class="cls-3" x="1719" y="560" width="2" height="300"/><rect class="cls-3" x="1739" y="560" width="2" height="300"/><rect class="cls-3" x="1759" y="560" width="2" height="300"/><rect class="cls-3" x="1779" y="560" width="2" height="300"/><rect class="cls-3" x="1799" y="560" width="2" height="300"/><rect class="cls-3" x="1819" y="560" width="2" height="300"/><rect class="cls-3" x="1839" y="560" width="2" height="300"/><rect class="cls-3" x="1859" y="560" width="2" height="300"/><rect class="cls-3" x="1879" y="560" width="2" height="300"/><rect class="cls-3" x="1899" y="560" width="2" height="300"/><rect class="cls-3" x="1919" y="560" width="2" height="300"/><rect class="cls-3" x="1939" y="560" width="2" height="300"/><rect class="cls-3" x="1959" y="560" width="2" height="300"/><rect class="cls-3" x="1979" y="560" width="2" height="300"/><rect class="cls-3" x="1999" y="560" width="2" height="300"/><rect class="cls-3" x="2019" y="560" width="2" height="300"/><rect class="cls-3" x="2039" y="560" width="2" height="300"/><rect class="cls-3" x="2059" y="560" width="2" height="300"/><rect class="cls-3" x="2079" y="560" width="2" height="300"/><rect class="cls-3" x="2099" y="560" width="2" height="300"/><rect class="cls-3" x="1400" y="839" width="720" height="2"/><rect class="cls-3" x="1400" y="819" width="720" height="2"/><rect class="cls-3" x="1400" y="799" width="720" height="2"/><rect class="cls-3" x="1400" y="779" width="720" height="2"/><rect class="cls-3" x="1400" y="759" width="720" height="2"/><rect class="cls-3" x="1400" y="739" width="720" height="2"/><rect class="cls-3" x="1400" y="719" width="720" height="2"/><rect class="cls-3" x="1400" y="699" width="720" height="2"/><rect class="cls-3" x="1400" y="679" width="720" height="2"/><rect class="cls-3" x="1400" y="659" width="720" height="2"/><rect class="cls-3" x="1400" y="639" width="720" height="2"/><rect class="cls-3" x="1400" y="619" width="720" height="2"/><rect class="cls-3" x="1400" y="599" width="720" height="2"/><rect class="cls-3" x="1400" y="579" width="720" height="2"/><rect class="cls-3" x="1419" y="839" width="2" height="300"/><rect class="cls-3" x="1439" y="839" width="2" height="300"/><rect class="cls-3" x="1459" y="839" width="2" height="300"/><rect class="cls-3" x="1479" y="839" width="2" height="300"/><rect class="cls-3" x="1499" y="839" width="2" height="300"/><rect class="cls-3" x="1519" y="839" width="2" height="300"/><rect class="cls-3" x="1539" y="839" width="2" height="300"/><rect class="cls-3" x="1559" y="839" width="2" height="300"/><rect class="cls-3" x="1579" y="839" width="2" height="300"/><rect class="cls-3" x="1599" y="839" width="2" height="300"/><rect class="cls-3" x="1619" y="839" width="2" height="300"/><rect class="cls-3" x="1639" y="839" width="2" height="300"/><rect class="cls-3" x="1659" y="839" width="2" height="300"/><rect class="cls-3" x="1679" y="839" width="2" height="300"/><rect class="cls-3" x="1699" y="839" width="2" height="300"/><rect class="cls-3" x="1719" y="839" width="2" height="300"/><rect class="cls-3" x="1739" y="839" width="2" height="300"/><rect class="cls-3" x="1759" y="839" width="2" height="300"/><rect class="cls-3" x="1779" y="839" width="2" height="300"/><rect class="cls-3" x="1799" y="839" width="2" height="300"/><rect class="cls-3" x="1819" y="839" width="2" height="300"/><rect class="cls-3" x="1839" y="839" width="2" height="300"/><rect class="cls-3" x="1859" y="839" width="2" height="300"/><rect class="cls-3" x="1879" y="839" width="2" height="300"/><rect class="cls-3" x="1899" y="839" width="2" height="300"/><rect class="cls-3" x="1919" y="839" width="2" height="300"/><rect class="cls-3" x="1939" y="839" width="2" height="300"/><rect class="cls-3" x="1959" y="839" width="2" height="300"/><rect class="cls-3" x="1979" y="839" width="2" height="300"/><rect class="cls-3" x="1999" y="839" width="2" height="300"/><rect class="cls-3" x="2019" y="839" width="2" height="300"/><rect class="cls-3" x="2039" y="839" width="2" height="300"/><rect class="cls-3" x="2059" y="839" width="2" height="300"/><rect class="cls-3" x="2079" y="839" width="2" height="300"/><rect class="cls-3" x="2099" y="839" width="2" height="300"/><rect class="cls-3" x="1400" y="1118" width="720" height="2"/><rect class="cls-3" x="1400" y="1098" width="720" height="2"/><rect class="cls-3" x="1400" y="1078" width="720" height="2"/><rect class="cls-3" x="1400" y="1058" width="720" height="2"/><rect class="cls-3" x="1400" y="1038" width="720" height="2"/><rect class="cls-3" x="1400" y="1018" width="720" height="2"/><rect class="cls-3" x="1400" y="998" width="720" height="2"/><rect class="cls-3" x="1400" y="978" width="720" height="2"/><rect class="cls-3" x="1400" y="958" width="720" height="2"/><rect class="cls-3" x="1400" y="938" width="720" height="2"/><rect class="cls-3" x="1400" y="918" width="720" height="2"/><rect class="cls-3" x="1400" y="898" width="720" height="2"/><rect class="cls-3" x="1400" y="878" width="720" height="2"/><rect class="cls-3" x="1400" y="858" width="720" height="2"/></g></g></g></svg>