<svg xmlns="http://www.w3.org/2000/svg" xmlns:xlink="http://www.w3.org/1999/xlink" viewBox="200 0 267 612.72"><defs><style>.cls-1,.cls-25,.cls-28,.cls-36,.cls-37,.cls-39,.cls-40,.cls-41,.cls-53,.cls-54,.cls-55,.cls-56{fill:none;}.cls-2{isolation:isolate;}.cls-3{clip-path:url(#clip-path);}.cls-4{fill:#88c240;}.cls-5{fill:#becccf;}.cls-6{fill:#f5e830;}.cls-7{fill:#d9c619;}.cls-8{fill:#bd1621;opacity:0.3;}.cls-51,.cls-59,.cls-60,.cls-9{fill:#fff;}.cls-10,.cls-14{fill:#825f27;}.cls-11{fill:#634e43;}.cls-12{fill:#ff9ca7;}.cls-13,.cls-69{fill:#1b75b8;}.cls-14,.cls-61,.cls-65,.cls-75{opacity:0.2;}.cls-15{fill:#657131;}.cls-16{fill:#f7ac42;}.cls-17{fill:#e9f4fa;}.cls-18{fill:#cce5e8;}.cls-19{fill:#ffe61b;opacity:0.6;}.cls-20{fill:#e3d03f;}.cls-21{fill:#932168;}.cls-21,.cls-42,.cls-44{opacity:0.12;}.cls-22{opacity:0.55;}.cls-23{fill:#e5d341;}.cls-24,.cls-29,.cls-30,.cls-38{mix-blend-mode:multiply;}.cls-24{opacity:0.15;}.cls-25,.cls-54{stroke:#000;}.cls-25,.cls-28,.cls-36,.cls-37,.cls-39,.cls-41,.cls-53,.cls-54,.cls-55,.cls-56,.cls-59,.cls-60{stroke-linecap:round;}.cls-25,.cls-28,.cls-36,.cls-37,.cls-39,.cls-40,.cls-41,.cls-54,.cls-55,.cls-56,.cls-59{stroke-miterlimit:10;}.cls-25,.cls-28{stroke-width:1.62px;}.cls-26{fill:#f9ab2d;}.cls-27{fill:#ffd252;}.cls-28{stroke:#f9ab2d;}.cls-29{fill:#ffe2c5;}.cls-30,.cls-34{fill:#e2e2e2;}.cls-31{fill:#209fe5;}.cls-32{fill:#48c8ef;}.cls-33{fill:#724c27;}.cls-35{fill:#e8d4d1;}.cls-36,.cls-56{stroke:#564e4e;}.cls-36,.cls-39,.cls-40,.cls-59{stroke-width:1.15px;}.cls-37{stroke:#209fe5;stroke-width:4.61px;}.cls-38{fill:#d5e6ef;}.cls-39,.cls-41,.cls-55,.cls-59{stroke:#1c5d7a;}.cls-40{stroke:#e2e2e2;}.cls-41{stroke-width:1.19px;}.cls-43{fill:#83d8f7;}.cls-44{fill:#17555e;}.cls-45{fill:#34aae1;}.cls-46{fill:#b4eaeb;}.cls-47{fill:#a5e4ef;}.cls-48{fill:#13464f;}.cls-49,.cls-51{mix-blend-mode:soft-light;}.cls-50{fill:#1c5d7a;}.cls-52{fill:#bcbcbc;}.cls-53{stroke:#ffd252;stroke-width:1.94px;}.cls-53,.cls-60{stroke-linejoin:round;}.cls-54,.cls-55,.cls-56{stroke-width:1.43px;}.cls-57{fill:#ffc943;}.cls-58{fill:#ffdaa9;}.cls-60{stroke:#48c8ef;stroke-width:3.46px;}.cls-61{fill:#111110;}.cls-62,.cls-65{fill:#754d29;}.cls-63{fill:#ffe0d4;}.cls-64{fill:#f7c3a1;}.cls-66{fill:#bf7f51;}.cls-67,.cls-75{fill:#221f1f;}.cls-68{fill:#d3db26;}.cls-69,.cls-71{fill-rule:evenodd;}.cls-70,.cls-71,.cls-78{fill:#2d368c;}.cls-72{fill:#e5bd62;}.cls-73{fill:#d1a450;}.cls-74{fill:#868686;}.cls-76{fill:#7887c2;}.cls-77{fill:#3ab04b;}.cls-78{opacity:0.5;}</style><clipPath id="clip-path" transform="translate(156 -18.59)"><rect class="cls-1" width="725" height="500"/></clipPath></defs><g class="cls-2"><g id="Layer_2" data-name="Layer 2"><g id="Layer_1-2" data-name="Layer 1"><g class="cls-3"><path class="cls-4" d="M710.4,335.13c-6.46-77.62-85.06-154.81-228-132.36s-190.8-21.9-273-104.32C100.59-10.66-72.88-13-134.42,122.64-202.12,271.85-94.6,426.26-30.64,490.09s293,213.23,563.89,100.1C643.47,544.16,718.49,432.31,710.4,335.13Z" transform="translate(156 -18.59)"/><rect class="cls-5" x="661.24" y="165.89" width="16.47" height="14.27"/><path class="cls-6" d="M545.06,139.55A62.24,62.24,0,0,1,542,154.92a19.52,19.52,0,0,1-3.19,6.13c-2.11,2.42-6.08,3.93-10.33,4.87a88.71,88.71,0,0,1-32.81,0c-4.25-.94-8.22-2.45-10.33-4.87a19.52,19.52,0,0,1-3.19-6.13h0a63.57,63.57,0,0,1-3.24-18.45c-.28-8.68,1.22-17.37,5.7-22.19,6.1-6.55,14.54-8.94,21-9.77l.2,0a52,52,0,0,1,6.25-.38h.61c6.2.08,18.65,1.37,26.85,10.17C544.54,119.65,545.81,129.89,545.06,139.55Z" transform="translate(156 -18.59)"/><path class="cls-6" d="M481.76,144.61s-3.48-5.21-8.17-3.3-3.91,9.13.35,11.47,8,.53,9.21-1.39S481.76,144.61,481.76,144.61Z" transform="translate(156 -18.59)"/><path class="cls-7" d="M478.05,144.49a7.68,7.68,0,0,1-.48,1.77,12.67,12.67,0,0,1-1.74,3.1,7.58,7.58,0,0,1-1.27,1.33,7.21,7.21,0,0,1,.48-1.77,12,12,0,0,1,.76-1.62,13.07,13.07,0,0,1,1-1.48A7.94,7.94,0,0,1,478.05,144.49Z" transform="translate(156 -18.59)"/><path class="cls-7" d="M473.21,145.85a7.81,7.81,0,0,1,1.77.47,12.67,12.67,0,0,1,3.1,1.74,7.94,7.94,0,0,1,1.33,1.27,7.76,7.76,0,0,1-1.78-.47,12.28,12.28,0,0,1-3.1-1.75A7.46,7.46,0,0,1,473.21,145.85Z" transform="translate(156 -18.59)"/><path class="cls-6" d="M542.16,144.61s3.48-5.21,8.17-3.3,3.92,9.13-.34,11.47-8,.53-9.22-1.39S542.16,144.61,542.16,144.61Z" transform="translate(156 -18.59)"/><path class="cls-7" d="M545.87,144.49a7.94,7.94,0,0,1,1.27,1.33,11.85,11.85,0,0,1,1,1.48,13.35,13.35,0,0,1,.77,1.62,7.67,7.67,0,0,1,.47,1.77,7.58,7.58,0,0,1-1.27-1.33,12.35,12.35,0,0,1-1-1.49,11.29,11.29,0,0,1-.76-1.61A7.68,7.68,0,0,1,545.87,144.49Z" transform="translate(156 -18.59)"/><path class="cls-7" d="M550.72,145.85a7.88,7.88,0,0,1-1.33,1.26,13.28,13.28,0,0,1-1.49,1,12.5,12.5,0,0,1-1.61.76,7.81,7.81,0,0,1-1.77.47,7.53,7.53,0,0,1,1.32-1.27,12.67,12.67,0,0,1,3.1-1.74A7.89,7.89,0,0,1,550.72,145.85Z" transform="translate(156 -18.59)"/><path class="cls-8" d="M497.8,160.18a8.68,8.68,0,0,1-2.15,5.74c-4.25-.94-8.22-2.45-10.33-4.87a19.52,19.52,0,0,1-3.19-6.13h0a8.72,8.72,0,0,1,15.67,5.27Z" transform="translate(156 -18.59)"/><path class="cls-8" d="M542,154.92a19.52,19.52,0,0,1-3.19,6.13c-2.11,2.42-6.08,3.93-10.33,4.87a8.72,8.72,0,1,1,13.52-11Z" transform="translate(156 -18.59)"/><circle class="cls-9" cx="651.16" cy="124.73" r="8.72"/><circle class="cls-7" cx="495.16" cy="143.48" r="6.43" transform="translate(199.57 373.57) rotate(-45)"/><path class="cls-10" d="M500.27,143.48a5.11,5.11,0,1,1-5.11-5.11A5.11,5.11,0,0,1,500.27,143.48Z" transform="translate(156 -18.59)"/><path class="cls-9" d="M501.28,140.13a3.35,3.35,0,1,1-3.35-3.35A3.35,3.35,0,0,1,501.28,140.13Z" transform="translate(156 -18.59)"/><circle class="cls-9" cx="684.85" cy="124.73" r="8.72"/><circle class="cls-7" cx="528.85" cy="143.48" r="6.43" transform="translate(209.44 397.39) rotate(-45)"/><path class="cls-10" d="M534,143.48a5.11,5.11,0,1,1-5.11-5.11A5.11,5.11,0,0,1,534,143.48Z" transform="translate(156 -18.59)"/><path class="cls-9" d="M535,140.13a3.35,3.35,0,1,1-3.35-3.35A3.35,3.35,0,0,1,535,140.13Z" transform="translate(156 -18.59)"/><path class="cls-11" d="M516.48,149.79a4.19,4.19,0,0,1-7.39,0,7.05,7.05,0,0,1-.91-3.7c.14-.54,2.9-.87,4.6-.87s4.46.33,4.61.87A7.16,7.16,0,0,1,516.48,149.79Z" transform="translate(156 -18.59)"/><path class="cls-12" d="M516.48,149.79a4.19,4.19,0,0,1-7.39,0,4.34,4.34,0,0,1,7.39,0Z" transform="translate(156 -18.59)"/><path class="cls-13" d="M544.51,142.23s-12.07-6.64-14-25c0,0-12.91,9.93-26.64,11.87l5.94-10.92s-14.41,11.41-25.29,11.53a37.26,37.26,0,0,1-5.23,12.41s-9.06-17.27,2-31.76c15.52-20.36,47-19.72,47-19.72l-6.53,8.65a80.48,80.48,0,0,1,25.88-4.2l-9.06,10.69s13.35,3.62,15,15.64l-9-1.52S550.09,129.79,544.51,142.23Z" transform="translate(156 -18.59)"/><rect class="cls-10" x="485.65" y="125.24" width="11.89" height="5.45" rx="1.82" transform="translate(139.9 92.35) rotate(-12.67)"/><rect class="cls-14" x="485.65" y="125.24" width="11.89" height="5.45" rx="1.82" transform="translate(139.9 92.35) rotate(-12.67)"/><rect class="cls-10" x="529.79" y="122.01" width="5.45" height="11.89" rx="1.82" transform="translate(446.87 600.86) rotate(-77.33)"/><rect class="cls-14" x="529.79" y="122.01" width="5.45" height="11.89" rx="1.82" transform="translate(446.87 600.86) rotate(-77.33)"/><polygon class="cls-15" points="658.38 166.66 657.29 186.57 653.23 189.42 667.5 189.37 664.84 166.64 658.38 166.66"/><polygon class="cls-16" points="667.49 188.81 653.22 188.81 657.27 186.01 667.16 186.01 667.26 186.91 667.49 188.81"/><path class="cls-9" d="M501.52,205.52l-1.11-.29a.44.44,0,0,0-.23.85l1.12.29a.45.45,0,0,0,.54-.31A.44.44,0,0,0,501.52,205.52Z" transform="translate(156 -18.59)"/><path class="cls-9" d="M502.4,204.64l-1.11-.3a.44.44,0,0,0-.54.32.45.45,0,0,0,.31.54l1.12.29a.44.44,0,0,0,.54-.32A.44.44,0,0,0,502.4,204.64Z" transform="translate(156 -18.59)"/><path class="cls-9" d="M511.49,207.4h-3.17a3,3,0,0,1,2.94-1.9Z" transform="translate(156 -18.59)"/><rect class="cls-11" x="652.52" y="188.81" width="15.66" height="1.81" rx="0.84"/><polygon class="cls-15" points="675.77 164.1 684.63 181.96 689.49 182.97 676.36 188.56 669.82 166.63 675.77 164.1"/><polygon class="cls-16" points="676.13 188.06 689.23 182.42 684.4 181.45 675.32 185.35 675.58 186.22 676.13 188.06"/><path class="cls-9" d="M528.54,201l.91-.71a.44.44,0,0,1,.62.08.44.44,0,0,1-.08.62l-.91.71a.44.44,0,1,1-.54-.7Z" transform="translate(156 -18.59)"/><path class="cls-9" d="M527.38,200.52l.91-.71a.44.44,0,1,1,.54.69l-.91.71a.44.44,0,1,1-.54-.69Z" transform="translate(156 -18.59)"/><path class="cls-9" d="M520.13,206.65l2.91-1.26a3,3,0,0,0-3.46-.58Z" transform="translate(156 -18.59)"/><rect class="cls-11" x="519.21" y="203.75" width="15.66" height="1.81" rx="0.84" transform="translate(118.01 206.17) rotate(-23.26)"/><path class="cls-6" d="M514.28,170.18a3.08,3.08,0,0,1-2.22.93,3.23,3.23,0,0,1-2.23-.93l.43-4.46h3.49Z" transform="translate(156 -18.59)"/><path class="cls-6" d="M521.74,185.31H502.37s3.1-15.72,4-16a17.78,17.78,0,0,1,11.29,0C518.64,169.59,521.74,185.31,521.74,185.31Z" transform="translate(156 -18.59)"/><path class="cls-6" d="M508.52,169.75c-1.36-1.74-11,2.33-18.08,6.85,0,0-3.06-1-3.55-.53s1.78,2.85,1.78,2.85-3,1.76-2.87,2.17,1.61.63,3.33.27c0,0-1.88,2.88-1.37,3.29.34.28,2.93-1.15,2.93-1.15s-.25,2.16.27,2.23,3.2-3.7,3.2-3.7S510.38,172.13,508.52,169.75Z" transform="translate(156 -18.59)"/><path class="cls-6" d="M516.16,170.78c.2-2.2,10.51-4,18.92-4,0,0,2-2.47,2.71-2.36s0,3.36,0,3.36,2.57,1.67.93,2.3l-.14,1.17a2.24,2.24,0,0,1-2.07,2l-1.67.12S515.88,173.79,516.16,170.78Z" transform="translate(156 -18.59)"/><path class="cls-16" d="M503.8,176.83l-2.38,12.08h21.76l-3.24-14.25-5.24-6.28s-.41,3.16-2.59,3.16-2.6-3.16-2.6-3.16Z" transform="translate(156 -18.59)"/><path class="cls-17" d="M517.54,199.71l10.63-.22-3.84-15-.36-1.16-.27-.87-.89-2.91L521.4,175l7.78.91,1.14.14,2.7.32-.71-10-2.66.33-1.12.14-12.45,1.54a5.17,5.17,0,0,1-1.29,2.79C514.44,171.54,517.54,199.71,517.54,199.71Z" transform="translate(156 -18.59)"/><path class="cls-17" d="M491.46,173.64l3.33,9.38,1.81-1.24,1-.65,5-3.39-.65,2.32-.81,3-.25.89-.33,1.17L497,200l10.61,0s2-28.41,1.59-28.92a5.93,5.93,0,0,1-.93-2.46Z" transform="translate(156 -18.59)"/><polygon class="cls-18" points="672.49 156.49 674.15 158.13 671.49 161.69 671.1 157.64 672.49 156.49"/><path class="cls-18" d="M514.19,167.94l1,8.87,3.54-2.74-2.46-5.7A4,4,0,0,0,514.19,167.94Z" transform="translate(156 -18.59)"/><polygon class="cls-18" points="663.6 156.98 662 158.68 664.78 162.15 665.03 158.08 663.6 156.98"/><path class="cls-18" d="M509.66,168.35l-.67,8.9-3.63-2.62,2.27-5.77A4,4,0,0,1,509.66,168.35Z" transform="translate(156 -18.59)"/><rect class="cls-18" x="675.13" y="167.79" width="5.28" height="0.91"/><rect class="cls-18" x="656.53" y="168.06" width="5.28" height="0.91"/><circle class="cls-19" cx="696.41" cy="133.13" r="9.38"/><rect class="cls-20" x="531.54" y="163.4" width="10.38" height="3.13" transform="translate(390.18 619.41) rotate(-74.48)"/><path class="cls-10" d="M534.08,174.58h0c-.95-.27-1.56-1.06-1.37-1.77l2.21-8.18,3.59.92-2.32,8.22A1.61,1.61,0,0,1,534.08,174.58Z" transform="translate(156 -18.59)"/><polygon class="cls-21" points="692.66 141.01 692.47 141.54 694.66 145.18 695.79 141.27 692.66 141.01"/><path class="cls-16" d="M542.14,141.8a10,10,0,1,0,8.13,11.49A10,10,0,0,0,542.14,141.8Zm6.76,11.25a8.56,8.56,0,1,1-7-9.88A8.57,8.57,0,0,1,548.9,153.05Z" transform="translate(156 -18.59)"/><g class="cls-22"><path class="cls-9" d="M538.13,145.79a6,6,0,0,1,7.21,9.19c-.46.61.45,1.38.92.77a7.23,7.23,0,0,0-7.71-11.38,7.59,7.59,0,0,0-.84.3c-.71.3-.29,1.43.42,1.12Z" transform="translate(156 -18.59)"/><circle class="cls-9" cx="700.16" cy="138.35" r="0.79"/></g><path class="cls-20" d="M535,164.68l3.42.88a.25.25,0,0,0,.28-.15v0a.24.24,0,0,0-.16-.31l-3.44-.84a.23.23,0,0,0-.28.18h0A.24.24,0,0,0,535,164.68Z" transform="translate(156 -18.59)"/><path class="cls-23" d="M543.56,159.36a8.47,8.47,0,1,1,3.5-2.66,8.49,8.49,0,0,1-3.5,2.66.23.23,0,0,0,.18.42,9.06,9.06,0,0,0,4.46-4,8.94,8.94,0,0,0,.95-5.83,9.1,9.1,0,0,0-3-5.27,8.93,8.93,0,1,0-2.36,15.1A.23.23,0,0,0,543.56,159.36Z" transform="translate(156 -18.59)"/><path class="cls-6" d="M538.3,168.46a4.56,4.56,0,0,0-2.61-.87.37.37,0,0,0-.37.5,4.8,4.8,0,0,0,1.06,1.54s-1.09-.36-1.43.33c0,0-.06.67,1.09,1.26,0,0-1.06,0-1.34.46,0,0,0,1.3,2,1.55s2.08-.44,2-1.21.65-.4,0-1.68A3.63,3.63,0,0,1,538.3,168.46Z" transform="translate(156 -18.59)"/><g class="cls-24"><polygon points="852.36 346.8 784.95 141.08 614.78 217.39 603.43 201.41 575 224.73 852.36 346.8"/><polygon points="491.44 274.07 611.71 460.7 852.36 346.8 775.9 151.28 606.3 228.96 590.73 207.86 491.44 274.07"/><polygon points="742.33 350.77 756.83 377.64 837.38 341.12 826.1 312.61 742.33 350.77"/><path class="cls-25" d="M352,296.67c4-2.7,9.45,5.4,13.49,2.7s-1.36-10.8,2.68-13.49,9.45,5.4,13.5,2.7-1.36-10.8,2.68-13.49,9.45,5.4,13.49,2.7-1.36-10.8,2.69-13.5S410,269.69,414,267s-1.35-10.8,2.69-13.5,9.45,5.4,13.5,2.7" transform="translate(156 -18.59)"/></g><polygon class="cls-26" points="846.63 344.69 779.23 138.97 609.06 215.28 597.71 199.3 569.27 222.62 846.63 344.69"/><polygon class="cls-27" points="485.71 271.96 605.99 458.59 846.63 344.69 770.18 149.17 600.57 226.85 585.01 205.75 485.71 271.96"/><polygon class="cls-26" points="736.6 348.66 751.11 375.53 831.65 339.01 820.38 310.5 736.6 348.66"/><path class="cls-28" d="M346.28,294.56c4.05-2.7,9.45,5.4,13.49,2.7s-1.36-10.8,2.69-13.49,9.44,5.4,13.49,2.7-1.36-10.8,2.68-13.49,9.45,5.4,13.49,2.7-1.35-10.8,2.69-13.5,9.45,5.4,13.49,2.71-1.35-10.8,2.7-13.5,9.45,5.4,13.49,2.7" transform="translate(156 -18.59)"/><path class="cls-29" d="M378.62,287.16l-7.76-2.62,5.34-15.35h0a353.57,353.57,0,0,0-49.62-12c-8.82-1.48-17.22-2.54-25.11-3.29q-3-.27-5.81-.5l-2.84-.21c-1.87-.13-3.71-.24-5.52-.34q-6.15-.31-11.72-.41l-35.19-11.87-24.45,60,135.58,77.12,27.65-75.3a5.39,5.39,0,0,0,.25-1.46l2.58-7A5.33,5.33,0,0,0,378.62,287.16Z" transform="translate(156 -18.59)"/><path class="cls-30" d="M124.83,408.12a7,7,0,0,0-5.94-7.89L20.06,386.35l-4.48,15.33A5.33,5.33,0,0,0,19,408.42l101.12,33.64Z" transform="translate(156 -18.59)"/><path class="cls-31" d="M293.8,494.13,24.41,404.49A5.34,5.34,0,0,1,21,397.75L77.15,205.86a5.33,5.33,0,0,1,6.74-3.37l281.77,95a5.33,5.33,0,0,1,3.37,6.74L300.54,490.75A5.33,5.33,0,0,1,293.8,494.13Z" transform="translate(156 -18.59)"/><g class="cls-24"><path d="M303.5,492.51,34.1,402.87a5.33,5.33,0,0,1-3.37-6.74L86.85,204.24a5.33,5.33,0,0,1,6.74-3.37l281.76,95a5.34,5.34,0,0,1,3.38,6.74l-68.5,186.49A5.32,5.32,0,0,1,303.5,492.51Z" transform="translate(156 -18.59)"/></g><path class="cls-32" d="M296.63,485.64,27.23,396a5.33,5.33,0,0,1-3.37-6.74L80,197.37A5.33,5.33,0,0,1,86.72,194l281.76,95a5.33,5.33,0,0,1,3.37,6.74L303.36,482.26A5.32,5.32,0,0,1,296.63,485.64Z" transform="translate(156 -18.59)"/><path class="cls-33" d="M162.44,437.36c19.56-61.18,42.3-129.55,63.3-190.25-19.56,61.18-42.32,129.55-63.3,190.25Z" transform="translate(156 -18.59)"/><path class="cls-9" d="M50.34,352.55,95.7,189.33s79.67,12.48,126.85,67.35c0,0,63.55-11.25,143.51,14.39L307.82,438.35,167.22,423Z" transform="translate(156 -18.59)"/><path class="cls-34" d="M96.53,190.64A254.75,254.75,0,0,1,141,203.51c23.43,9.06,56.44,25.76,80.66,53.93l.43.49.64-.11c.14,0,14.08-2.44,36.66-2.44a352.31,352.31,0,0,1,105.17,16.43L307,437.1,167.59,421.87,51.69,352,96.53,190.64m-.83-1.31L50.34,352.55,167.22,423l140.6,15.36,58.24-167.28a351.92,351.92,0,0,0-106.65-16.85c-23,0-36.86,2.46-36.86,2.46C175.37,201.81,95.7,189.33,95.7,189.33Z" transform="translate(156 -18.59)"/><path class="cls-34" d="M45,383.79l247.29,82.28a47.9,47.9,0,0,1,15.51-27.72s-76-29.15-140.6-15.36c0,0-40.8-47.67-116.88-70.44C50.34,352.55,52.56,363.32,45,383.79Z" transform="translate(156 -18.59)"/><path class="cls-35" d="M221.25,261.09c-15.95,50.3-34.63,106.47-52,156.29,15.94-50.3,34.64-106.47,52-156.29Z" transform="translate(156 -18.59)"/><path class="cls-36" d="M86.81,300.31s48.74,11.78,82.58,41" transform="translate(156 -18.59)"/><path class="cls-36" d="M83.79,309.41s48.74,11.78,82.58,41" transform="translate(156 -18.59)"/><path class="cls-36" d="M74.47,337.42s48.74,11.78,82.58,41" transform="translate(156 -18.59)"/><path class="cls-36" d="M148.78,345.72c1.15.76,2.3,1.54,3.44,2.34a143.06,143.06,0,0,1,11.87,9.19" transform="translate(156 -18.59)"/><path class="cls-36" d="M80.74,318.57s30.72,7.42,60.32,25.11" transform="translate(156 -18.59)"/><path class="cls-36" d="M77.69,327.73a221.57,221.57,0,0,1,24.89,8.08" transform="translate(156 -18.59)"/><path class="cls-37" d="M233.55,278.58s47-8.76,108.25,14.75" transform="translate(156 -18.59)"/><path class="cls-36" d="M228,295.35s58-2.86,106.35,20.47" transform="translate(156 -18.59)"/><path class="cls-36" d="M224.68,305.25s58-2.85,106.34,20.48" transform="translate(156 -18.59)"/><path class="cls-36" d="M221.38,315.16s58-2.86,106.34,20.48" transform="translate(156 -18.59)"/><path class="cls-36" d="M218.09,325.07A263.49,263.49,0,0,1,267,328.39" transform="translate(156 -18.59)"/><path class="cls-36" d="M214.79,335a264,264,0,0,1,48.92,3.32" transform="translate(156 -18.59)"/><path class="cls-36" d="M211.49,344.88a264.37,264.37,0,0,1,49.17,3.37" transform="translate(156 -18.59)"/><path class="cls-36" d="M208.2,354.79s58-2.86,106.34,20.48" transform="translate(156 -18.59)"/><path class="cls-36" d="M204.9,364.7s58-2.86,106.34,20.48" transform="translate(156 -18.59)"/><path class="cls-36" d="M201.53,374.82s58-2.85,106.34,20.48" transform="translate(156 -18.59)"/><path class="cls-36" d="M198.16,385s58-2.86,106.34,20.48" transform="translate(156 -18.59)"/><path class="cls-36" d="M194.9,394.75s58-2.86,106.34,20.47" transform="translate(156 -18.59)"/><path class="cls-27" d="M281.44,328.67l-6.69,24.44a178.55,178.55,0,0,1,39.49,14l8.23-24.75A147.13,147.13,0,0,0,281.44,328.67Z" transform="translate(156 -18.59)"/><polygon class="cls-38" points="431.23 469.36 425.5 467.45 426.31 458.29 466.08 445.39 464.46 449.78 431.23 469.36"/><path class="cls-34" d="M26.74,311.54a3,3,0,1,1-1.93-3.84A3,3,0,0,1,26.74,311.54Z" transform="translate(156 -18.59)"/><path class="cls-39" d="M439.07,423.83s21.81,18,8.09,37.65c-16.83,24.08-66.73,11.19-75-22.12-5.83-23.56,15.3-20.94,18.58-5.64" transform="translate(156 -18.59)"/><path class="cls-39" d="M349.68,397.21s31-5.71,68.41,10.48" transform="translate(156 -18.59)"/><path class="cls-39" d="M127.26,172.79s27.32,18.79,29,62.07" transform="translate(156 -18.59)"/><path class="cls-39" d="M446.3,432.05c4.79,7.1,8.85,18,.86,29.43-16.83,24.08-66.73,11.19-75-22.12-4.36-17.62,6.36-20.6,13.42-14.57" transform="translate(156 -18.59)"/><path class="cls-39" d="M383.88,417.55s-6.94-4.37-12.7,1.53" transform="translate(156 -18.59)"/><circle class="cls-34" cx="17.66" cy="439.36" r="8.87" transform="matrix(0.16, -0.99, 0.99, 0.16, -262.78, 367.19)"/><path class="cls-34" d="M206.39,195.55a8.14,8.14,0,1,1-8.14-8.13A8.14,8.14,0,0,1,206.39,195.55Z" transform="translate(156 -18.59)"/><circle class="cls-34" cx="302.41" cy="227.13" r="3.92"/><circle class="cls-40" cx="234.93" cy="216.13" r="9.43"/><path class="cls-34" d="M17.66,355.48a5.94,5.94,0,1,1-5.94-5.94A5.94,5.94,0,0,1,17.66,355.48Z" transform="translate(156 -18.59)"/><path class="cls-34" d="M52.08,210.05a2.58,2.58,0,1,1-2.57-2.57A2.57,2.57,0,0,1,52.08,210.05Z" transform="translate(156 -18.59)"/><path class="cls-41" d="M-59.85,424.08c19.15-.1,40.75.65,50,4.06C8.39,434.91-90.08,463-92.44,477.2s64.35,15.91,96.46,23" transform="translate(156 -18.59)"/><g class="cls-24"><rect x="604.15" y="300.27" width="20.17" height="94.84" transform="translate(150.02 666.01) rotate(-58.02)"/><polygon class="cls-42" points="748.75 327.14 751.68 329.28 778.24 322.38 756.11 308.26 748.75 327.14"/><circle cx="524.41" cy="275.94" r="92.59" transform="translate(114.48 433.05) rotate(-45)"/><circle cx="680.41" cy="257.35" r="79.66"/><path d="M466.09,275.49c-.39-25.4,16.11-48.38,40.61-55.43a56.58,56.58,0,0,1,63.94,25.69c3.63,6.18,13.48,1,9.86-5.18a68.08,68.08,0,0,0-72.77-32.23c-28.2,6-49,30.24-52.4,58.57a61.57,61.57,0,0,0-.37,8.26c.11,7.14,11.24,7.52,11.13.32Z" transform="translate(156 -18.59)"/><circle cx="583.39" cy="262.85" r="7.33" transform="matrix(1, -0.02, 0.02, 1, 151.72, -8.87)"/><path d="M602.12,276.51A78.83,78.83,0,1,1,591.54,237a79.47,79.47,0,0,1,10.58,39.47c0,2.73,4.24,2.73,4.23,0a83.07,83.07,0,1,0-131.21,67.67,83.05,83.05,0,0,0,131.21-67.67C606.36,273.77,602.13,273.77,602.12,276.51Z" transform="translate(156 -18.59)"/><path d="M680.68,389l-.12.2c-3.37,5.39-9.39,7.72-13.43,5.19L620.6,365.87l12.23-20.56,46.62,29.38C683.5,377.22,684.05,383.64,680.68,389Z" transform="translate(156 -18.59)"/><path d="M621.22,365.19l11.63-19.56a1.52,1.52,0,0,0-.4-2l-.21-.15a1.52,1.52,0,0,0-2.22.45l-11.46,19.7a1.54,1.54,0,0,0,.58,2.1l0,0A1.52,1.52,0,0,0,621.22,365.19Z" transform="translate(156 -18.59)"/></g><rect class="cls-43" x="598.42" y="298.16" width="20.17" height="94.84" transform="translate(149.11 660.16) rotate(-58.02)"/><polygon class="cls-44" points="743.02 325.03 745.95 327.17 772.51 320.27 750.38 306.15 743.02 325.03"/><circle class="cls-45" cx="518.69" cy="273.83" r="92.59" transform="translate(114.3 428.38) rotate(-45)"/><circle class="cls-46" cx="674.69" cy="255.24" r="79.66"/><g class="cls-22"><path class="cls-9" d="M460.36,273.38C460,248,476.47,225,501,218a56.56,56.56,0,0,1,63.93,25.69c3.63,6.18,13.49,1,9.86-5.18A68.07,68.07,0,0,0,502,206.23c-28.2,6-49,30.24-52.4,58.57a60,60,0,0,0-.36,8.26c.11,7.14,11.23,7.52,11.12.32Z" transform="translate(156 -18.59)"/><circle class="cls-9" cx="577.66" cy="260.74" r="7.33" transform="translate(151.75 -8.97) rotate(-0.95)"/></g><path class="cls-47" d="M596.39,274.4a78.84,78.84,0,1,1-10.58-39.47,79.37,79.37,0,0,1,10.58,39.47c0,2.73,4.25,2.73,4.24,0a83.08,83.08,0,1,0-131.22,67.67A83.06,83.06,0,0,0,600.63,274.4C600.64,271.66,596.4,271.66,596.39,274.4Z" transform="translate(156 -18.59)"/><path class="cls-48" d="M675,386.93l-.12.2c-3.37,5.39-9.38,7.72-13.43,5.19l-46.53-28.56L627.1,343.2l46.62,29.38C677.77,375.11,678.32,381.53,675,386.93Z" transform="translate(156 -18.59)"/><path class="cls-45" d="M615.49,363.08l11.63-19.56a1.52,1.52,0,0,0-.4-2l-.2-.15a1.53,1.53,0,0,0-2.23.45l-11.45,19.7a1.53,1.53,0,0,0,.57,2.1l0,0A1.52,1.52,0,0,0,615.49,363.08Z" transform="translate(156 -18.59)"/><g class="cls-24"><path d="M386.13,213.5a6.81,6.81,0,0,0,12.9,3.17Z" transform="translate(156 -18.59)"/><path d="M449,142.68a37.38,37.38,0,1,0-71.21,4.45v0l0,.1c.18.48.38.95.58,1.42,2.22,5.5,9.58,24.69,7.91,33.26l13.74,3.37,13.75,3.38c2.49-8.37,17.89-22,22.41-25.82.4-.32.79-.64,1.17-1l.09-.07h0A37.15,37.15,0,0,0,449,142.68Z" transform="translate(156 -18.59)"/><path d="M409.21,203.64l-26-6.4-.28-.1a3.66,3.66,0,0,0-1.19,1.92h0a3.69,3.69,0,0,0,.25,2.44,3.68,3.68,0,0,0-1.11,4.49,3.62,3.62,0,0,0-1.34,2,3.72,3.72,0,0,0,2.73,4.51l20.94,5.15a3.71,3.71,0,0,0,4.26-5.17,3.74,3.74,0,0,0,1.35-2.05,3.7,3.7,0,0,0-.25-2.44,3.71,3.71,0,0,0,1.35-2.05h0a3.72,3.72,0,0,0-.17-2.27A2.89,2.89,0,0,1,409.21,203.64Z" transform="translate(156 -18.59)"/><path d="M396.82,184.81a.42.42,0,0,1-.08-.35c2.35-10.48,7.17-34.92,7-46.34-2.67-1.51-3.6-3.47-3.65-4.7a1.88,1.88,0,0,1,1.53-2.13,1.72,1.72,0,0,1,1.6.56c.83.89,1.24,2.93,1.32,5.73a19.3,19.3,0,0,0,7.43,1.83,16.85,16.85,0,0,0,4.33-.2c2.79-6.13,5.61-10.21,8.11-9.76a2.2,2.2,0,0,1,1.74,2.7c-.31,2.45-3.39,6.6-9.3,7.82-1.47,3.32-3.15,7.74-5.07,13.58-4,12.27-7.54,26.13-9,32.39a.43.43,0,0,1-.83-.19c.09-.41,6.81-29.39,13.92-45.61a19.23,19.23,0,0,1-4,.12,20.79,20.79,0,0,1-7.34-1.71c.1,14.18-6.67,44.52-7,46.09a.43.43,0,0,1-.51.33A.45.45,0,0,1,396.82,184.81Zm5.92-52.27-.1-.11a.9.9,0,0,0-.86-.3c-.54.08-.84.55-.81,1.26,0,1.09.88,2.52,2.78,3.72C403.65,134.91,403.34,133.31,402.74,132.54Zm22.34-1.82a1.27,1.27,0,0,0-.79-.43c-1.18-.22-3.42,1-7,8.72,5.1-1.26,7.75-4.82,8-7A1.86,1.86,0,0,0,425.08,130.72Z" transform="translate(156 -18.59)"/><rect x="390.24" y="175.46" width="15.61" height="34.69" rx="2.94" transform="translate(271.87 514.8) rotate(-76.2)"/><path class="cls-49" d="M436.39,140.52c-5.33,4.19-14.67,1.19-20.88-6.69s-6.91-17.68-1.59-21.87,14.68-1.19,20.88,6.69S441.72,136.33,436.39,140.52Z" transform="translate(156 -18.59)"/><path d="M385.37,202.29a187.09,187.09,0,0,1,18.69,4.55,187.76,187.76,0,0,1-18.69-4.55Z" transform="translate(156 -18.59)"/><path d="M385.19,206.34a175.43,175.43,0,0,1,17.86,4.92,174.72,174.72,0,0,1-17.86-4.92Z" transform="translate(156 -18.59)"/></g><path class="cls-50" d="M381.45,211.78a6.81,6.81,0,0,0,12.9,3.17Z" transform="translate(156 -18.59)"/><path class="cls-27" d="M444.34,141a37.39,37.39,0,1,0-71.22,4.44h0l0,.1c.19.47.38.95.58,1.41,2.22,5.51,9.58,24.7,7.91,33.27l13.74,3.37,13.75,3.38c2.49-8.37,17.9-22,22.42-25.82l1.16-1,.09-.07h0A37.24,37.24,0,0,0,444.34,141Z" transform="translate(156 -18.59)"/><path class="cls-34" d="M404.54,201.91l-26.06-6.39-.28-.11a3.69,3.69,0,0,0-1.19,1.93h0a3.7,3.7,0,0,0,.25,2.44,3.71,3.71,0,0,0-1.35,2.05,3.67,3.67,0,0,0,.25,2.43,3.71,3.71,0,0,0,1.38,6.56L398.48,216a3.71,3.71,0,0,0,4.26-5.17,3.64,3.64,0,0,0,1.1-4.48,3.69,3.69,0,0,0,1.35-2.05h0A3.75,3.75,0,0,0,405,202,2,2,0,0,1,404.54,201.91Z" transform="translate(156 -18.59)"/><path class="cls-9" d="M392.15,183.09a.42.42,0,0,1-.08-.36c2.35-10.47,7.16-34.91,7-46.33-2.67-1.52-3.61-3.47-3.66-4.7a1.9,1.9,0,0,1,1.53-2.14,1.78,1.78,0,0,1,1.61.56c.82.9,1.23,2.94,1.32,5.74a19.2,19.2,0,0,0,7.42,1.83,17.39,17.39,0,0,0,4.34-.2c2.78-6.14,5.6-10.21,8.1-9.76a2.18,2.18,0,0,1,1.74,2.7c-.3,2.45-3.38,6.6-9.29,7.81-1.48,3.33-3.16,7.74-5.08,13.58-4,12.28-7.54,26.14-9,32.39a.43.43,0,0,1-.83-.19c.1-.41,6.81-29.38,13.93-45.61a18.53,18.53,0,0,1-4,.13,20.45,20.45,0,0,1-7.34-1.72c.09,14.18-6.67,44.53-7,46.1a.42.42,0,0,1-.5.32A.4.4,0,0,1,392.15,183.09Zm5.91-52.27-.1-.12a.94.94,0,0,0-.86-.3c-.54.09-.84.56-.81,1.26,0,1.1.88,2.52,2.78,3.72C399,133.19,398.66,131.59,398.06,130.82ZM420.4,129a1.25,1.25,0,0,0-.79-.44c-1.18-.21-3.42,1-7,8.72,5.1-1.26,7.75-4.81,8-6.95A1.8,1.8,0,0,0,420.4,129Z" transform="translate(156 -18.59)"/><rect class="cls-50" x="385.57" y="173.74" width="15.61" height="34.69" rx="2.94" transform="translate(269.98 508.95) rotate(-76.2)"/><path class="cls-51" d="M431.71,138.79C426.39,143,417,140,410.83,132.1s-6.91-17.67-1.59-21.86,14.68-1.2,20.88,6.69S437,134.6,431.71,138.79Z" transform="translate(156 -18.59)"/><path class="cls-52" d="M380.69,200.56a188,188,0,0,1,18.7,4.56,188,188,0,0,1-18.7-4.56Z" transform="translate(156 -18.59)"/><path class="cls-52" d="M380.51,204.61a174.77,174.77,0,0,1,17.86,4.93,172.93,172.93,0,0,1-17.86-4.93Z" transform="translate(156 -18.59)"/><line class="cls-53" x1="528.59" y1="58.33" x2="538.67" y2="74.77"/><line class="cls-53" x1="545.3" y1="61.51" x2="547.25" y2="71.19"/><g class="cls-24"><rect x="140.97" y="126.9" width="204.88" height="164.8" rx="5.89" transform="translate(122.19 28.83) rotate(-10.41)"/><rect x="140.55" y="124.66" width="204.88" height="164.8" rx="5.89" transform="translate(122.59 28.71) rotate(-10.41)"/><path d="M324.15,109.91a4.45,4.45,0,0,1,4.37,3.65l27.64,150.51a4.46,4.46,0,0,1-3.57,5.19L162.66,304.14a4.56,4.56,0,0,1-.82.08,4.46,4.46,0,0,1-4.37-3.66L129.83,150.05a4.45,4.45,0,0,1,3.57-5.18L323.33,110a4.54,4.54,0,0,1,.82-.07m0-1.43a6.56,6.56,0,0,0-1.08.09L133.14,143.46a5.88,5.88,0,0,0-4.72,6.85l27.64,150.51a5.89,5.89,0,0,0,5.78,4.83,5.46,5.46,0,0,0,1.07-.1l189.94-34.88a5.89,5.89,0,0,0,4.72-6.86L329.93,113.3a5.88,5.88,0,0,0-5.78-4.82Z" transform="translate(156 -18.59)"/><path class="cls-54" d="M338.77,257l-163,30a4.39,4.39,0,0,1-5.1-3.52L147.78,159.12" transform="translate(156 -18.59)"/><rect x="178.58" y="227.68" width="11.57" height="51.4" rx="0.76" transform="matrix(0.98, -0.18, 0.18, 0.98, 113.26, 18.89)"/><rect x="198.83" y="210.15" width="11.57" height="65.09" rx="0.76" transform="translate(115.52 22.37) rotate(-10.41)"/><rect x="216.94" y="166.8" width="11.57" height="104.79" rx="0.76" transform="translate(120.07 25.25) rotate(-10.41)"/><rect x="244.43" y="226.45" width="11.57" height="40.63" rx="0.76" transform="translate(115.54 30.67) rotate(-10.41)"/><rect x="309.31" y="214.53" width="11.57" height="40.63" rx="0.76" transform="translate(118.76 42.2) rotate(-10.41)"/><rect x="265.16" y="211.78" width="11.57" height="51.4" rx="0.76" transform="translate(117.56 34.26) rotate(-10.41)"/><rect x="284.28" y="179.57" width="11.57" height="79.86" rx="0.76" transform="translate(121.12 37.42) rotate(-10.41)"/><path class="cls-54" d="M145.6,151.84c-2.65.49-5.91-5.2-7.29-12.71s-.35-14,2.3-14.46,5.91,5.2,7.28,12.7c.12.63.22,1.25.3,1.85" transform="translate(156 -18.59)"/><path class="cls-54" d="M162.71,148.7c-2.16.39-5-5.37-6.41-12.87s-.74-13.91,1.42-14.31,5,5.37,6.42,12.87c.11.63.21,1.24.3,1.85" transform="translate(156 -18.59)"/><path class="cls-54" d="M179.68,145.58c-1.76.32-4.31-5.5-5.69-13s-1.06-13.85.7-14.17,4.32,5.49,5.69,13c.12.62.22,1.24.31,1.84" transform="translate(156 -18.59)"/><path class="cls-54" d="M197,142.39c-.89.17-2.72-5.78-4.1-13.29s-1.78-13.72-.89-13.88,2.71,5.79,4.09,13.29c.11.63.22,1.25.32,1.85" transform="translate(156 -18.59)"/><path class="cls-54" d="M216.35,138.85c-.45.08-1.92-5.94-3.3-13.44s-2.14-13.66-1.7-13.74,1.92,5.94,3.3,13.44c.11.63.22,1.24.33,1.85" transform="translate(156 -18.59)"/><path class="cls-54" d="M317.49,120.27c2.65-.49,3.68-7,2.3-14.47s-4.64-13.19-7.29-12.7-3.67,7-2.29,14.46c.11.63.24,1.24.38,1.84" transform="translate(156 -18.59)"/><path class="cls-54" d="M300.38,123.41c2.16-.4,2.8-6.8,1.42-14.3s-4.25-13.27-6.41-12.87-2.81,6.8-1.43,14.31c.12.62.24,1.23.38,1.83" transform="translate(156 -18.59)"/><path class="cls-54" d="M283.41,126.53c1.76-.33,2.08-6.67.7-14.17s-3.93-13.33-5.69-13-2.08,6.67-.7,14.17c.11.62.23,1.24.36,1.84" transform="translate(156 -18.59)"/><path class="cls-54" d="M266.06,129.71c.89-.16.49-6.37-.89-13.88s-3.21-13.45-4.1-13.29-.48,6.38.9,13.88c.12.63.23,1.24.35,1.84" transform="translate(156 -18.59)"/><path class="cls-54" d="M246.75,133.26c.44-.08-.32-6.23-1.7-13.73s-2.85-13.52-3.29-13.44.31,6.23,1.69,13.73c.12.63.23,1.24.35,1.85" transform="translate(156 -18.59)"/><path class="cls-54" d="M231.7,136l-2.5-13.59c-1.38-7.5-2.49-13.59-2.49-13.59s1.11,6.09,2.49,13.59c.12.63.23,1.24.34,1.84" transform="translate(156 -18.59)"/></g><rect class="cls-31" x="134.84" y="124.65" width="204.88" height="164.8" rx="5.89" transform="translate(122.5 27.68) rotate(-10.41)"/><rect class="cls-9" x="134.43" y="122.4" width="204.88" height="164.8" rx="5.89" transform="translate(122.9 27.57) rotate(-10.41)"/><path class="cls-32" d="M318,107.65a4.44,4.44,0,0,1,4.37,3.65L350,261.81a4.46,4.46,0,0,1-3.58,5.19L156.53,301.88a4.42,4.42,0,0,1-5.19-3.57L123.7,147.8a4.46,4.46,0,0,1,3.58-5.19l189.93-34.88a4.45,4.45,0,0,1,.81-.08m0-1.43a5.61,5.61,0,0,0-1.07.1L127,141.2a5.89,5.89,0,0,0-4.73,6.86l27.64,150.51a5.9,5.9,0,0,0,5.79,4.82,5.61,5.61,0,0,0,1.07-.1l189.93-34.88a5.9,5.9,0,0,0,4.73-6.86L323.8,111a5.89,5.89,0,0,0-5.78-4.82Z" transform="translate(156 -18.59)"/><path class="cls-55" d="M332.64,254.77l-163,30a4.37,4.37,0,0,1-5.09-3.51L141.66,156.86" transform="translate(156 -18.59)"/><rect class="cls-32" x="172.46" y="225.42" width="11.57" height="51.4" rx="0.76" transform="translate(113.57 17.74) rotate(-10.41)"/><rect class="cls-31" x="192.7" y="207.9" width="11.57" height="65.09" rx="0.76" transform="translate(115.83 21.22) rotate(-10.41)"/><rect class="cls-32" x="210.82" y="164.54" width="11.57" height="104.79" rx="0.76" transform="translate(120.38 24.11) rotate(-10.41)"/><rect class="cls-31" x="238.31" y="224.19" width="11.57" height="40.63" rx="0.76" transform="translate(115.85 29.53) rotate(-10.41)"/><rect class="cls-32" x="303.19" y="212.28" width="11.57" height="40.63" rx="0.76" transform="translate(119.07 41.05) rotate(-10.41)"/><rect class="cls-32" x="259.03" y="209.52" width="11.57" height="51.4" rx="0.76" transform="translate(117.87 33.12) rotate(-10.41)"/><rect class="cls-31" x="278.16" y="177.31" width="11.57" height="79.86" rx="0.76" transform="translate(121.43 36.28) rotate(-10.41)"/><path class="cls-55" d="M139.47,149.58c-2.64.49-5.9-5.2-7.28-12.7s-.35-14,2.29-14.47,5.91,5.2,7.29,12.71c.11.62.21,1.24.29,1.85" transform="translate(156 -18.59)"/><path class="cls-55" d="M156.59,146.44c-2.17.4-5-5.36-6.42-12.87s-.74-13.91,1.43-14.3,5,5.36,6.41,12.86c.12.63.22,1.25.31,1.85" transform="translate(156 -18.59)"/><path class="cls-55" d="M173.56,143.32c-1.77.33-4.32-5.49-5.7-13s-1.06-13.85.71-14.17,4.31,5.5,5.69,13c.11.62.22,1.24.31,1.85" transform="translate(156 -18.59)"/><path class="cls-55" d="M190.9,140.14c-.88.16-2.71-5.79-4.09-13.3s-1.78-13.71-.9-13.88,2.72,5.79,4.09,13.3c.12.62.23,1.24.33,1.84" transform="translate(156 -18.59)"/><path class="cls-56" d="M210.22,136.59c-.44.08-1.92-5.94-3.3-13.44s-2.13-13.65-1.69-13.73,1.92,5.93,3.29,13.44c.12.62.23,1.24.33,1.84" transform="translate(156 -18.59)"/><path class="cls-56" d="M311.37,118c2.64-.48,3.67-7,2.29-14.46s-4.64-13.2-7.28-12.71-3.68,7-2.3,14.47c.12.62.24,1.23.38,1.83" transform="translate(156 -18.59)"/><path class="cls-56" d="M294.25,121.16c2.17-.4,2.81-6.81,1.43-14.31S291.43,93.58,289.26,94s-2.8,6.81-1.42,14.31c.11.62.24,1.24.37,1.84" transform="translate(156 -18.59)"/><path class="cls-56" d="M277.28,124.27c1.77-.32,2.08-6.67.7-14.17s-3.92-13.33-5.69-13-2.08,6.67-.7,14.17c.12.63.24,1.24.37,1.84" transform="translate(156 -18.59)"/><path class="cls-56" d="M259.94,127.46c.88-.16.48-6.38-.9-13.88s-3.21-13.46-4.09-13.3-.48,6.38.89,13.88c.12.63.24,1.24.36,1.85" transform="translate(156 -18.59)"/><path class="cls-56" d="M240.62,131c.44-.09-.32-6.23-1.7-13.74s-2.85-13.52-3.29-13.44.32,6.23,1.7,13.74c.11.62.23,1.24.34,1.84" transform="translate(156 -18.59)"/><path class="cls-56" d="M225.57,133.77l-2.5-13.59c-1.37-7.5-2.49-13.58-2.49-13.58s1.12,6.08,2.49,13.58c.12.63.23,1.24.34,1.85" transform="translate(156 -18.59)"/><g class="cls-24"><polygon points="581.48 332.69 577.33 346.08 567.5 356.99 554.62 362.52 385.65 210.35 412.52 180.52 581.48 332.69"/><rect x="322.41" y="175.44" width="14.69" height="233.26" transform="translate(48.05 323.06) rotate(-47.99)"/><path d="M229.65,228.94s12.16,4.17,8.52-9.46c0,0,18.64,7.4,9.83-10.91,0,0,10.58,1,8.52-9.46,0,0-28.93-.67-44.46-13l-2.05,8S229,213.24,229.65,228.94Z" transform="translate(156 -18.59)"/><path d="M228.3,194.27a51.82,51.82,0,0,1-16.24-8.18l-2.05,8s3,3,6.61,7.58C219.88,201.18,225.28,199.52,228.3,194.27Z" transform="translate(156 -18.59)"/></g><polygon class="cls-57" points="575.63 330.53 571.47 343.92 561.64 354.83 548.76 360.36 379.79 208.19 406.66 178.36 575.63 330.53"/><rect class="cls-50" x="316.55" y="173.28" width="14.69" height="233.26" transform="translate(47.71 317.99) rotate(-47.99)"/><path class="cls-58" d="M223.79,226.78s12.16,4.17,8.52-9.46c0,0,18.64,7.4,9.83-10.91,0,0,10.59,1,8.52-9.46,0,0-28.93-.67-44.45-13l-2.06,8S223.17,211.08,223.79,226.78Z" transform="translate(156 -18.59)"/><path class="cls-50" d="M222.44,192.11a51.77,51.77,0,0,1-16.23-8.18l-2.06,8a99.71,99.71,0,0,1,6.61,7.58C214,199,219.42,197.36,222.44,192.11Z" transform="translate(156 -18.59)"/><circle class="cls-59" cx="148.25" cy="132.1" r="44.64" transform="translate(113.79 57.35) rotate(-25.27)"/><path class="cls-59" d="M99.33,137.46s-.16,11.15,8.85,22.95" transform="translate(156 -18.59)"/><path class="cls-60" d="M128.67,135.5l17.05,10.82s10.82-15.58,18.2-26.72" transform="translate(156 -18.59)"/><ellipse class="cls-61" cx="413.83" cy="333.22" rx="39.71" ry="11.12"/><ellipse class="cls-61" cx="626.66" cy="355.46" rx="39.71" ry="11.12"/><rect class="cls-5" x="402.02" y="307.95" width="22.66" height="12.66"/><path class="cls-62" d="M232.71,246.15s3.39-13.61,22.39-13.61,43.26,14.23,41.3,33-5.73,23.83-5.73,23.83,11.29,3.23,10,8.89-9.33,5.33-9.33,5.33,11.95,2.65,10.81,9.45-5.62,12.21-19.59,11.06a94.41,94.41,0,0,1-26-6.29s-19.47,7.86-31.29,8.36-12.57-20.4,0-20.71c0,0-10.21.1-11.18-6.37s8.37-10.18,8.37-10.18-6.72-20.27-5.57-31.57S226.16,243.05,232.71,246.15Z" transform="translate(156 -18.59)"/><path class="cls-63" d="M222.31,278.89a66.16,66.16,0,0,0,3.26,16.3A21,21,0,0,0,229,301.7c2.23,2.56,6.44,4.16,10.95,5.15a94.25,94.25,0,0,0,34.8,0c4.5-1,8.71-2.59,11-5.15a21,21,0,0,0,3.38-6.51h0a67.83,67.83,0,0,0,3.44-19.56c.29-9.21-1.3-18.43-6.05-23.54-6.47-6.94-15.42-9.47-22.29-10.35l-.21,0a52.83,52.83,0,0,0-6.62-.41h-.65c-6.58.08-19.78,1.45-28.47,10.78C222.86,257.8,221.52,268.65,222.31,278.89Z" transform="translate(156 -18.59)"/><path class="cls-63" d="M289.43,284.26s3.69-5.53,8.67-3.5,4.14,9.68-.37,12.17-8.48.55-9.77-1.48S289.43,284.26,289.43,284.26Z" transform="translate(156 -18.59)"/><path class="cls-64" d="M293.37,284.13a8.12,8.12,0,0,0,.5,1.88,13.36,13.36,0,0,0,.81,1.71,12.66,12.66,0,0,0,1,1.58,8,8,0,0,0,1.34,1.4,7.77,7.77,0,0,0-.5-1.88,13.74,13.74,0,0,0-1.85-3.28A8.08,8.08,0,0,0,293.37,284.13Z" transform="translate(156 -18.59)"/><path class="cls-64" d="M298.5,285.57a8.26,8.26,0,0,0-1.88.5,13.36,13.36,0,0,0-1.71.81,14.33,14.33,0,0,0-1.58,1,7.74,7.74,0,0,0-1.4,1.35,8.27,8.27,0,0,0,1.88-.51,12.14,12.14,0,0,0,1.71-.81,12.29,12.29,0,0,0,1.58-1A8,8,0,0,0,298.5,285.57Z" transform="translate(156 -18.59)"/><path class="cls-63" d="M225.38,284.26s-3.68-5.53-8.66-3.5-4.15,9.68.37,12.17,8.48.55,9.77-1.48S225.38,284.26,225.38,284.26Z" transform="translate(156 -18.59)"/><path class="cls-64" d="M221.45,284.13a8.54,8.54,0,0,0-1.35,1.41,13.89,13.89,0,0,0-1,1.58,12.63,12.63,0,0,0-.81,1.7,8.26,8.26,0,0,0-.5,1.88,8.48,8.48,0,0,0,1.35-1.4,13.89,13.89,0,0,0,1-1.58,13.3,13.3,0,0,0,.8-1.71A8.13,8.13,0,0,0,221.45,284.13Z" transform="translate(156 -18.59)"/><path class="cls-64" d="M216.31,285.57a8.08,8.08,0,0,0,1.41,1.34,11.64,11.64,0,0,0,1.58,1,11.17,11.17,0,0,0,1.71.81,8,8,0,0,0,1.88.51,7.79,7.79,0,0,0-1.41-1.35,12.66,12.66,0,0,0-1.58-1,13.36,13.36,0,0,0-1.71-.81A8,8,0,0,0,216.31,285.57Z" transform="translate(156 -18.59)"/><rect class="cls-62" x="276.11" y="260.3" width="5.78" height="12.61" rx="1.93" transform="translate(113.7 461.75) rotate(-77.33)"/><rect class="cls-65" x="276.11" y="260.3" width="5.78" height="12.61" rx="1.93" transform="translate(113.7 461.75) rotate(-77.33)"/><rect class="cls-62" x="229.31" y="263.72" width="12.61" height="5.78" rx="1.93" transform="translate(103.27 39.58) rotate(-12.67)"/><rect class="cls-65" x="229.31" y="263.72" width="12.61" height="5.78" rx="1.93" transform="translate(103.27 39.58) rotate(-12.67)"/><path class="cls-8" d="M272.42,300.77a9.15,9.15,0,0,0,2.29,6.08c4.5-1,8.71-2.59,11-5.15a21,21,0,0,0,3.38-6.51h0a9.25,9.25,0,0,0-16.62,5.59Z" transform="translate(156 -18.59)"/><path class="cls-8" d="M225.57,295.19A21,21,0,0,0,229,301.7c2.23,2.56,6.44,4.16,10.95,5.15a9.25,9.25,0,1,0-14.34-11.66Z" transform="translate(156 -18.59)"/><circle class="cls-9" cx="431.22" cy="264.3" r="9.25"/><path class="cls-11" d="M266.43,280s2.46-6.35,8.61-6.35c4.7,0,9.43,3.75,9.43,8.89,0,0,3.38,1.35,3.77-.23s-3-1.85-3-2.67c0-1.05,4-.81,3.15-2.8-.58-1.33-3.44.08-4.16-.49a11.83,11.83,0,0,0-9-4C268.55,272.37,266.43,280,266.43,280Z" transform="translate(156 -18.59)"/><circle class="cls-66" cx="431.22" cy="264.47" r="6.82"/><circle class="cls-62" cx="431.22" cy="264.47" r="5.41"/><path class="cls-9" d="M268.73,279.51a3.56,3.56,0,1,0,3.55-3.55A3.55,3.55,0,0,0,268.73,279.51Z" transform="translate(156 -18.59)"/><circle class="cls-9" cx="395.5" cy="264.3" r="9.25"/><path class="cls-11" d="M248.29,280s-2.46-6.35-8.62-6.35c-4.7,0-9.42,3.75-9.42,8.89,0,0-3.39,1.35-3.78-.23s3-1.85,3-2.67c0-1.05-4-.81-3.16-2.8.59-1.33,3.45.08,4.17-.49a11.83,11.83,0,0,1,9-4C246.17,272.37,248.29,280,248.29,280Z" transform="translate(156 -18.59)"/><circle class="cls-66" cx="395.5" cy="264.47" r="6.82"/><circle class="cls-62" cx="395.5" cy="264.47" r="5.41"/><path class="cls-9" d="M233,279.51a3.55,3.55,0,1,0,3.55-3.55A3.55,3.55,0,0,0,233,279.51Z" transform="translate(156 -18.59)"/><path class="cls-11" d="M252.62,289.75a4.45,4.45,0,0,0,7.84,0,7.63,7.63,0,0,0,1-3.92c-.16-.57-3.08-.93-4.88-.93s-4.73.36-4.88.93A7.42,7.42,0,0,0,252.62,289.75Z" transform="translate(156 -18.59)"/><path class="cls-12" d="M252.62,289.75a4.45,4.45,0,0,0,7.84,0,4.6,4.6,0,0,0-7.84,0Z" transform="translate(156 -18.59)"/><path class="cls-63" d="M254.94,311.15a3.29,3.29,0,0,0,2.37,1,3.42,3.42,0,0,0,2.36-1l-.46-4.73h-3.7Z" transform="translate(156 -18.59)"/><path class="cls-63" d="M254.41,311.31c-1.19-2-11.87,1-19.93,4.8,0,0-3.09-1.42-3.67-1s1.5,3.23,1.5,3.23-3.41,1.45-3.31,1.9,1.61.88,3.47.73c0,0-2.36,2.78-1.88,3.28.33.34,3.24-.82,3.24-.82s-.55,2.24,0,2.38,3.86-3.47,3.86-3.47S256.05,314.06,254.41,311.31Z" transform="translate(156 -18.59)"/><path class="cls-63" d="M260.53,311.21c1.3-1.95,11.81,1.59,19.67,5.79,0,0,3.16-1.27,3.71-.84s-1.65,3.16-1.65,3.16,3.33,1.61,3.21,2.06-1.66.79-3.5.55c0,0,2.22,2.89,1.71,3.37-.34.32-3.19-1-3.19-1s.44,2.26-.11,2.38S276.7,323,276.7,323,258.76,313.88,260.53,311.21Z" transform="translate(156 -18.59)"/><path class="cls-63" d="M247,327.19h20.55s-3.29-16.66-4.28-16.95a19.17,19.17,0,0,0-12,0C250.32,310.53,247,327.19,247,327.19Z" transform="translate(156 -18.59)"/><polygon class="cls-63" points="410.38 309.19 402.42 328.78 405.02 333.35 391.36 326.84 404.19 306.24 410.38 309.19"/><polygon class="cls-63" points="415.68 308.84 416.33 329.97 412.3 333.35 427.37 332 422.5 308.22 415.68 308.84"/><polygon class="cls-4" points="421.91 302.06 427.11 321.49 397.91 319.62 404.15 302.06 421.91 302.06"/><polygon class="cls-67" points="427.11 323.89 414.7 324.57 415.58 329.83 411.87 333.49 427.37 332.14 427.11 323.89"/><path class="cls-9" d="M259.61,346l4.17-.34a.61.61,0,0,0,.56-.66h0a.61.61,0,0,0-.66-.55l-4.17.34a.61.61,0,0,0-.55.66h0A.6.6,0,0,0,259.61,346Z" transform="translate(156 -18.59)"/><path class="cls-9" d="M259.9,347.89l4.17-.34a.61.61,0,0,0,.55-.66h0a.6.6,0,0,0-.65-.55l-4.17.34a.61.61,0,0,0-.56.66h0A.61.61,0,0,0,259.9,347.89Z" transform="translate(156 -18.59)"/><polygon class="cls-67" points="394.39 319.01 405.71 324.14 402.99 328.72 405.12 333.48 391.16 326.61 394.39 319.01"/><path class="cls-9" d="M247.82,345.06l-3.76-1.83a.61.61,0,0,1-.28-.81h0a.6.6,0,0,1,.81-.28l3.77,1.83a.61.61,0,0,1,.28.81h0A.61.61,0,0,1,247.82,345.06Z" transform="translate(156 -18.59)"/><path class="cls-9" d="M246.88,346.71l-3.76-1.83a.61.61,0,0,1-.28-.81h0a.6.6,0,0,1,.81-.28l3.76,1.83a.6.6,0,0,1,.28.81h0A.6.6,0,0,1,246.88,346.71Z" transform="translate(156 -18.59)"/><path class="cls-68" d="M248.75,317.71,245,327.14l24.74.88-9.65-18.57s-.43,3.34-2.75,3.34-2.76-3.34-2.76-3.34Z" transform="translate(156 -18.59)"/><path class="cls-62" d="M293.91,274.49s-13.33-2.6-17.55-6.77-5.19-6.66-5.19-6.66.42,8.49-7.34,10.36-17-.46-24.79-6.18l-7.74-5.73s-4.33,10.92-11.36,15l2.54-12.32a23.38,23.38,0,0,1,11.72-15.81l8.64-4.7a17.58,17.58,0,0,1,8.75-2.14l13,.23a23.19,23.19,0,0,1,12.27,3.78l4.36,2.86A24.59,24.59,0,0,1,292,263Z" transform="translate(156 -18.59)"/><path class="cls-17" d="M236.47,313.94l2.47,10.19a76.42,76.42,0,0,0,7.29-4.8c-.32.28-.36.85-.56,1.33-2.11,5.12-5.23,14.23-6.85,18.82l10.75,1.34c.18-1.48,6-30.28,4.1-31.38C251,309.9,238.83,313.53,236.47,313.94Z" transform="translate(156 -18.59)"/><polygon class="cls-18" points="408.22 297.74 406.4 299.28 408.81 303.12 409.55 299.03 408.22 297.74"/><path class="cls-18" d="M255.15,309.26l-1.72,8.94-3.37-3.07,3-5.6A4,4,0,0,1,255.15,309.26Z" transform="translate(156 -18.59)"/><rect class="cls-18" x="245.87" y="324.79" width="0.93" height="5.39" transform="translate(48.83 516.18) rotate(-83.44)"/><path class="cls-17" d="M278.11,313.94l-2.47,10.19a78.12,78.12,0,0,1-7.3-4.8c.33.28.37.85.57,1.33,2.11,5.12,5.23,14.23,6.85,18.82L265,340.82c-.19-1.48-6-30.28-4.1-31.38C263.55,309.9,275.75,313.53,278.11,313.94Z" transform="translate(156 -18.59)"/><polygon class="cls-18" points="418.35 297.74 420.18 299.28 417.76 303.12 417.03 299.03 418.35 297.74"/><path class="cls-18" d="M259.42,309.26l1.72,8.94,3.38-3.07-3-5.6A4,4,0,0,0,259.42,309.26Z" transform="translate(156 -18.59)"/><rect class="cls-18" x="265.55" y="327.03" width="5.39" height="0.93" transform="translate(120.32 14.23) rotate(-6.56)"/><path class="cls-69" d="M243.29,305.55,226,309.17l4.62,22,17.27-3.62Z" transform="translate(156 -18.59)"/><rect class="cls-6" x="230.57" y="311.71" width="9.18" height="1.69" transform="translate(96.85 36.34) rotate(-11.84)"/><rect class="cls-70" x="230.22" y="310.67" width="4.88" height="0.84" transform="translate(97.1 35.79) rotate(-11.84)"/><rect class="cls-70" x="235.11" y="327.28" width="6.44" height="0.85" transform="translate(93.81 37.31) rotate(-11.84)"/><rect class="cls-70" x="231.1" y="314.73" width="7.63" height="0.84" transform="translate(96.31 36.34) rotate(-11.84)"/><rect class="cls-70" x="231.4" y="316.16" width="7.63" height="0.85" transform="translate(96.03 36.43) rotate(-11.84)"/><path class="cls-71" d="M243.29,305.55l-1.49.31,4.62,22,1.48-.31Z" transform="translate(156 -18.59)"/><path class="cls-63" d="M228.27,319.21a8.46,8.46,0,0,1,4.79-1.59.7.7,0,0,1,.67.92,9.15,9.15,0,0,1-1.94,2.82s2-.66,2.6.61c0,0,.13,1.22-2,2.29,0,0,1.94,0,2.45.84,0,0,0,2.49-3.75,2.84-2.61.23-3.78-.81-3.67-2.22s.14-.72-.21-3.28A3.8,3.8,0,0,1,228.27,319.21Z" transform="translate(156 -18.59)"/><rect class="cls-5" x="618.03" y="333.7" width="12.67" height="11.86"/><polygon class="cls-72" points="634.77 333.76 635.84 353.31 639.82 356.11 625.81 356.06 628.42 333.73 634.77 333.76"/><polygon class="cls-72" points="615.8 333.76 614.73 353.31 610.74 356.11 624.75 356.06 622.15 333.73 615.8 333.76"/><polygon class="cls-67" points="624.76 356.06 610.75 356.06 614.73 353.31 624.43 353.31 624.54 354.19 624.76 356.06"/><path class="cls-9" d="M459,372.8l-1.1-.29a.43.43,0,0,0-.22.84l1.1.29a.44.44,0,0,0,.53-.31A.43.43,0,0,0,459,372.8Z" transform="translate(156 -18.59)"/><path class="cls-9" d="M459.84,371.93l-1.1-.29a.43.43,0,1,0-.22.84l1.1.29a.43.43,0,0,0,.22-.84Z" transform="translate(156 -18.59)"/><path class="cls-9" d="M468.76,374.65h-3.11a3,3,0,0,1,2.89-1.87Z" transform="translate(156 -18.59)"/><rect class="cls-11" x="610.06" y="356.06" width="15.38" height="1.78" rx="0.82"/><polygon class="cls-67" points="625.81 356.06 639.82 356.06 635.84 353.31 626.13 353.31 626.03 354.19 625.81 356.06"/><path class="cls-9" d="M479.6,372.8l1.1-.29a.43.43,0,0,1,.21.84l-1.09.29a.44.44,0,0,1-.53-.31A.43.43,0,0,1,479.6,372.8Z" transform="translate(156 -18.59)"/><path class="cls-9" d="M478.73,371.93l1.1-.29a.43.43,0,1,1,.22.84l-1.1.29a.43.43,0,0,1-.22-.84Z" transform="translate(156 -18.59)"/><path class="cls-9" d="M469.81,374.65h3.11a3,3,0,0,0-2.89-1.87Z" transform="translate(156 -18.59)"/><rect class="cls-11" x="625.13" y="356.06" width="15.38" height="1.78" rx="0.82"/><path class="cls-72" d="M471.48,337.46a3,3,0,0,1-2.19.92,3.15,3.15,0,0,1-2.19-.92l.43-4.38H471Z" transform="translate(156 -18.59)"/><path class="cls-72" d="M501.7,307.59a61.18,61.18,0,0,1-3,15.09,19.22,19.22,0,0,1-3.14,6c-2.07,2.37-6,3.86-10.14,4.78a87.31,87.31,0,0,1-32.23,0c-4.17-.92-8.07-2.41-10.14-4.78a19.44,19.44,0,0,1-3.13-6h0a62.41,62.41,0,0,1-3.19-18.11c-.27-8.53,1.2-17.07,5.61-21.8,6-6.43,14.27-8.77,20.64-9.59l.2,0a50,50,0,0,1,6.13-.38h.6c6.09.07,18.31,1.34,26.37,10C501.19,288.05,502.43,298.1,501.7,307.59Z" transform="translate(156 -18.59)"/><path class="cls-72" d="M439.53,312.56s-3.41-5.12-8-3.24-3.84,9,.34,11.27,7.86.51,9-1.37S439.53,312.56,439.53,312.56Z" transform="translate(156 -18.59)"/><path class="cls-73" d="M435.89,312.44a7.56,7.56,0,0,1-.47,1.74,12,12,0,0,1-.74,1.58,12.87,12.87,0,0,1-1,1.47,7.58,7.58,0,0,1-1.24,1.3,7,7,0,0,1,.46-1.74,12.83,12.83,0,0,1,.75-1.59,13.69,13.69,0,0,1,1-1.46A7.58,7.58,0,0,1,435.89,312.44Z" transform="translate(156 -18.59)"/><path class="cls-73" d="M431.13,313.77a7.64,7.64,0,0,1,1.75.47,12,12,0,0,1,1.58.75,11.47,11.47,0,0,1,1.46,1,7.28,7.28,0,0,1,1.3,1.25,7.56,7.56,0,0,1-1.74-.47,11.42,11.42,0,0,1-1.58-.75,10.81,10.81,0,0,1-1.46-1A8.11,8.11,0,0,1,431.13,313.77Z" transform="translate(156 -18.59)"/><path class="cls-72" d="M498.85,312.56s3.42-5.12,8-3.24,3.84,9-.34,11.27-7.86.51-9.05-1.37S498.85,312.56,498.85,312.56Z" transform="translate(156 -18.59)"/><path class="cls-73" d="M502.5,312.44a7.58,7.58,0,0,1,1.24,1.3,13.69,13.69,0,0,1,1,1.46,12.83,12.83,0,0,1,.75,1.59,7.41,7.41,0,0,1,.46,1.74,7.58,7.58,0,0,1-1.24-1.3,12.87,12.87,0,0,1-1-1.47,13.49,13.49,0,0,1-.75-1.58A8.09,8.09,0,0,1,502.5,312.44Z" transform="translate(156 -18.59)"/><path class="cls-73" d="M507.25,313.77A8.05,8.05,0,0,1,506,315a10.81,10.81,0,0,1-1.46,1,11.42,11.42,0,0,1-1.58.75,7.56,7.56,0,0,1-1.74.47,7.28,7.28,0,0,1,1.3-1.25,10.81,10.81,0,0,1,1.46-1,11.42,11.42,0,0,1,1.58-.75A7.7,7.7,0,0,1,507.25,313.77Z" transform="translate(156 -18.59)"/><path class="cls-8" d="M455.29,327.85a8.54,8.54,0,0,1-2.12,5.64c-4.17-.92-8.07-2.41-10.14-4.78a19.44,19.44,0,0,1-3.13-6h0a8.57,8.57,0,0,1,15.39,5.18Z" transform="translate(156 -18.59)"/><path class="cls-8" d="M498.68,322.68a19.22,19.22,0,0,1-3.14,6c-2.07,2.37-6,3.86-10.14,4.78a8.57,8.57,0,1,1,13.28-10.81Z" transform="translate(156 -18.59)"/><circle class="cls-9" cx="608.7" cy="292.7" r="8.57"/><circle class="cls-74" cx="608.7" cy="292.86" r="6.32"/><circle class="cls-11" cx="608.7" cy="292.86" r="5.01"/><path class="cls-9" d="M458.71,308.16a3.29,3.29,0,1,1-3.29-3.29A3.29,3.29,0,0,1,458.71,308.16Z" transform="translate(156 -18.59)"/><circle class="cls-9" cx="641.78" cy="292.7" r="8.57"/><circle class="cls-74" cx="641.78" cy="292.86" r="6.32"/><circle class="cls-11" cx="641.78" cy="292.86" r="5.01"/><path class="cls-9" d="M491.79,308.16a3.29,3.29,0,1,1-3.29-3.29A3.29,3.29,0,0,1,491.79,308.16Z" transform="translate(156 -18.59)"/><path class="cls-11" d="M465.2,319.5a4.34,4.34,0,0,0,8.18,0c.42-1.13-1.39-1.62-1.81-.5,0-.12-.31.55-.46.74a2.39,2.39,0,0,1-1.82.87A2.53,2.53,0,0,1,467,319c-.39-1.13-2.21-.65-1.81.5Z" transform="translate(156 -18.59)"/><rect class="cls-67" x="449.89" y="292.14" width="5.35" height="11.68" rx="1.79" transform="translate(249.13 684.88) rotate(-81.81)"/><rect class="cls-75" x="449.89" y="292.14" width="5.35" height="11.68" rx="1.79" transform="translate(248.73 684.53) rotate(-81.75)"/><rect class="cls-67" x="480.17" y="295.31" width="11.68" height="5.35" rx="1.79" transform="translate(118.5 53.71) rotate(-8.19)"/><rect class="cls-75" x="480.17" y="295.31" width="11.68" height="5.35" rx="1.79" transform="translate(118.28 54.22) rotate(-8.25)"/><path class="cls-72" d="M478.8,352.32h-19s3.05-15.43,4-15.7a17.72,17.72,0,0,1,11.09,0C475.75,336.89,478.8,352.32,478.8,352.32Z" transform="translate(156 -18.59)"/><polygon class="cls-76" points="615.77 331.33 612.95 353.4 624.97 353.23 624.38 337.17 626 337.17 625.58 353.22 637.83 353.35 634.8 331.33 615.77 331.33"/><path class="cls-72" d="M472.86,338.18c1.16-1.84,11,1.2,18.34,4.92,0,0,2.9-1.25,3.42-.86s-1.46,3-1.46,3,3.12,1.42,3,1.83-1.52.77-3.23.59c0,0,2.12,2.63,1.66,3.08s-3-.83-3-.83.46,2.08-.05,2.2-3.48-3.31-3.48-3.31S471.28,340.69,472.86,338.18Z" transform="translate(156 -18.59)"/><path class="cls-72" d="M465.23,338.13c-.2-2.15-10.32-3.89-18.58-3.92,0,0-2-2.42-2.66-2.31s0,3.3,0,3.3-3.43-.15-3.52.26,1,1.38,2.61,2c0,0-3.08,1.38-2.88,2,.14.41,3,.61,3,.61s-1.35,1.65-.95,2,4.6-1.37,4.6-1.37S465.5,341.09,465.23,338.13Z" transform="translate(156 -18.59)"/><path class="cls-77" d="M477.6,344l.64,2.13.8,2.72.25.81.32,1.08.32,1.09H458.57l.34-1.09.35-1.08.26-.81.86-2.72,1.37-4.26,5.14-6.16s.4,3.09,2.55,3.09,2.55-3.09,2.55-3.09Z" transform="translate(156 -18.59)"/><path class="cls-17" d="M464.11,365.16l-10.28-.2L457.55,351l.34-1.08.27-.82.86-2.71,1.36-4.27-7.52.86-1.1.12-2.61.3.69-9.31,2.57.31,1.08.13,12,1.43a4.69,4.69,0,0,0,1.24,2.61C467.11,338.87,464.11,365.16,464.11,365.16Z" transform="translate(156 -18.59)"/><path class="cls-17" d="M489.42,340.76l-3.28,8.44-1.78-1.13-.94-.6-4.87-3.11.63,2.13.81,2.71.24.82.32,1.08L484,364.82l-10.41,0s-1.93-26.07-1.56-26.53a5.3,5.3,0,0,0,.91-2.26l13.18,3.77,1.05.29Z" transform="translate(156 -18.59)"/><polygon class="cls-18" points="621.05 324.01 619.42 325.63 622.03 329.13 622.41 325.14 621.05 324.01"/><path class="cls-18" d="M467.31,335.59l-1,8.71-3.47-2.69L465.3,336A3.93,3.93,0,0,1,467.31,335.59Z" transform="translate(156 -18.59)"/><polygon class="cls-18" points="629.56 324.22 631.13 325.89 628.4 329.3 628.15 325.31 629.56 324.22"/><path class="cls-18" d="M471.54,335.73l.66,8.74,3.56-2.57-2.23-5.68A4,4,0,0,0,471.54,335.73Z" transform="translate(156 -18.59)"/><rect class="cls-18" x="613.32" y="335.11" width="5.19" height="0.89"/><rect class="cls-18" x="631.31" y="335.11" width="5.19" height="0.89"/><path class="cls-67" d="M437.17,310.3a18.32,18.32,0,0,1,.09-3.31c.77-6.19,4.3-25.62,18.11-21.68,4.47,1.27,6.91,4.65,10.44,4.64,9.39,0,17-6.71,19.88-10.43,3.94-5.12,15.77,4.23,15.36,29.82l0,.85s6.85-3.77,9-10.57c1.9-6.12.93-30.12-12.16-29.67-6.27.22-3.49-7.49-10.67-10.68-5-2.22-12.88-.44-15.41,5.79-1.84,4.54-17-3.34-28.19-2.16-6.38.67-10.89,6.34-10.87,12.75.05,15.89-9.25,8-12,19.3-1.09,4.52-.61,9.74,4.56,12.45a10.87,10.87,0,0,0,3.32,1c1.45.22,4,.6,7.08.94a4.59,4.59,0,0,1,1.51.92Z" transform="translate(156 -18.59)"/><path class="cls-78" d="M485.49,304.82c2.82-.11,8.6-.1,11.17,1.77s.94,9.62-2.28,12.11-10.66,2.46-14.67.74S474,311.05,475,308.62,477.18,305.15,485.49,304.82Z" transform="translate(156 -18.59)"/><path class="cls-78" d="M452.85,304.82c-2.82-.11-8.6-.41-11.17,1.46s-.94,9.93,2.28,12.42,10.66,2.46,14.67.74,5.68-8.39,4.74-10.82S461.16,305.15,452.85,304.82Z" transform="translate(156 -18.59)"/><path class="cls-70" d="M501.33,303.73a92,92,0,0,0-16.18-1.32c-3.35.23-13.34,1.32-13.34,1.32a38.55,38.55,0,0,1-5.48,0s-9.94-.95-13.27-1.16a93.55,93.55,0,0,0-16.18,1c-1.06.23-.91,3.08-.25,3.33,1.18.45,1.27,2.8,1.61,4.94.48,3,2.4,6.75,4,8,3.91,3.11,13,3.07,17.84.92,3.88-1.7,6-7.31,6.06-11.06a5.58,5.58,0,0,1,5.92,0c.18,3.75,2.25,9.18,6.05,10.85,4.88,2.14,13.93,2.5,17.84-.61,1.61-1.28,3.53-5,4-8,.34-2.14.43-4.49,1.61-4.94C502.25,306.81,502.39,304,501.33,303.73Zm-42.7,15.71c-4,1.72-11.45,1.75-14.67-.74s-4.84-10.56-2.28-12.42,8.36-1.57,11.17-1.46c8.31.33,9.58,1.37,10.52,3.8S462.64,317.72,458.63,319.44Zm35.75-.74c-3.22,2.49-10.66,2.46-14.67.74S474,311.05,475,308.62s2.21-3.47,10.52-3.8c2.82-.11,8.6-.1,11.17,1.77S497.6,316.21,494.38,318.7Z" transform="translate(156 -18.59)"/></g></g></g></g></svg>