<svg xmlns="http://www.w3.org/2000/svg" viewBox="0 0 227.6 227.6"><defs><style>.cls-1{isolation:isolate;}.cls-2{fill:#8ac440;}.cls-3{mix-blend-mode:multiply;opacity:0.15;}.cls-11,.cls-4{opacity:0.2;}.cls-12,.cls-5{opacity:0.3;}.cls-22,.cls-25,.cls-6{fill-rule:evenodd;}.cls-7{fill:#becccf;}.cls-11,.cls-8{fill:#754d29;}.cls-9{fill:#ffe0d4;}.cls-10{fill:#f7c3a1;}.cls-12{fill:#bd1621;}.cls-13{fill:#fff;}.cls-14{fill:#634e43;}.cls-15{fill:#bf7f51;}.cls-16{fill:#ff9ca7;}.cls-17{fill:#88c240;}.cls-18{fill:#221f1f;}.cls-19{fill:#d3db26;}.cls-20{fill:#e9f4fa;}.cls-21{fill:#cce5e8;}.cls-22{fill:#1b75b8;}.cls-23{fill:#f5e830;}.cls-24,.cls-25{fill:#2d368c;}</style></defs><g class="cls-1"><g id="Layer_2" data-name="Layer 2"><g id="Page_Detil" data-name="Page Detil"><circle class="cls-2" cx="113.8" cy="113.8" r="113.8"/><g class="cls-3"><rect x="103.35" y="166.06" width="31.92" height="17.83"/><path d="M84.61,52.83s4.77-19.16,31.53-19.16,60.93,20,58.16,46.4-8.07,33.57-8.07,33.57,15.91,4.55,14.07,12.51-13.14,7.51-13.14,7.51S184,137.39,182.37,147s-7.91,17.19-27.59,15.57a132.89,132.89,0,0,1-36.65-8.86S90.7,164.77,74.05,165.46s-17.7-28.72,0-29.16c0,0-14.37.13-15.74-9S70.09,113,70.09,113s-9.46-28.55-7.84-44.46S75.38,48.47,84.61,52.83Z"/><path d="M70,99a92.57,92.57,0,0,0,4.59,23,29.41,29.41,0,0,0,4.77,9.17c3.15,3.61,9.08,5.86,15.42,7.26a120.69,120.69,0,0,0,24.51,2.29,120.62,120.62,0,0,0,24.5-2.29c6.35-1.4,12.28-3.65,15.43-7.26a29.41,29.41,0,0,0,4.76-9.17h0a95.81,95.81,0,0,0,4.85-27.55c.4-13-1.83-26-8.53-33.15-9.1-9.78-21.71-13.34-31.39-14.59l-.3,0a77,77,0,0,0-9.32-.57h-.92c-9.26.11-27.85,2-40.1,15.18C70.73,69.24,68.84,84.52,70,99Z"/><path d="M164.49,106.51s5.2-7.79,12.21-4.93,5.84,13.63-.52,17.14-11.94.77-13.76-2.08S164.49,106.51,164.49,106.51Z"/><path d="M170,106.33a10.89,10.89,0,0,0,.71,2.65,18.78,18.78,0,0,0,1.13,2.4,19.07,19.07,0,0,0,1.47,2.23,11.72,11.72,0,0,0,1.89,2,11.35,11.35,0,0,0-.7-2.65,19.71,19.71,0,0,0-1.14-2.41,19,19,0,0,0-1.47-2.22A11,11,0,0,0,170,106.33Z"/><path d="M177.27,108.35a11.87,11.87,0,0,0-2.65.71,19.63,19.63,0,0,0-2.41,1.14,18.87,18.87,0,0,0-2.22,1.46,11.81,11.81,0,0,0-2,1.9,11.36,11.36,0,0,0,2.65-.71,18.27,18.27,0,0,0,2.41-1.14,18.87,18.87,0,0,0,2.22-1.46A11.81,11.81,0,0,0,177.27,108.35Z"/><path d="M74.28,106.51s-5.19-7.79-12.2-4.93-5.85,13.63.52,17.14,11.94.77,13.76-2.08S74.28,106.51,74.28,106.51Z"/><path d="M68.74,106.33a11.44,11.44,0,0,0-1.9,2,18.87,18.87,0,0,0-1.46,2.22,17.14,17.14,0,0,0-1.14,2.41,11.36,11.36,0,0,0-.71,2.65,12.2,12.2,0,0,0,1.9-2A19.55,19.55,0,0,0,68,109,11.87,11.87,0,0,0,68.74,106.33Z"/><path d="M61.5,108.35a11.86,11.86,0,0,0,2,1.9,18.87,18.87,0,0,0,2.22,1.46,17.57,17.57,0,0,0,2.4,1.14,11.36,11.36,0,0,0,2.65.71,11.44,11.44,0,0,0-2-1.9,18.87,18.87,0,0,0-2.22-1.46,18.34,18.34,0,0,0-2.41-1.14A11.87,11.87,0,0,0,61.5,108.35Z"/><rect x="145.73" y="72.76" width="8.14" height="17.77" rx="2.72" transform="translate(37.29 209.89) rotate(-77.33)"/><rect class="cls-4" x="145.73" y="72.76" width="8.14" height="17.77" rx="2.72" transform="translate(37.29 209.89) rotate(-77.33)"/><rect x="79.81" y="77.57" width="17.77" height="8.14" rx="2.72" transform="translate(-15.75 21.44) rotate(-12.67)"/><rect class="cls-4" x="79.81" y="77.57" width="17.77" height="8.14" rx="2.72" transform="translate(-15.75 21.44) rotate(-12.67)"/><path class="cls-5" d="M140.53,129.76a13,13,0,0,0,3.22,8.57c6.35-1.4,12.28-3.65,15.43-7.26a29.41,29.41,0,0,0,4.76-9.17h0a13,13,0,0,0-23.41,7.87Z"/><path class="cls-5" d="M74.55,121.9a29.41,29.41,0,0,0,4.77,9.17c3.15,3.61,9.08,5.86,15.42,7.26A13,13,0,1,0,74.55,121.9Z"/><circle cx="144.47" cy="104.57" r="13.03"/><path d="M132.1,100.51s3.45-8.94,12.13-8.94c6.62,0,13.27,5.28,13.27,12.51,0,0,4.77,1.91,5.32-.32.5-2.06-4.27-2.61-4.26-3.75,0-1.49,5.68-1.15,4.44-4-.82-1.88-4.85.1-5.86-.69s-4.56-5.61-12.67-5.61C135.08,89.76,132.1,100.51,132.1,100.51Z"/><circle cx="144.47" cy="104.82" r="9.61"/><circle cx="144.47" cy="104.82" r="7.63"/><path d="M135.34,99.82a5,5,0,1,0,5-5A5,5,0,0,0,135.34,99.82Z"/><circle cx="94.16" cy="104.57" r="13.03"/><path d="M106.54,100.51s-3.46-8.94-12.13-8.94c-6.62,0-13.28,5.28-13.28,12.51,0,0-4.76,1.91-5.31-.32-.51-2.06,4.27-2.61,4.26-3.75,0-1.49-5.68-1.15-4.45-4,.83-1.88,4.85.1,5.87-.69s4.56-5.61,12.66-5.61C103.56,89.76,106.54,100.51,106.54,100.51Z"/><circle cx="94.16" cy="104.82" r="9.61"/><circle cx="94.16" cy="104.82" r="7.63"/><path d="M85,99.82a5,5,0,1,0,5-5A5,5,0,0,0,85,99.82Z"/><path d="M112.64,114.24a6.27,6.27,0,0,0,11,0,10.61,10.61,0,0,0,1.36-5.53c-.22-.79-4.34-1.3-6.88-1.3s-6.66.51-6.87,1.3A10.46,10.46,0,0,0,112.64,114.24Z"/><path d="M112.64,114.24a6.27,6.27,0,0,0,11,0,6.49,6.49,0,0,0-11,0Z"/><path d="M115.92,144.38a4.59,4.59,0,0,0,3.33,1.39,4.78,4.78,0,0,0,3.32-1.39l-.65-6.66h-5.21Z"/><path d="M115.17,144.61c-1.69-2.83-16.72,1.4-28.07,6.77,0,0-4.36-2-5.17-1.44S84,154.49,84,154.49s-4.81,2-4.66,2.67,2.27,1.24,4.88,1c0,0-3.32,3.91-2.64,4.61.46.48,4.56-1.15,4.56-1.15s-.78,3.15,0,3.36,5.43-4.9,5.43-4.9S117.47,148.49,115.17,144.61Z"/><path d="M123.79,144.47c1.82-2.75,16.63,2.23,27.7,8.15,0,0,4.45-1.79,5.23-1.18s-2.33,4.45-2.33,4.45,4.7,2.27,4.52,2.9-2.33,1.12-4.93.78c0,0,3.12,4.07,2.41,4.74-.48.45-4.5-1.37-4.5-1.37s.62,3.18-.15,3.35-5.18-5.16-5.18-5.16S121.29,148.23,123.79,144.47Z"/><path d="M104.78,167h28.94s-4.64-23.47-6-23.87a26.62,26.62,0,0,0-16.86,0C109.41,143.51,104.78,167,104.78,167Z"/><polygon points="115.12 167.81 103.91 195.4 107.57 201.83 88.34 192.67 106.4 163.66 115.12 167.81"/><polygon points="122.58 167.31 123.5 197.07 117.83 201.83 139.05 199.93 132.2 166.44 122.58 167.31"/><polygon points="131.37 157.76 138.69 185.13 97.56 182.5 106.35 157.76 131.37 157.76"/><polygon points="138.69 188.51 121.21 189.46 122.44 196.87 117.22 202.03 139.05 200.13 138.69 188.51"/><path d="M122.5,193.49l5.87-.49a.85.85,0,0,0,.78-.92h0a.85.85,0,0,0-.92-.78l-5.88.48a.86.86,0,0,0-.78.93h0A.86.86,0,0,0,122.5,193.49Z"/><path d="M122.89,196.14l5.88-.49a.85.85,0,0,0,.78-.92h0a.85.85,0,0,0-.92-.78l-5.88.48a.86.86,0,0,0-.78.93h0A.85.85,0,0,0,122.89,196.14Z"/><polygon points="92.6 181.64 108.55 188.86 104.71 195.32 107.71 202.02 88.05 192.34 92.6 181.64"/><path d="M105.89,192.14l-5.3-2.58a.85.85,0,0,1-.39-1.14h0a.85.85,0,0,1,1.14-.39l5.3,2.58a.85.85,0,0,1,.39,1.14h0A.85.85,0,0,1,105.89,192.14Z"/><path d="M104.56,194.47l-5.3-2.58a.85.85,0,0,1-.39-1.14h0a.85.85,0,0,1,1.14-.4l5.3,2.58a.85.85,0,0,1,.39,1.14h0A.85.85,0,0,1,104.56,194.47Z"/><path d="M107.19,153.63l-5.32,13.28,34.84,1.23L123.13,142s-.62,4.71-3.88,4.71-3.89-4.71-3.89-4.71Z"/><path d="M170.8,92.75S152,89.09,146.09,83.21s-7.31-9.38-7.31-9.38.58,12-10.34,14.59-24-.64-34.92-8.7l-10.9-8.07s-6.1,15.38-16,21.1L70.19,75.4A32.91,32.91,0,0,1,86.7,53.13l12.17-6.62a24.77,24.77,0,0,1,12.32-3l18.31.33a32.66,32.66,0,0,1,17.28,5.32l6.15,4a34.66,34.66,0,0,1,15.2,23.36Z"/><path d="M89.89,148.32l3.48,14.35a108.14,108.14,0,0,0,10.28-6.77c-.46.4-.52,1.2-.8,1.88-3,7.22-7.37,20-9.64,26.5l15.14,1.9c.26-2.1,8.43-42.65,5.77-44.21C110.39,142.62,93.22,147.74,89.89,148.32Z"/><polygon points="112.08 151.68 109.52 153.84 112.92 159.26 113.95 153.5 112.08 151.68"/><path d="M116.21,141.72l-2.42,12.6L109,150l4.19-7.88A5.75,5.75,0,0,1,116.21,141.72Z"/><rect x="103.13" y="163.6" width="1.31" height="7.6" transform="translate(-74.38 251.37) rotate(-83.44)"/><path d="M148.55,148.32l-3.48,14.35a108.14,108.14,0,0,1-10.28-6.77c.46.4.52,1.2.8,1.88,3,7.22,7.37,20,9.64,26.5l-15.14,1.9c-.26-2.1-8.43-42.65-5.77-44.21C128.05,142.62,145.22,147.74,148.55,148.32Z"/><polygon points="126.36 151.68 128.92 153.84 125.52 159.26 124.49 153.5 126.36 151.68"/><path d="M122.23,141.72l2.42,12.6L129.4,150l-4.19-7.88A5.75,5.75,0,0,0,122.23,141.72Z"/><rect x="130.86" y="166.75" width="7.6" height="1.31" transform="translate(-18.25 16.49) rotate(-6.56)"/><path class="cls-6" d="M99.5,136.5l-24.33,5.1,6.49,31L106,167.48Z"/><rect x="81.59" y="145.17" width="12.94" height="2.38" transform="matrix(0.98, -0.21, 0.21, 0.98, -28.17, 21.19)"/><rect x="81.09" y="143.71" width="6.88" height="1.18" transform="matrix(0.98, -0.21, 0.21, 0.98, -27.82, 20.42)"/><rect x="87.99" y="167.1" width="9.07" height="1.2" transform="translate(-32.45 22.56) rotate(-11.84)"/><rect x="82.33" y="149.42" width="10.74" height="1.18" transform="translate(-28.93 21.2) rotate(-11.84)"/><rect x="82.75" y="151.44" width="10.74" height="1.2" transform="translate(-29.33 21.33) rotate(-11.84)"/><path class="cls-6" d="M99.5,136.5l-2.09.44,6.49,31,2.1-.44Z"/><path d="M78.35,155.74a11.93,11.93,0,0,1,6.74-2.24,1,1,0,0,1,.94,1.29,12.47,12.47,0,0,1-2.72,4s2.8-.92,3.66.86c0,0,.18,1.72-2.8,3.23,0,0,2.73,0,3.45,1.19,0,0,0,3.51-5.28,4-3.68.33-5.34-1.14-5.18-3.13s.19-1-.29-4.62A5.35,5.35,0,0,1,78.35,155.74Z"/></g><rect class="cls-7" x="102.35" y="159.06" width="31.92" height="17.83"/><path class="cls-8" d="M83.61,45.83s4.77-19.16,31.53-19.16,60.93,20,58.16,46.4-8.07,33.57-8.07,33.57,15.91,4.55,14.07,12.51-13.14,7.51-13.14,7.51S183,130.39,181.37,140s-7.91,17.19-27.59,15.57a132.89,132.89,0,0,1-36.65-8.86S89.7,157.77,73.05,158.46s-17.7-28.72,0-29.16c0,0-14.37.13-15.74-9S69.09,106,69.09,106s-9.46-28.55-7.84-44.46S74.38,41.47,83.61,45.83Z"/><path class="cls-9" d="M69,92a92.57,92.57,0,0,0,4.59,23,29.41,29.41,0,0,0,4.77,9.17c3.15,3.61,9.08,5.86,15.42,7.26a120.69,120.69,0,0,0,24.51,2.29,120.62,120.62,0,0,0,24.5-2.29c6.35-1.4,12.28-3.65,15.43-7.26a29.41,29.41,0,0,0,4.76-9.17h0a95.81,95.81,0,0,0,4.85-27.55c.4-13-1.83-26-8.53-33.15-9.1-9.78-21.71-13.34-31.39-14.59l-.3,0a77,77,0,0,0-9.32-.57h-.92c-9.26.11-27.85,2-40.1,15.18C69.73,62.24,67.84,77.52,69,92Z"/><path class="cls-9" d="M163.49,99.51s5.2-7.79,12.21-4.93,5.84,13.63-.52,17.14-11.94.77-13.76-2.08S163.49,99.51,163.49,99.51Z"/><path class="cls-10" d="M169,99.33a10.89,10.89,0,0,0,.71,2.65,18.78,18.78,0,0,0,1.13,2.4,19.07,19.07,0,0,0,1.47,2.23,11.72,11.72,0,0,0,1.89,2,11.35,11.35,0,0,0-.7-2.65,19.71,19.71,0,0,0-1.14-2.41,19,19,0,0,0-1.47-2.22A11,11,0,0,0,169,99.33Z"/><path class="cls-10" d="M176.27,101.35a11.87,11.87,0,0,0-2.65.71,19.63,19.63,0,0,0-2.41,1.14,18.87,18.87,0,0,0-2.22,1.46,11.81,11.81,0,0,0-2,1.9,11.36,11.36,0,0,0,2.65-.71,18.27,18.27,0,0,0,2.41-1.14,18.87,18.87,0,0,0,2.22-1.46A11.81,11.81,0,0,0,176.27,101.35Z"/><path class="cls-9" d="M73.28,99.51s-5.19-7.79-12.2-4.93-5.85,13.63.52,17.14,11.94.77,13.76-2.08S73.28,99.51,73.28,99.51Z"/><path class="cls-10" d="M67.74,99.33a11.44,11.44,0,0,0-1.9,2,18.87,18.87,0,0,0-1.46,2.22,17.14,17.14,0,0,0-1.14,2.41,11.36,11.36,0,0,0-.71,2.65,12.2,12.2,0,0,0,1.9-2A19.55,19.55,0,0,0,67,102,11.87,11.87,0,0,0,67.74,99.33Z"/><path class="cls-10" d="M60.5,101.35a11.86,11.86,0,0,0,2,1.9,18.87,18.87,0,0,0,2.22,1.46,17.57,17.57,0,0,0,2.4,1.14,11.36,11.36,0,0,0,2.65.71,11.44,11.44,0,0,0-2-1.9,18.87,18.87,0,0,0-2.22-1.46,18.34,18.34,0,0,0-2.41-1.14A11.87,11.87,0,0,0,60.5,101.35Z"/><rect class="cls-8" x="144.73" y="65.76" width="8.14" height="17.77" rx="2.72" transform="translate(43.34 203.45) rotate(-77.33)"/><rect class="cls-11" x="144.73" y="65.76" width="8.14" height="17.77" rx="2.72" transform="translate(43.34 203.45) rotate(-77.33)"/><rect class="cls-8" x="78.81" y="70.57" width="17.77" height="8.14" rx="2.72" transform="translate(-14.24 21.05) rotate(-12.67)"/><rect class="cls-11" x="78.81" y="70.57" width="17.77" height="8.14" rx="2.72" transform="translate(-14.24 21.05) rotate(-12.67)"/><path class="cls-12" d="M139.53,122.76a13,13,0,0,0,3.22,8.57c6.35-1.4,12.28-3.65,15.43-7.26a29.41,29.41,0,0,0,4.76-9.17h0a13,13,0,0,0-23.41,7.87Z"/><path class="cls-12" d="M73.55,114.9a29.41,29.41,0,0,0,4.77,9.17c3.15,3.61,9.08,5.86,15.42,7.26A13,13,0,1,0,73.55,114.9Z"/><circle class="cls-13" cx="143.47" cy="97.57" r="13.03"/><path class="cls-14" d="M131.1,93.51s3.45-8.94,12.13-8.94c6.62,0,13.27,5.28,13.27,12.51,0,0,4.77,1.91,5.32-.32.5-2.06-4.27-2.61-4.26-3.75,0-1.49,5.68-1.15,4.44-4-.82-1.88-4.85.1-5.86-.69s-4.56-5.61-12.67-5.61C134.08,82.76,131.1,93.51,131.1,93.51Z"/><circle class="cls-15" cx="143.47" cy="97.82" r="9.61"/><circle class="cls-8" cx="143.47" cy="97.82" r="7.63"/><path class="cls-13" d="M134.34,92.82a5,5,0,1,0,5-5A5,5,0,0,0,134.34,92.82Z"/><circle class="cls-13" cx="93.16" cy="97.57" r="13.03"/><path class="cls-14" d="M105.54,93.51s-3.46-8.94-12.13-8.94c-6.62,0-13.28,5.28-13.28,12.51,0,0-4.76,1.91-5.31-.32-.51-2.06,4.27-2.61,4.26-3.75,0-1.49-5.68-1.15-4.45-4,.83-1.88,4.85.1,5.87-.69s4.56-5.61,12.66-5.61C102.56,82.76,105.54,93.51,105.54,93.51Z"/><circle class="cls-15" cx="93.16" cy="97.82" r="9.61"/><circle class="cls-8" cx="93.16" cy="97.82" r="7.63"/><path class="cls-13" d="M84,92.82a5,5,0,1,0,5-5A5,5,0,0,0,84,92.82Z"/><path class="cls-14" d="M111.64,107.24a6.27,6.27,0,0,0,11,0,10.61,10.61,0,0,0,1.36-5.53c-.22-.79-4.34-1.3-6.88-1.3s-6.66.51-6.87,1.3A10.46,10.46,0,0,0,111.64,107.24Z"/><path class="cls-16" d="M111.64,107.24a6.27,6.27,0,0,0,11,0,6.49,6.49,0,0,0-11,0Z"/><path class="cls-9" d="M114.92,137.38a4.59,4.59,0,0,0,3.33,1.39,4.78,4.78,0,0,0,3.32-1.39l-.65-6.66h-5.21Z"/><path class="cls-9" d="M114.17,137.61c-1.69-2.83-16.72,1.4-28.07,6.77,0,0-4.36-2-5.17-1.44S83,147.49,83,147.49s-4.81,2-4.66,2.67,2.27,1.24,4.88,1c0,0-3.32,3.91-2.64,4.61.46.48,4.56-1.15,4.56-1.15s-.78,3.15,0,3.36,5.43-4.9,5.43-4.9S116.47,141.49,114.17,137.61Z"/><path class="cls-9" d="M122.79,137.47c1.82-2.75,16.63,2.23,27.7,8.15,0,0,4.45-1.79,5.23-1.18s-2.33,4.45-2.33,4.45,4.7,2.27,4.52,2.9-2.33,1.12-4.93.78c0,0,3.12,4.07,2.41,4.74-.48.45-4.5-1.37-4.5-1.37s.62,3.18-.15,3.35-5.18-5.16-5.18-5.16S120.29,141.23,122.79,137.47Z"/><path class="cls-9" d="M103.78,160h28.94s-4.64-23.47-6-23.87a26.62,26.62,0,0,0-16.86,0C108.41,136.51,103.78,160,103.78,160Z"/><polygon class="cls-9" points="114.12 160.81 102.91 188.4 106.57 194.83 87.34 185.67 105.4 156.66 114.12 160.81"/><polygon class="cls-9" points="121.58 160.31 122.5 190.07 116.83 194.83 138.05 192.93 131.2 159.44 121.58 160.31"/><polygon class="cls-17" points="130.37 150.76 137.69 178.13 96.56 175.5 105.35 150.76 130.37 150.76"/><polygon class="cls-18" points="137.69 181.51 120.21 182.46 121.44 189.87 116.22 195.03 138.05 193.13 137.69 181.51"/><path class="cls-13" d="M121.5,186.49l5.87-.49a.85.85,0,0,0,.78-.92h0a.85.85,0,0,0-.92-.78l-5.88.48a.86.86,0,0,0-.78.93h0A.86.86,0,0,0,121.5,186.49Z"/><path class="cls-13" d="M121.89,189.14l5.88-.49a.85.85,0,0,0,.78-.92h0a.85.85,0,0,0-.92-.78l-5.88.48a.86.86,0,0,0-.78.93h0A.85.85,0,0,0,121.89,189.14Z"/><polygon class="cls-18" points="91.6 174.64 107.55 181.86 103.71 188.32 106.71 195.02 87.05 185.34 91.6 174.64"/><path class="cls-13" d="M104.89,185.14l-5.3-2.58a.85.85,0,0,1-.39-1.14h0a.85.85,0,0,1,1.14-.39l5.3,2.58a.85.85,0,0,1,.39,1.14h0A.85.85,0,0,1,104.89,185.14Z"/><path class="cls-13" d="M103.56,187.47l-5.3-2.58a.85.85,0,0,1-.39-1.14h0a.85.85,0,0,1,1.14-.4l5.3,2.58a.85.85,0,0,1,.39,1.14h0A.85.85,0,0,1,103.56,187.47Z"/><path class="cls-19" d="M106.19,146.63l-5.32,13.28,34.84,1.23L122.13,135s-.62,4.71-3.88,4.71-3.89-4.71-3.89-4.71Z"/><path class="cls-8" d="M169.8,85.75S151,82.09,145.09,76.21s-7.31-9.38-7.31-9.38.58,12-10.34,14.59-24-.64-34.92-8.7l-10.9-8.07s-6.1,15.38-16,21.1L69.19,68.4A32.91,32.91,0,0,1,85.7,46.13l12.17-6.62a24.77,24.77,0,0,1,12.32-3l18.31.33a32.66,32.66,0,0,1,17.28,5.32l6.15,4a34.66,34.66,0,0,1,15.2,23.36Z"/><path class="cls-20" d="M88.89,141.32l3.48,14.35a108.14,108.14,0,0,0,10.28-6.77c-.46.4-.52,1.2-.8,1.88-3,7.22-7.37,20-9.64,26.5l15.14,1.9c.26-2.1,8.43-42.65,5.77-44.21C109.39,135.62,92.22,140.74,88.89,141.32Z"/><polygon class="cls-21" points="111.08 144.68 108.52 146.84 111.92 152.26 112.95 146.5 111.08 144.68"/><path class="cls-21" d="M115.21,134.72l-2.42,12.6L108,143l4.19-7.88A5.75,5.75,0,0,1,115.21,134.72Z"/><rect class="cls-21" x="102.13" y="156.6" width="1.31" height="7.6" transform="translate(-68.31 244.17) rotate(-83.44)"/><path class="cls-20" d="M147.55,141.32l-3.48,14.35a108.14,108.14,0,0,1-10.28-6.77c.46.4.52,1.2.8,1.88,3,7.22,7.37,20,9.64,26.5l-15.14,1.9c-.26-2.1-8.43-42.65-5.77-44.21C127.05,135.62,144.22,140.74,147.55,141.32Z"/><polygon class="cls-21" points="125.36 144.68 127.92 146.84 124.52 152.26 123.49 146.5 125.36 144.68"/><path class="cls-21" d="M121.23,134.72l2.42,12.6L128.4,143l-4.19-7.88A5.75,5.75,0,0,0,121.23,134.72Z"/><rect class="cls-21" x="129.86" y="159.75" width="7.6" height="1.31" transform="translate(-17.46 16.33) rotate(-6.56)"/><path class="cls-22" d="M98.5,129.5l-24.33,5.1,6.49,31L105,160.48Z"/><rect class="cls-23" x="80.59" y="138.17" width="12.94" height="2.38" transform="matrix(0.98, -0.21, 0.21, 0.98, -26.75, 20.84)"/><rect class="cls-24" x="80.09" y="136.71" width="6.88" height="1.18" transform="matrix(0.98, -0.21, 0.21, 0.98, -26.4, 20.07)"/><rect class="cls-24" x="86.99" y="160.1" width="9.07" height="1.2" transform="translate(-31.04 22.21) rotate(-11.84)"/><rect class="cls-24" x="81.33" y="142.42" width="10.74" height="1.18" transform="translate(-27.51 20.84) rotate(-11.84)"/><rect class="cls-24" x="81.75" y="144.44" width="10.74" height="1.2" transform="translate(-27.92 20.97) rotate(-11.84)"/><path class="cls-25" d="M98.5,129.5l-2.09.44,6.49,31,2.1-.44Z"/><path class="cls-9" d="M77.35,148.74a11.93,11.93,0,0,1,6.74-2.24,1,1,0,0,1,.94,1.29,12.47,12.47,0,0,1-2.72,4s2.8-.92,3.66.86c0,0,.18,1.72-2.8,3.23,0,0,2.73,0,3.45,1.19,0,0,0,3.51-5.28,4-3.68.33-5.34-1.14-5.18-3.13s.19-1-.29-4.62A5.35,5.35,0,0,1,77.35,148.74Z"/></g></g></g></svg>