<svg xmlns="http://www.w3.org/2000/svg" viewBox="0 0 699.54 435.68"><defs><style>.cls-1{opacity:0.07;}.cls-2{fill:none;stroke:#0071bc;stroke-linecap:round;stroke-linejoin:round;stroke-width:3.04px;}.cls-3{fill:#1b75bb;}.cls-4{fill:#231f20;}.cls-5{fill:#f6921e;}</style></defs><g id="Layer_2" data-name="Layer 2"><g id="Layer_3" data-name="Layer 3"><g class="cls-1"><rect class="cls-2" x="1.52" y="1.52" width="430.25" height="430.25"/><rect class="cls-2" x="431.77" y="1.52" width="265.77" height="265.77"/><rect class="cls-2" x="533.05" y="267.28" width="164.5" height="164.5"/><rect class="cls-2" x="431.77" y="330.53" width="101.25" height="101.25"/><rect class="cls-2" x="431.77" y="267.29" width="63.17" height="63.23"/><rect class="cls-2" x="494.94" y="267.29" width="38.11" height="38.11"/><rect class="cls-2" x="507.85" y="305.4" width="25.2" height="25.13"/><rect class="cls-2" x="494.94" y="317.62" width="12.91" height="12.91"/><path class="cls-2" d="M2,432.12C2,194.13,194.61,1.54,432.61,1.54h-1C578.31,1.54,697,120.27,697,267A165.05,165.05,0,0,1,531.89,432.12h1A101.26,101.26,0,0,1,431.59,330.81,63.79,63.79,0,0,1,495.42,267h-1a38.48,38.48,0,0,1,38.5,38.5,25.32,25.32,0,0,1-25.33,25.33c-6.72,0-12.16-5.89-12.16-13.17"/></g><g class="cls-1"><rect class="cls-2" x="267.29" y="1.87" width="430.25" height="430.25"/><rect class="cls-2" x="1.52" y="166.36" width="265.77" height="265.77"/><rect class="cls-2" x="1.52" y="1.87" width="164.5" height="164.5"/><rect class="cls-2" x="166.04" y="1.87" width="101.25" height="101.25"/><rect class="cls-2" x="204.12" y="103.12" width="63.17" height="63.23"/><rect class="cls-2" x="166.01" y="128.24" width="38.11" height="38.11"/><rect class="cls-2" x="166.01" y="103.11" width="25.2" height="25.13"/><rect class="cls-2" x="191.21" y="103.11" width="12.91" height="12.91"/><path class="cls-2" d="M697,1.52c0,238-192.59,430.58-430.59,430.58h1C120.75,432.1,2,313.38,2,166.66A165,165,0,0,1,167.17,1.52h-1A101.26,101.26,0,0,1,267.47,102.83a63.79,63.79,0,0,1-63.83,63.83h1a38.48,38.48,0,0,1-38.5-38.5,25.32,25.32,0,0,1,25.33-25.33c6.72,0,12.16,5.89,12.16,13.17"/><line class="cls-2" x1="300.87" y1="1.56" x2="300.87" y2="431.13"/><line class="cls-2" x1="369.76" y1="1.56" x2="369.76" y2="431.13"/><line class="cls-2" x1="178.28" y1="1.56" x2="178.28" y2="431.13"/><line class="cls-2" x1="110.4" y1="4.6" x2="110.4" y2="434.16"/><line class="cls-2" x1="50.63" y1="4.6" x2="50.63" y2="434.16"/><line class="cls-2" x1="640.27" y1="4.6" x2="640.27" y2="434.16"/><line class="cls-2" x1="589.61" y1="4.6" x2="589.61" y2="434.16"/><line class="cls-2" x1="698.02" y1="166.7" x2="268.45" y2="166.7"/><line class="cls-2" x1="697.01" y1="158.59" x2="267.44" y2="158.59"/><line class="cls-2" x1="695.99" y1="104.9" x2="266.42" y2="104.9"/><line class="cls-2" x1="697.01" y1="217.35" x2="2" y2="217.35"/><line class="cls-2" x1="697.01" y1="286.25" x2="2" y2="286.25"/><line class="cls-2" x1="698.02" y1="347.04" x2="6.05" y2="347.04"/><line class="cls-2" x1="112.43" y1="102.87" x2="450.82" y2="431.13"/><line class="cls-2" x1="98.24" y1="429.1" x2="413.33" y2="103.88"/><line class="cls-2" x1="41" y1="430.62" x2="357.61" y2="103.88"/><line class="cls-2" x1="55.69" y1="102.87" x2="396.11" y2="433.15"/></g></g><g id="Layer_1-2" data-name="Layer 1"><path class="cls-3" d="M538.26,221.74c-2-11.08-5.87-22.8-30.62-22.8s-28,9.44-28,16.93c0,27.37,108.47,7.5,108.47,71.34,0,50.49-48.86,59.61-75.89,59.61-39.42,0-82.09-13.68-83.39-59.93h46.9c0,14.65,9.12,25.4,37.79,25.4,23.45,0,29-11.4,29-17.91,0-29-107.49-7.17-107.49-72,0-25.41,16-58,70-58,33.88,0,74.27,8.47,77.85,57.33Z"/><rect class="cls-3" x="592.33" y="164.68" width="47.86" height="181.85"/><path class="cls-3" d="M175,289.18c-11.63,11.53-25.81,16.07-42.14,13.51a48.14,48.14,0,0,1-39.95-55.55c3.17-18.44,13.56-31.09,30.86-37.6a50.36,50.36,0,0,1,17.75-3.41c10.55,0,20.6,3.8,30,11.37a113.45,113.45,0,0,1,10,9.53c1.2,1.25,2.41,2.5,3.64,3.72,2.74,2.74,6.55,7.06,10.29,11.28,3.56,4,6.93,7.83,9.55,10.51l.68.69,30.57-30.34c-.15-.25-5.41-5.65-6-6.2q-4.11-4.11-8.17-8.26l-.18-.18c-6.18-6.29-12.58-12.8-19.2-19-22.19-20.68-48.4-28.51-77.91-23.28-48.42,8.59-80.68,53.72-73.44,102.75a90.17,90.17,0,0,0,77.27,75.71c29.57,3.63,55.24-5.13,76.29-26.07,9.15-9.1,18.48-18.42,27.46-27.4l3.14-3.13,7.5-7.51h0l27.29-27.3h0l6-6,2.88-2.87h0Q291.12,232.31,303,220.5c12.79-12.67,28.27-16.91,46-12.58a47.32,47.32,0,0,1,29.79,22,49.35,49.35,0,0,1,4.95,38.32,48.72,48.72,0,0,1-70.53,28.92c-5.88-3.42-10.66-8.21-15.72-13.3l-1.74-1.74C292.63,279,288.5,274,284.47,269s-7.88-9.64-11.12-13l-30.21,30.33,2.28,144.47h39.5V328.62c15.78,11.31,33.93,16.85,54,16.55,24-.44,44.71-9.19,61.64-26,27.06-26.92,34.39-65.57,19.13-100.87-15.44-35.72-53.51-57.58-92.56-53.16-19.7,2.23-36.63,9.84-50.31,22.63-8.19,7.66-16.17,15.7-23.89,23.47-2.74,2.76-10,10.69-10,10.69L192.13,273"/><path class="cls-4" d="M632.24,377.45v12.63h-4.82V379c0-1.34-.07-3.61-3.12-3.61-2.12,0-3.77,1.44-3.77,4.23v10.46h-4.81V371.83h4.6v2.67h.06a5.92,5.92,0,0,1,5.5-3.16C629.45,371.34,632.24,373.44,632.24,377.45Z"/><path class="cls-4" d="M612.49,389.36v.72h-5.18a7.94,7.94,0,0,1-.44-2.15,7.47,7.47,0,0,1-5.91,2.64c-2.74,0-5.56-1.55-5.56-5.32,0-3.58,2.27-5.39,5.32-5.83l4.32-.66c.76-.1,1.69-.42,1.69-1.44,0-2-1.93-2.13-3.16-2.13-2.41,0-2.82,1.47-3,2.54H596c.55-5.6,4.43-6.39,8.17-6.39,2.58,0,7.28.79,7.28,5.29v9.89C611.43,388.68,611.91,389.16,612.49,389.36Zm-5.76-5.83V381.2a7.15,7.15,0,0,1-3.27,1c-1.78.32-3.26.76-3.26,2.75a2.1,2.1,0,0,0,2.23,2.2C604.57,387.14,606.73,385.76,606.73,383.53Z"/><rect class="cls-4" x="587.22" y="371.83" width="4.81" height="18.26"/><rect class="cls-4" x="587.22" y="365.2" width="4.81" height="4.46"/><path class="cls-4" d="M584,386.59v3.64c-.75,0-1.51.07-2.26.07h-.62c-4.15,0-4.91-1.58-4.91-4V375.26h-2.47v-3.43h2.47v-4.95h4.81v4.95h3v3.43h-3v9.92c0,1.06,0,1.48,2,1.48C583.35,386.66,583.7,386.62,584,386.59Z"/><rect class="cls-4" x="566.25" y="371.83" width="4.81" height="18.26"/><rect class="cls-4" x="566.25" y="365.2" width="4.81" height="4.46"/><path class="cls-4" d="M562.72,430.56v.72h-5.18a8.18,8.18,0,0,1-.45-2.16,7.47,7.47,0,0,1-5.9,2.64c-2.75,0-5.57-1.55-5.57-5.33,0-3.56,2.27-5.39,5.32-5.83l4.33-.65c.76-.1,1.68-.41,1.68-1.44,0-2-1.92-2.13-3.16-2.13-2.4,0-2.81,1.47-2.95,2.54h-4.63c.55-5.6,4.43-6.39,8.17-6.39,2.57,0,7.27.79,7.27,5.29v9.89C561.65,429.87,562.14,430.36,562.72,430.56ZM557,424.72v-2.33c-.48.38-1.27.68-3.26,1-1.78.3-3.26.74-3.26,2.74a2.1,2.1,0,0,0,2.24,2.2C554.79,428.33,557,427,557,424.72Z"/><rect class="cls-4" x="556.71" y="365.43" width="4.81" height="24.65"/><path class="cls-4" d="M553.38,381.4v.86H540.85c.14,1.37.42,4.46,4.3,4.46a3.08,3.08,0,0,0,3.08-2h4.94a7.9,7.9,0,0,1-8,5.84c-5.16,0-9.1-2.47-9.1-10,0-2.2.75-9.24,8.75-9.24C548.41,371.34,553.38,373.06,553.38,381.4ZM541,379.13h7.45c-.27-2.95-2.17-3.84-3.71-3.84C542.46,375.29,541.27,376.73,541,379.13Z"/><rect class="cls-4" x="537.46" y="413.01" width="4.8" height="18.27"/><rect class="cls-4" x="537.46" y="406.39" width="4.8" height="4.46"/><path class="cls-4" d="M533.26,418.57h-4.7c-.2-1.16-.61-2.4-3.22-2.4s-3,1-3,1.78c0,2.89,11.44.79,11.44,7.53,0,5.32-5.16,6.28-8,6.28-4.16,0-8.65-1.45-8.79-6.32h5c0,1.55.95,2.68,4,2.68,2.47,0,3-1.2,3-1.89,0-3.06-11.33-.75-11.33-7.59,0-2.67,1.68-6.11,7.39-6.11C528.63,412.53,532.89,413.43,533.26,418.57Z"/><path class="cls-4" d="M533,377.45v12.63h-4.81V379c0-1.34-.06-3.61-3.12-3.61-2.13,0-3.78,1.44-3.78,4.23v10.46h-4.8V371.83h4.6v2.67h.07a5.88,5.88,0,0,1,5.49-3.16C530.24,371.34,533,373.44,533,377.45Z"/><path class="cls-4" d="M515,422.59v.87H502.52c.13,1.36.4,4.45,4.28,4.45a3.09,3.09,0,0,0,3.09-2h5a7.93,7.93,0,0,1-8,5.83c-5.15,0-9.1-2.47-9.1-10,0-2.19.76-9.24,8.76-9.24C510.06,412.53,515,414.25,515,422.59Zm-12.39-2.26h7.44c-.27-2.95-2.15-3.84-3.7-3.84C504.13,416.49,502.92,417.92,502.65,420.33Z"/><path class="cls-4" d="M513.33,381.4v.86H500.79c.14,1.37.42,4.46,4.3,4.46a3.08,3.08,0,0,0,3.08-2h4.94a7.9,7.9,0,0,1-8,5.84c-5.16,0-9.1-2.47-9.1-10,0-2.2.75-9.24,8.75-9.24C508.35,371.34,513.33,373.06,513.33,381.4Zm-12.4-2.27h7.45c-.27-2.95-2.17-3.84-3.71-3.84C502.4,375.29,501.21,376.73,500.93,379.13Z"/><path class="cls-4" d="M494.68,418.64v12.64h-4.8V420.19c0-1.33-.07-3.6-3.13-3.6-2.13,0-3.77,1.44-3.77,4.22v10.47h-4.81V413h4.6v2.69h.07a5.87,5.87,0,0,1,5.49-3.17C491.91,412.53,494.68,414.63,494.68,418.64Z"/><path class="cls-4" d="M494.86,373.34c0,2.23-1.24,7.86-7.87,7.86h-5.9v8.88h-5.15V365.43H487.2C492,365.43,494.86,368.49,494.86,373.34Zm-9,3.6c3.85,0,3.85-2.75,3.85-3.85,0-2.4-1.34-3.39-4.54-3.39h-4.08v7.24Z"/><path class="cls-4" d="M465.48,412.53c4.9,0,9.33,3,9.33,9.62s-4.43,9.61-9.33,9.61-9.35-3-9.35-9.61S460.56,412.53,465.48,412.53Zm4.38,9.62c0-2.34-.68-5.56-4.38-5.56s-4.4,3.22-4.4,5.56.69,5.56,4.4,5.56S469.86,424.48,469.86,422.15Z"/><path class="cls-4" d="M462.83,381.4v.86H450.3c.14,1.37.41,4.46,4.29,4.46a3.09,3.09,0,0,0,3.09-2h4.95a7.94,7.94,0,0,1-8,5.84c-5.15,0-9.09-2.47-9.09-10,0-2.2.75-9.24,8.75-9.24C457.86,371.34,462.83,373.06,462.83,381.4Zm-12.39-2.27h7.45c-.28-2.95-2.17-3.84-3.71-3.84C451.91,375.29,450.71,376.73,450.44,379.13Z"/><path class="cls-4" d="M452.91,406.63v24.65H448.2V429h-.06a5.82,5.82,0,0,1-5.29,2.78c-5.42,0-7.69-4.81-7.69-9.82,0-6.32,3.57-9.41,7.59-9.41a5.89,5.89,0,0,1,5.29,2.85h.06v-8.75Zm-4.6,15.92c0-2.91-.83-5.86-4.12-5.86-3.06,0-4.08,2.71-4.08,5.59,0,2.17.86,5.53,3.94,5.53S448.31,425.27,448.31,422.55Z"/><path class="cls-4" d="M442.65,365.43v24.65h-4.71v-2.3h-.06a5.81,5.81,0,0,1-5.29,2.79c-5.43,0-7.69-4.81-7.69-9.82,0-6.32,3.57-9.41,7.59-9.41a5.84,5.84,0,0,1,5.28,2.85h.07v-8.76Zm-4.6,15.94c0-2.92-.83-5.88-4.12-5.88-3.06,0-4.09,2.72-4.09,5.61,0,2.15.85,5.52,3.94,5.52S438.05,384.08,438.05,381.37Z"/><path class="cls-4" d="M431.77,418.64v12.64H427V420.19c0-1.33-.07-3.6-3.12-3.6-2.13,0-3.78,1.44-3.78,4.22v10.47h-4.81V413h4.6v2.69h.07a5.87,5.87,0,0,1,5.5-3.17C429,412.53,431.77,414.63,431.77,418.64Z"/><path class="cls-4" d="M422.73,389.36v.72h-5.18a7.94,7.94,0,0,1-.44-2.15,7.47,7.47,0,0,1-5.91,2.64c-2.74,0-5.56-1.55-5.56-5.32,0-3.58,2.27-5.39,5.32-5.83l4.32-.66c.76-.1,1.69-.42,1.69-1.44,0-2-1.93-2.13-3.16-2.13-2.41,0-2.81,1.47-2.95,2.54h-4.63c.54-5.6,4.42-6.39,8.16-6.39,2.58,0,7.28.79,7.28,5.29v9.89C421.67,388.68,422.15,389.16,422.73,389.36ZM417,383.53V381.2a7.15,7.15,0,0,1-3.27,1c-1.78.32-3.26.76-3.26,2.75a2.1,2.1,0,0,0,2.24,2.2C414.81,387.14,417,385.76,417,383.53Z"/><rect class="cls-4" x="405.68" y="406.63" width="5.15" height="24.65"/><rect class="cls-4" x="397.47" y="371.83" width="4.8" height="18.26"/><rect class="cls-4" x="397.47" y="365.2" width="4.8" height="4.46"/><path class="cls-4" d="M393,430.56v.72h-5.19a7.8,7.8,0,0,1-.45-2.16,7.47,7.47,0,0,1-5.9,2.64c-2.75,0-5.57-1.55-5.57-5.33,0-3.56,2.27-5.39,5.32-5.83l4.33-.65c.76-.1,1.68-.41,1.68-1.44,0-2-1.91-2.13-3.15-2.13-2.41,0-2.82,1.47-3,2.54h-4.63c.55-5.6,4.43-6.39,8.17-6.39,2.57,0,7.27.79,7.27,5.29v9.89C391.87,429.87,392.36,430.36,393,430.56Zm-5.78-5.84v-2.33c-.48.38-1.27.68-3.26,1-1.79.3-3.26.74-3.26,2.74a2.1,2.1,0,0,0,2.23,2.2C385,428.33,387.17,427,387.17,424.72Z"/><path class="cls-4" d="M394,380.75c0,5-2.26,9.82-7.69,9.82a5.35,5.35,0,0,1-5.15-2.82h-.07l1.34-2.08a3.88,3.88,0,0,0,2.68.95c3.09,0,3.94-3.37,3.94-5.52,0-2.89-1-5.61-4.08-5.61a3.69,3.69,0,0,0-2.4.78l-1.61-1.8a5.79,5.79,0,0,1,5.45-3.13C390.4,371.34,394,374.43,394,380.75Z"/><path class="cls-4" d="M380.93,374.47l1.61,1.8c-1.31,1.07-1.68,3.09-1.68,5.1a5.73,5.73,0,0,0,1.54,4.3l-1.34,2.08v9.45h-4.8V371.83h4.6v2.64Z"/><polygon class="cls-4" points="375.23 413.01 369.98 431.28 365.03 431.28 362.19 417.95 362.12 417.95 359.27 431.28 354.32 431.28 349.17 413.01 354.28 413.01 357.14 426.13 357.2 426.13 359.79 413.01 364.62 413.01 367.36 426.13 367.43 426.13 370.28 413.01 375.23 413.01"/><path class="cls-4" d="M372,377.45v12.63h-4.81V379c0-2.72-1.19-3.61-2.6-3.61-2.41,0-3.27,1.58-3.27,3.74v10.95h-4.81v-11c0-1.54,0-3.71-2.87-3.71-2.27,0-3,1.58-3,3.58v11.11H345.8V371.83h4.61v2.67h.06a5.44,5.44,0,0,1,5.19-3.16c2.65,0,3.85,1,5.09,2.92a5.68,5.68,0,0,1,4.87-2.92C369.19,371.34,372,373.44,372,377.45Z"/><path class="cls-4" d="M347.53,418.57h-4.7c-.22-1.16-.62-2.4-3.24-2.4s-2.94,1-2.94,1.78c0,2.89,11.42.79,11.42,7.53,0,5.32-5.14,6.28-8,6.28-4.15,0-8.65-1.45-8.79-6.32h4.94c0,1.55,1,2.68,4,2.68,2.47,0,3.06-1.2,3.06-1.89,0-3.06-11.33-.75-11.33-7.59,0-2.67,1.69-6.11,7.38-6.11C342.89,412.53,347.15,413.43,347.53,418.57Z"/><rect class="cls-4" x="336.43" y="371.83" width="4.81" height="18.26"/><rect class="cls-4" x="336.43" y="365.2" width="4.81" height="4.46"/><rect class="cls-4" x="326.9" y="365.43" width="4.8" height="24.65"/><rect class="cls-4" x="323.08" y="413.01" width="4.81" height="18.27"/><rect class="cls-4" x="323.08" y="406.39" width="4.81" height="4.46"/><path class="cls-4" d="M311.18,364.79c3.26,0,11.84,1.4,11.84,13s-8.58,13-11.84,13-11.85-1.41-11.85-13S307.91,364.79,311.18,364.79Zm6.69,13c0-6.9-3.92-8.62-6.69-8.62s-6.7,1.72-6.7,8.62,3.91,8.62,6.7,8.62S317.87,384.66,317.87,377.76Z"/><path class="cls-4" d="M318.62,413.94h-4.94c-.13-1.09-.55-3.71-5.05-3.71-1.95,0-4.28.72-4.28,2.95,0,1.93,1.57,2.34,2.6,2.59l6,1.47c3.36.83,6.45,2.19,6.45,6.62,0,7.42-7.55,8.08-9.71,8.08-9,0-10.54-5.19-10.54-8.25h4.94c0,1.38.72,4,5.22,4,2.43,0,5.15-.58,5.15-3.19,0-1.93-1.86-2.43-4.46-3.05l-2.64-.62c-4-.93-7.84-1.82-7.84-7.24,0-2.75,1.48-7.59,9.48-7.59C316.56,406,318.59,410.92,318.62,413.94Z"/><circle class="cls-5" cx="144.25" cy="252.74" r="33.64"/><circle class="cls-5" cx="334.67" cy="251.77" r="33.64"/><circle class="cls-5" cx="616.26" cy="117.03" r="33.64"/></g></g></svg>