<svg xmlns="http://www.w3.org/2000/svg" viewBox="0 0 227.6 227.6"><defs><style>.cls-1{isolation:isolate;}.cls-2{fill:#209fe5;opacity:0.8;}.cls-3{mix-blend-mode:multiply;opacity:0.15;}.cls-13,.cls-4{opacity:0.3;}.cls-15,.cls-5{opacity:0.2;}.cls-20,.cls-6{opacity:0.5;}.cls-7{fill:#becccf;}.cls-8{fill:#e5bd62;}.cls-15,.cls-9{fill:#221f1f;}.cls-10{fill:#fff;}.cls-11{fill:#634e43;}.cls-12{fill:#d1a450;}.cls-13{fill:#bd1621;}.cls-14{fill:#868686;}.cls-16{fill:#7887c2;}.cls-17{fill:#3ab04b;}.cls-18{fill:#e9f4fa;}.cls-19{fill:#cce5e8;}.cls-20,.cls-21{fill:#2d368c;}</style></defs><g class="cls-1"><g id="Layer_2" data-name="Layer 2"><g id="Page_Detil" data-name="Page Detil"><circle class="cls-2" cx="113.8" cy="113.8" r="113.8"/><g class="cls-3"><rect x="104.68" y="174.3" width="19.37" height="18.13"/><polygon points="130.26 174.38 131.9 204.27 137.99 208.55 116.57 208.47 120.56 174.34 130.26 174.38"/><polygon points="101.26 174.38 99.63 204.27 93.53 208.55 114.95 208.47 110.97 174.34 101.26 174.38"/><polygon points="114.96 208.47 93.54 208.47 99.62 204.27 114.47 204.27 114.63 205.62 114.96 208.47"/><path d="M100,205.65l-1.68-.44a.67.67,0,0,0-.81.47.66.66,0,0,0,.48.81l1.67.44a.66.66,0,0,0,.34-1.28Z"/><path d="M101.32,204.32l-1.67-.44a.67.67,0,0,0-.34,1.29l1.68.43a.66.66,0,0,0,.81-.47A.67.67,0,0,0,101.32,204.32Z"/><path d="M115,208.48H110.2a4.57,4.57,0,0,1,4.43-2.86Z"/><rect x="92.49" y="208.48" width="23.51" height="2.72" rx="1.26"/><polygon points="116.57 208.47 137.99 208.47 131.91 204.27 117.06 204.27 116.91 205.62 116.57 208.47"/><path d="M131.53,205.65l1.68-.44a.66.66,0,1,1,.33,1.28l-1.67.44a.66.66,0,1,1-.34-1.28Z"/><path d="M130.21,204.32l1.67-.44a.67.67,0,0,1,.34,1.29l-1.68.43a.66.66,0,0,1-.81-.47A.67.67,0,0,1,130.21,204.32Z"/><path d="M116.57,208.48h4.76a4.56,4.56,0,0,0-4.43-2.86Z"/><rect x="115.53" y="208.48" width="23.51" height="2.72" rx="1.26"/><path d="M119.11,151.63a4.62,4.62,0,0,1-3.34,1.4,4.85,4.85,0,0,1-3.35-1.4l.66-6.69h5.23Z"/><path d="M165.32,106A93.44,93.44,0,0,1,160.7,129a29.62,29.62,0,0,1-4.79,9.22c-3.17,3.63-9.13,5.89-15.51,7.3a121.06,121.06,0,0,1-24.63,2.29,121.06,121.06,0,0,1-24.63-2.29c-6.38-1.41-12.34-3.67-15.51-7.3A29.62,29.62,0,0,1,70.84,129h0A95.71,95.71,0,0,1,66,101.33c-.41-13,1.83-26.09,8.57-33.33,9.15-9.82,21.82-13.41,31.55-14.66a3,3,0,0,1,.31,0,76.09,76.09,0,0,1,9.37-.58h.92c9.31.11,28,2,40.31,15.26C164.54,76.09,166.44,91.46,165.32,106Z"/><path d="M70.28,113.56s-5.22-7.83-12.26-5-5.88,13.71.52,17.23,12,.78,13.83-2.09S70.28,113.56,70.28,113.56Z"/><path d="M64.71,113.38A11.57,11.57,0,0,1,64,116a18.38,18.38,0,0,1-2.62,4.65,11.13,11.13,0,0,1-1.9,2,11.44,11.44,0,0,1,.71-2.66,19.23,19.23,0,0,1,2.62-4.65A11.49,11.49,0,0,1,64.71,113.38Z"/><path d="M57.44,115.41a11.32,11.32,0,0,1,2.66.72,17.26,17.26,0,0,1,2.42,1.14,18.38,18.38,0,0,1,2.24,1.47,11.54,11.54,0,0,1,2,1.91,11.81,11.81,0,0,1-2.66-.71,18.52,18.52,0,0,1-2.42-1.15,19.18,19.18,0,0,1-2.24-1.47A11.91,11.91,0,0,1,57.44,115.41Z"/><path d="M161,113.56s5.22-7.83,12.27-5,5.87,13.71-.52,17.23-12,.78-13.84-2.09S161,113.56,161,113.56Z"/><path d="M166.54,113.38a11.56,11.56,0,0,1,1.91,2,20.43,20.43,0,0,1,1.47,2.23,19.15,19.15,0,0,1,1.15,2.42,12,12,0,0,1,.71,2.66,11.19,11.19,0,0,1-1.91-2,17.88,17.88,0,0,1-1.47-2.23,19.15,19.15,0,0,1-1.15-2.42A12.11,12.11,0,0,1,166.54,113.38Z"/><path d="M173.81,115.41a11.19,11.19,0,0,1-2,1.91,19.23,19.23,0,0,1-4.65,2.62,12,12,0,0,1-2.66.71,11.19,11.19,0,0,1,2-1.91,19.07,19.07,0,0,1,2.23-1.47,17.81,17.81,0,0,1,2.42-1.14A11.45,11.45,0,0,1,173.81,115.41Z"/><path class="cls-4" d="M94.37,136.94a13,13,0,0,1-3.23,8.61c-6.38-1.41-12.34-3.67-15.51-7.3A29.62,29.62,0,0,1,70.84,129h0a13.1,13.1,0,0,1,23.53,7.92Z"/><path class="cls-4" d="M160.7,129a29.62,29.62,0,0,1-4.79,9.22c-3.17,3.63-9.13,5.89-15.51,7.3A13.09,13.09,0,1,1,160.7,129Z"/><circle cx="90.41" cy="111.61" r="13.1"/><circle cx="90.41" cy="111.86" r="9.66"/><circle cx="90.41" cy="111.86" r="7.67"/><path d="M99.59,106.83a5,5,0,1,1-5-5A5,5,0,0,1,99.59,106.83Z"/><circle cx="140.98" cy="111.61" r="13.1"/><circle cx="140.98" cy="111.86" r="9.66"/><circle cx="140.98" cy="111.86" r="7.67"/><path d="M150.17,106.83a5,5,0,1,1-5-5A5,5,0,0,1,150.17,106.83Z"/><path d="M109.52,124.17c2.06,6,10.33,5.8,12.5,0,.65-1.73-2.12-2.48-2.76-.77.07-.18-.48.85-.71,1.13a3.59,3.59,0,0,1-2.78,1.34,3.9,3.9,0,0,1-3.49-2.47c-.6-1.73-3.36-1-2.76.77Z"/><rect x="86.12" y="82.35" width="8.18" height="17.86" rx="2.74" transform="translate(-12.99 167.56) rotate(-81.81)"/><rect class="cls-5" x="86.12" y="82.35" width="8.18" height="17.86" rx="2.74" transform="translate(-13.07 167.46) rotate(-81.75)"/><rect x="132.4" y="87.19" width="17.86" height="8.18" rx="2.74" transform="translate(-11.56 21.07) rotate(-8.19)"/><rect class="cls-5" x="132.4" y="87.19" width="17.86" height="8.18" rx="2.74" transform="translate(-11.63 21.22) rotate(-8.25)"/><path d="M130.32,174.35h-29.1s4.66-23.6,6.07-24a26.9,26.9,0,0,1,16.95,0C125.66,150.75,130.32,174.35,130.32,174.35Z"/><polygon points="101.22 170.67 96.91 204.41 115.29 204.15 114.38 179.6 116.86 179.6 116.22 204.14 134.94 204.33 130.32 170.67 101.22 170.67"/><path d="M121.24,152.72c1.76-2.8,16.76,1.84,28,7.52,0,0,4.43-1.9,5.23-1.31s-2.24,4.52-2.24,4.52,4.78,2.17,4.62,2.81-2.31,1.18-4.93.9c0,0,3.23,4,2.53,4.71-.47.47-4.55-1.27-4.55-1.27s.7,3.18-.07,3.37-5.33-5.06-5.33-5.06S118.82,156.56,121.24,152.72Z"/><path d="M109.57,152.66c-.31-3.3-15.78-6-28.4-6,0,0-3.08-3.7-4.07-3.54s0,5,0,5-5.24-.23-5.39.41,1.53,2.1,4,3c0,0-4.7,2.11-4.39,3,.21.63,4.63.92,4.63.92s-2.06,2.53-1.46,3,7-2.09,7-2.09S110,157.17,109.57,152.66Z"/><path d="M128.48,161.66l1,3.26,1.22,4.15.38,1.24.49,1.66.5,1.66H99.38l.53-1.66.53-1.66.4-1.24,1.32-4.15,2.08-6.52L112.1,149s.62,4.73,3.9,4.73,3.91-4.73,3.91-4.73Z"/><path d="M107.85,194l-15.71-.31,5.68-21.33.53-1.65.4-1.25,1.32-4.15,2.09-6.52-11.51,1.31-1.67.19-4,.46,1-14.23L90,147l1.65.19L110,149.35a7.27,7.27,0,0,0,1.9,4C112.44,153.79,107.85,194,107.85,194Z"/><path d="M146.54,156.68l-5,12.9-2.71-1.73-1.45-.92-7.45-4.75,1,3.25,1.22,4.15.38,1.25.49,1.65,5.28,21-15.92.05s-2.95-39.86-2.38-40.56a8.06,8.06,0,0,0,1.38-3.45l20.15,5.75,1.6.45Z"/><polygon points="109.29 159.49 106.8 161.95 110.79 167.3 111.38 161.22 109.29 159.49"/><path d="M112.74,148.77l-1.46,13.31L106,158l3.7-8.55A6,6,0,0,1,112.74,148.77Z"/><polygon points="122.3 159.81 124.7 162.36 120.53 167.57 120.15 161.47 122.3 159.81"/><path d="M119.21,149l1,13.36,5.44-3.93-3.41-8.68A6,6,0,0,0,119.21,149Z"/><rect x="97.47" y="176.45" width="7.93" height="1.36"/><rect x="124.98" y="176.45" width="7.93" height="1.36"/><path d="M66.67,110.11a26.74,26.74,0,0,1,.14-5.06C68,95.58,73.38,65.87,94.49,71.89c6.83,2,10.57,7.12,16,7.11,14.36,0,26-10.26,30.39-16,6-7.83,24.11,6.46,23.49,45.58l-.05,1.31s10.47-5.76,13.7-16.16c2.91-9.36,1.42-46.05-18.59-45.36-9.59.33-5.33-11.46-16.31-16.33-7.65-3.4-19.7-.68-23.56,8.85-2.82,6.94-25.93-5.1-43.09-3.3-9.76,1-16.65,9.69-16.63,19.5.07,24.28-14.14,12.23-18.3,29.5-1.67,6.91-1,14.89,7,19a16.36,16.36,0,0,0,5.07,1.59c2.22.34,6.11.91,10.82,1.43a7,7,0,0,1,2.32,1.42Z"/><path class="cls-6" d="M140.54,101.73c4.3-.17,13.15-.15,17.07,2.7s1.44,14.71-3.48,18.52-16.3,3.76-22.43,1.13-8.67-12.83-7.24-16.55S127.83,102.23,140.54,101.73Z"/><path class="cls-6" d="M90.64,101.73c-4.3-.17-13.15-.63-17.07,2.22s-1.44,15.19,3.48,19,16.3,3.76,22.43,1.13,8.67-12.83,7.24-16.55S103.35,102.23,90.64,101.73Z"/><path d="M164.76,100.06c-5.23-1.1-19.52-2.39-24.74-2s-20.4,2-20.4,2a60.09,60.09,0,0,1-8.38,0S96,98.66,91,98.34s-19.51.44-24.73,1.54c-1.62.34-1.4,4.7-.38,5.09,1.79.68,1.94,4.28,2.46,7.56.73,4.6,3.67,10.32,6.12,12.27,6,4.75,19.82,4.69,27.28,1.41,5.93-2.61,9.1-11.18,9.27-16.92a7.39,7.39,0,0,1,4.46-1.28,7.3,7.3,0,0,1,4.58,1.32c.28,5.73,3.44,14,9.25,16.58,7.46,3.28,21.3,3.82,27.28-.93,2.46-2,5.39-7.67,6.12-12.27.53-3.27.67-6.88,2.46-7.56C166.16,104.76,166.38,100.4,164.76,100.06Zm-65.28,24C93.35,126.71,82,126.75,77.05,123s-7.4-16.14-3.48-19,12.77-2.39,17.07-2.22c12.71.5,14.64,2.09,16.08,5.8S105.61,121.45,99.48,124.08ZM154.13,123c-4.92,3.8-16.3,3.76-22.43,1.13s-8.67-12.83-7.24-16.55,3.37-5.3,16.08-5.8c4.3-.17,13.15-.15,17.07,2.7S159.05,119.14,154.13,123Z"/></g><rect class="cls-7" x="103.68" y="167.3" width="19.37" height="18.13"/><polygon class="cls-8" points="129.26 167.38 130.9 197.27 136.99 201.55 115.57 201.47 119.56 167.34 129.26 167.38"/><polygon class="cls-8" points="100.26 167.38 98.63 197.27 92.53 201.55 113.95 201.47 109.97 167.34 100.26 167.38"/><polygon class="cls-9" points="113.96 201.47 92.54 201.47 98.62 197.27 113.47 197.27 113.63 198.62 113.96 201.47"/><path class="cls-10" d="M99,198.65l-1.68-.44a.67.67,0,0,0-.81.47.66.66,0,0,0,.48.81l1.67.44a.66.66,0,0,0,.34-1.28Z"/><path class="cls-10" d="M100.32,197.32l-1.67-.44a.67.67,0,0,0-.34,1.29l1.68.43a.66.66,0,0,0,.81-.47A.67.67,0,0,0,100.32,197.32Z"/><path class="cls-10" d="M114,201.48H109.2a4.57,4.57,0,0,1,4.43-2.86Z"/><rect class="cls-11" x="91.49" y="201.48" width="23.51" height="2.72" rx="1.26"/><polygon class="cls-9" points="115.57 201.47 136.99 201.47 130.91 197.27 116.06 197.27 115.91 198.62 115.57 201.47"/><path class="cls-10" d="M130.53,198.65l1.68-.44a.66.66,0,1,1,.33,1.28l-1.67.44a.66.66,0,1,1-.34-1.28Z"/><path class="cls-10" d="M129.21,197.32l1.67-.44a.67.67,0,0,1,.34,1.29l-1.68.43a.66.66,0,0,1-.81-.47A.67.67,0,0,1,129.21,197.32Z"/><path class="cls-10" d="M115.57,201.48h4.76a4.56,4.56,0,0,0-4.43-2.86Z"/><rect class="cls-11" x="114.53" y="201.48" width="23.51" height="2.72" rx="1.26"/><path class="cls-8" d="M118.11,144.63a4.62,4.62,0,0,1-3.34,1.4,4.85,4.85,0,0,1-3.35-1.4l.66-6.69h5.23Z"/><path class="cls-8" d="M164.32,99A93.44,93.44,0,0,1,159.7,122a29.62,29.62,0,0,1-4.79,9.22c-3.17,3.63-9.13,5.89-15.51,7.3a121.06,121.06,0,0,1-24.63,2.29,121.06,121.06,0,0,1-24.63-2.29c-6.38-1.41-12.34-3.67-15.51-7.3A29.62,29.62,0,0,1,69.84,122h0A95.71,95.71,0,0,1,65,94.33c-.41-13,1.83-26.09,8.57-33.33,9.15-9.82,21.82-13.41,31.55-14.66a3,3,0,0,1,.31,0,76.09,76.09,0,0,1,9.37-.58h.92c9.31.11,28,2,40.31,15.26C163.54,69.09,165.44,84.46,164.32,99Z"/><path class="cls-8" d="M69.28,106.56s-5.22-7.83-12.26-5-5.88,13.71.52,17.23,12,.78,13.83-2.09S69.28,106.56,69.28,106.56Z"/><path class="cls-12" d="M63.71,106.38A11.57,11.57,0,0,1,63,109a18.38,18.38,0,0,1-2.62,4.65,11.13,11.13,0,0,1-1.9,2,11.44,11.44,0,0,1,.71-2.66,19.23,19.23,0,0,1,2.62-4.65A11.49,11.49,0,0,1,63.71,106.38Z"/><path class="cls-12" d="M56.44,108.41a11.32,11.32,0,0,1,2.66.72,17.26,17.26,0,0,1,2.42,1.14,18.38,18.38,0,0,1,2.24,1.47,11.54,11.54,0,0,1,2,1.91,11.81,11.81,0,0,1-2.66-.71,18.52,18.52,0,0,1-2.42-1.15,19.18,19.18,0,0,1-2.24-1.47A11.91,11.91,0,0,1,56.44,108.41Z"/><path class="cls-8" d="M160,106.56s5.22-7.83,12.27-5,5.87,13.71-.52,17.23-12,.78-13.84-2.09S160,106.56,160,106.56Z"/><path class="cls-12" d="M165.54,106.38a11.56,11.56,0,0,1,1.91,2,20.43,20.43,0,0,1,1.47,2.23,19.15,19.15,0,0,1,1.15,2.42,12,12,0,0,1,.71,2.66,11.19,11.19,0,0,1-1.91-2,17.88,17.88,0,0,1-1.47-2.23,19.15,19.15,0,0,1-1.15-2.42A12.11,12.11,0,0,1,165.54,106.38Z"/><path class="cls-12" d="M172.81,108.41a11.19,11.19,0,0,1-2,1.91,19.23,19.23,0,0,1-4.65,2.62,12,12,0,0,1-2.66.71,11.19,11.19,0,0,1,2-1.91,19.07,19.07,0,0,1,2.23-1.47,17.81,17.81,0,0,1,2.42-1.14A11.45,11.45,0,0,1,172.81,108.41Z"/><path class="cls-13" d="M93.37,129.94a13,13,0,0,1-3.23,8.61c-6.38-1.41-12.34-3.67-15.51-7.3A29.62,29.62,0,0,1,69.84,122h0a13.1,13.1,0,0,1,23.53,7.92Z"/><path class="cls-13" d="M159.7,122a29.62,29.62,0,0,1-4.79,9.22c-3.17,3.63-9.13,5.89-15.51,7.3A13.09,13.09,0,1,1,159.7,122Z"/><circle class="cls-10" cx="89.41" cy="104.61" r="13.1"/><circle class="cls-14" cx="89.41" cy="104.86" r="9.66"/><circle class="cls-11" cx="89.41" cy="104.86" r="7.67"/><path class="cls-10" d="M98.59,99.83a5,5,0,1,1-5-5A5,5,0,0,1,98.59,99.83Z"/><circle class="cls-10" cx="139.98" cy="104.61" r="13.1"/><circle class="cls-14" cx="139.98" cy="104.86" r="9.66"/><circle class="cls-11" cx="139.98" cy="104.86" r="7.67"/><path class="cls-10" d="M149.17,99.83a5,5,0,1,1-5-5A5,5,0,0,1,149.17,99.83Z"/><path class="cls-11" d="M108.52,117.17c2.06,6,10.33,5.8,12.5,0,.65-1.73-2.12-2.48-2.76-.77.07-.18-.48.85-.71,1.13a3.59,3.59,0,0,1-2.78,1.34,3.9,3.9,0,0,1-3.49-2.47c-.6-1.73-3.36-1-2.76.77Z"/><rect class="cls-9" x="85.12" y="75.35" width="8.18" height="17.86" rx="2.74" transform="translate(-6.92 160.56) rotate(-81.81)"/><rect class="cls-15" x="85.12" y="75.35" width="8.18" height="17.86" rx="2.74" transform="translate(-7 160.47) rotate(-81.75)"/><rect class="cls-9" x="131.4" y="80.19" width="17.86" height="8.18" rx="2.74" transform="translate(-10.58 20.86) rotate(-8.19)"/><rect class="cls-15" x="131.4" y="80.19" width="17.86" height="8.18" rx="2.74" transform="translate(-10.64 21.01) rotate(-8.25)"/><path class="cls-8" d="M129.32,167.35h-29.1s4.66-23.6,6.07-24a26.9,26.9,0,0,1,16.95,0C124.66,143.75,129.32,167.35,129.32,167.35Z"/><polygon class="cls-16" points="100.22 163.67 95.91 197.41 114.29 197.15 113.38 172.6 115.86 172.6 115.22 197.14 133.94 197.33 129.32 163.67 100.22 163.67"/><path class="cls-8" d="M120.24,145.72c1.76-2.8,16.76,1.84,28,7.52,0,0,4.43-1.9,5.23-1.31s-2.24,4.52-2.24,4.52,4.78,2.17,4.62,2.81-2.31,1.18-4.93.9c0,0,3.23,4,2.53,4.71-.47.47-4.55-1.27-4.55-1.27s.7,3.18-.07,3.37-5.33-5.06-5.33-5.06S117.82,149.56,120.24,145.72Z"/><path class="cls-8" d="M108.57,145.66c-.31-3.3-15.78-6-28.4-6,0,0-3.08-3.7-4.07-3.54s0,5,0,5-5.24-.23-5.39.41,1.53,2.1,4,3c0,0-4.7,2.11-4.39,3,.21.63,4.63.92,4.63.92s-2.06,2.53-1.46,3,7-2.09,7-2.09S109,150.17,108.57,145.66Z"/><path class="cls-17" d="M127.48,154.66l1,3.26,1.22,4.15.38,1.24.49,1.66.5,1.66H98.38l.53-1.66.53-1.66.4-1.24,1.32-4.15,2.08-6.52L111.1,142s.62,4.73,3.9,4.73,3.91-4.73,3.91-4.73Z"/><path class="cls-18" d="M106.85,187l-15.71-.31,5.68-21.33.53-1.65.4-1.25,1.32-4.15,2.09-6.52-11.51,1.31-1.67.19-4,.46,1-14.23L89,140l1.65.19L109,142.35a7.27,7.27,0,0,0,1.9,4C111.44,146.79,106.85,187,106.85,187Z"/><path class="cls-18" d="M145.54,149.68l-5,12.9-2.71-1.73-1.45-.92-7.45-4.75,1,3.25,1.22,4.15.38,1.25.49,1.65,5.28,21-15.92.05s-2.95-39.86-2.38-40.56a8.06,8.06,0,0,0,1.38-3.45l20.15,5.75,1.6.45Z"/><polygon class="cls-19" points="108.29 152.49 105.8 154.95 109.79 160.3 110.38 154.22 108.29 152.49"/><path class="cls-19" d="M111.74,141.77l-1.46,13.31L105,151l3.7-8.55A6,6,0,0,1,111.74,141.77Z"/><polygon class="cls-19" points="121.3 152.81 123.7 155.36 119.53 160.57 119.15 154.47 121.3 152.81"/><path class="cls-19" d="M118.21,142l1,13.36,5.44-3.93-3.41-8.68A6,6,0,0,0,118.21,142Z"/><rect class="cls-19" x="96.47" y="169.45" width="7.93" height="1.36"/><rect class="cls-19" x="123.98" y="169.45" width="7.93" height="1.36"/><path class="cls-9" d="M65.67,103.11a26.74,26.74,0,0,1,.14-5.06C67,88.58,72.38,58.87,93.49,64.89c6.83,2,10.57,7.12,16,7.11,14.36,0,26-10.26,30.39-16,6-7.83,24.11,6.46,23.49,45.58l-.05,1.31s10.47-5.76,13.7-16.16c2.91-9.36,1.42-46.05-18.59-45.36-9.59.33-5.33-11.46-16.31-16.33-7.65-3.4-19.7-.68-23.56,8.85-2.82,6.94-25.93-5.1-43.09-3.3-9.76,1-16.65,9.69-16.63,19.5.07,24.28-14.14,12.23-18.3,29.5-1.67,6.91-1,14.89,7,19a16.36,16.36,0,0,0,5.07,1.59c2.22.34,6.11.91,10.82,1.43a7,7,0,0,1,2.32,1.42Z"/><path class="cls-20" d="M139.54,94.73c4.3-.17,13.15-.15,17.07,2.7s1.44,14.71-3.48,18.52-16.3,3.76-22.43,1.13-8.67-12.83-7.24-16.55S126.83,95.23,139.54,94.73Z"/><path class="cls-20" d="M89.64,94.73c-4.3-.17-13.15-.63-17.07,2.22s-1.44,15.19,3.48,19,16.3,3.76,22.43,1.13,8.67-12.83,7.24-16.55S102.35,95.23,89.64,94.73Z"/><path class="cls-21" d="M163.76,93.06c-5.23-1.1-19.52-2.39-24.74-2s-20.4,2-20.4,2a60.09,60.09,0,0,1-8.38,0S95,91.66,90,91.34s-19.51.44-24.73,1.54c-1.62.34-1.4,4.7-.38,5.09,1.79.68,1.94,4.28,2.46,7.56.73,4.6,3.67,10.32,6.12,12.27,6,4.75,19.82,4.69,27.28,1.41,5.93-2.61,9.1-11.18,9.27-16.92a7.39,7.39,0,0,1,4.46-1.28,7.3,7.3,0,0,1,4.58,1.32c.28,5.73,3.44,14,9.25,16.58,7.46,3.28,21.3,3.82,27.28-.93,2.46-2,5.39-7.67,6.12-12.27.53-3.27.67-6.88,2.46-7.56C165.16,97.76,165.38,93.4,163.76,93.06Zm-65.28,24C92.35,119.71,81,119.75,76.05,116s-7.4-16.14-3.48-19,12.77-2.39,17.07-2.22c12.71.5,14.64,2.09,16.08,5.8S104.61,114.45,98.48,117.08ZM153.13,116c-4.92,3.8-16.3,3.76-22.43,1.13s-8.67-12.83-7.24-16.55,3.37-5.3,16.08-5.8c4.3-.17,13.15-.15,17.07,2.7S158.05,112.14,153.13,116Z"/></g></g></g></svg>